<?xml version="1.0" encoding="UTF-8" standalone="no"?>
<!-- Created with Inkscape (http://www.inkscape.org/) -->

<svg
   xmlns:ns0="http://www.iki.fi/pav/software/textext/"
   xmlns:dc="http://purl.org/dc/elements/1.1/"
   xmlns:cc="http://creativecommons.org/ns#"
   xmlns:rdf="http://www.w3.org/1999/02/22-rdf-syntax-ns#"
   xmlns:svg="http://www.w3.org/2000/svg"
   xmlns="http://www.w3.org/2000/svg"
   xmlns:xlink="http://www.w3.org/1999/xlink"
   xmlns:sodipodi="http://sodipodi.sourceforge.net/DTD/sodipodi-0.dtd"
   xmlns:inkscape="http://www.inkscape.org/namespaces/inkscape"
   sodipodi:docname="behaviour_integrand.svg"
   viewBox="0 0 480 289.33334"
   height="289.33334"
   width="480"
   xml:space="preserve"
   id="svg2"
   version="1.1"
   inkscape:version="0.92.1 r15371"><sodipodi:namedview
     inkscape:current-layer="g10"
     inkscape:window-maximized="0"
     inkscape:window-y="27"
     inkscape:window-x="0"
     inkscape:cy="144.66667"
     inkscape:cx="109.13422"
     inkscape:zoom="1.428945"
     showgrid="false"
     id="namedview4"
     inkscape:window-height="1019"
     inkscape:window-width="1498"
     inkscape:pageshadow="2"
     inkscape:pageopacity="0"
     guidetolerance="10"
     gridtolerance="10"
     objecttolerance="10"
     borderopacity="1"
     bordercolor="#666666"
     pagecolor="#ffffff" /><metadata
     id="metadata8"><rdf:RDF><cc:Work
         rdf:about=""><dc:format>image/svg+xml</dc:format><dc:type
           rdf:resource="http://purl.org/dc/dcmitype/StillImage" /><dc:title /></cc:Work></rdf:RDF></metadata><defs
     id="defs6"><defs
       id="defs12918"><g
         id="g12916"><symbol
           style="overflow:visible"
           id="textext-ffcc054b-0"
           overflow="visible"><path
             inkscape:connector-curvature="0"
             id="path12808"
             d=""
             style="stroke:none" /></symbol><symbol
           style="overflow:visible"
           id="textext-ffcc054b-1"
           overflow="visible"><path
             inkscape:connector-curvature="0"
             id="path12811"
             d="m 3.65625,-3.984375 h 0.859375 c 0.203125,0 0.296875,0 0.296875,-0.203125 0,-0.109375 -0.09375,-0.109375 -0.265625,-0.109375 H 3.71875 L 3.921875,-5.4375 c 0.046875,-0.203125 0.1875,-0.90625 0.25,-1.03125 0.078125,-0.1875 0.25,-0.34375 0.46875,-0.34375 0.03125,0 0.296875,0 0.484375,0.1875 -0.4375,0.03125 -0.546875,0.390625 -0.546875,0.53125 0,0.234375 0.1875,0.359375 0.375,0.359375 C 5.21875,-5.734375 5.5,-5.96875 5.5,-6.34375 c 0,-0.453125 -0.453125,-0.6875 -0.859375,-0.6875 -0.34375,0 -0.96875,0.1875 -1.265625,1.171875 -0.0625,0.203125 -0.09375,0.3125 -0.328125,1.5625 h -0.6875 c -0.203125,0 -0.3125,0 -0.3125,0.1875 0,0.125 0.09375,0.125 0.28125,0.125 h 0.65625 L 2.25,-0.046875 c -0.1875,0.96875 -0.359375,1.875 -0.875,1.875 -0.046875,0 -0.28125,0 -0.484375,-0.1875 C 1.359375,1.609375 1.453125,1.25 1.453125,1.109375 1.453125,0.875 1.265625,0.75 1.078125,0.75 0.8125,0.75 0.53125,0.984375 0.53125,1.359375 c 0,0.4375 0.4375,0.6875 0.84375,0.6875 0.546875,0 0.953125,-0.59375 1.125,-0.96875 0.328125,-0.625 0.546875,-1.828125 0.5625,-1.90625 z m 0,0"
             style="stroke:none" /></symbol><symbol
           style="overflow:visible"
           id="textext-ffcc054b-2"
           overflow="visible"><path
             inkscape:connector-curvature="0"
             id="path12814"
             d="M 3.328125,-3.015625 C 3.390625,-3.265625 3.625,-4.1875 4.3125,-4.1875 c 0.046875,0 0.296875,0 0.5,0.125 C 4.53125,-4 4.34375,-3.765625 4.34375,-3.515625 c 0,0.15625 0.109375,0.34375 0.375,0.34375 0.21875,0 0.53125,-0.171875 0.53125,-0.578125 0,-0.515625 -0.578125,-0.65625 -0.921875,-0.65625 -0.578125,0 -0.921875,0.53125 -1.046875,0.75 -0.25,-0.65625 -0.78125,-0.75 -1.078125,-0.75 -1.03125,0 -1.609375,1.28125 -1.609375,1.53125 0,0.109375 0.109375,0.109375 0.125,0.109375 0.078125,0 0.109375,-0.03125 0.125,-0.109375 0.34375,-1.0625 1,-1.3125 1.34375,-1.3125 0.1875,0 0.53125,0.09375 0.53125,0.671875 0,0.3125 -0.171875,0.96875 -0.53125,2.375 -0.15625,0.609375 -0.515625,1.03125 -0.953125,1.03125 -0.0625,0 -0.28125,0 -0.5,-0.125 0.25,-0.0625 0.46875,-0.265625 0.46875,-0.546875 0,-0.265625 -0.21875,-0.34375 -0.359375,-0.34375 -0.3125,0 -0.546875,0.25 -0.546875,0.578125 0,0.453125 0.484375,0.65625 0.921875,0.65625 0.671875,0 1.03125,-0.703125 1.046875,-0.75 0.125,0.359375 0.484375,0.75 1.078125,0.75 1.03125,0 1.59375,-1.28125 1.59375,-1.53125 0,-0.109375 -0.078125,-0.109375 -0.109375,-0.109375 -0.09375,0 -0.109375,0.046875 -0.140625,0.109375 -0.328125,1.078125 -1,1.3125 -1.3125,1.3125 -0.390625,0 -0.546875,-0.3125 -0.546875,-0.65625 0,-0.21875 0.046875,-0.4375 0.15625,-0.875 z m 0,0"
             style="stroke:none" /></symbol><symbol
           style="overflow:visible"
           id="textext-ffcc054b-3"
           overflow="visible"><path
             inkscape:connector-curvature="0"
             id="path12817"
             d="m 2.640625,-3.71875 h 1.125 C 3.4375,-2.25 3.34375,-1.8125 3.34375,-1.140625 c 0,0.140625 0,0.40625 0.078125,0.75 0.109375,0.4375 0.21875,0.5 0.359375,0.5 0.203125,0 0.421875,-0.171875 0.421875,-0.375 0,-0.0625 0,-0.078125 -0.0625,-0.21875 -0.296875,-0.71875 -0.296875,-1.375 -0.296875,-1.65625 0,-0.515625 0.078125,-1.0625 0.1875,-1.578125 h 1.125 c 0.140625,0 0.5,0 0.5,-0.34375 0,-0.234375 -0.21875,-0.234375 -0.40625,-0.234375 H 1.90625 c -0.21875,0 -0.59375,0 -1.03125,0.46875 -0.34375,0.390625 -0.609375,0.84375 -0.609375,0.890625 0,0.015625 0,0.109375 0.125,0.109375 0.078125,0 0.09375,-0.046875 0.15625,-0.125 C 1.03125,-3.71875 1.609375,-3.71875 1.8125,-3.71875 H 2.375 C 2.0625,-2.515625 1.53125,-1.3125 1.109375,-0.40625 1.03125,-0.25 1.03125,-0.234375 1.03125,-0.15625 c 0,0.1875 0.15625,0.265625 0.28125,0.265625 0.296875,0 0.375,-0.28125 0.5,-0.640625 C 1.953125,-1 1.953125,-1.015625 2.078125,-1.515625 Z m 0,0"
             style="stroke:none" /></symbol><symbol
           style="overflow:visible"
           id="textext-ffcc054b-4"
           overflow="visible"><path
             inkscape:connector-curvature="0"
             id="path12820"
             d=""
             style="stroke:none" /></symbol><symbol
           style="overflow:visible"
           id="textext-ffcc054b-5"
           overflow="visible"><path
             inkscape:connector-curvature="0"
             id="path12823"
             d="m 3.296875,2.390625 c 0,-0.03125 0,-0.046875 -0.171875,-0.21875 C 1.890625,0.921875 1.5625,-0.96875 1.5625,-2.5 c 0,-1.734375 0.375,-3.46875 1.609375,-4.703125 0.125,-0.125 0.125,-0.140625 0.125,-0.171875 0,-0.078125 -0.03125,-0.109375 -0.09375,-0.109375 -0.109375,0 -1,0.6875 -1.59375,1.953125 -0.5,1.09375 -0.625,2.203125 -0.625,3.03125 0,0.78125 0.109375,1.984375 0.65625,3.125 C 2.25,1.84375 3.09375,2.5 3.203125,2.5 c 0.0625,0 0.09375,-0.03125 0.09375,-0.109375 z m 0,0"
             style="stroke:none" /></symbol><symbol
           style="overflow:visible"
           id="textext-ffcc054b-6"
           overflow="visible"><path
             inkscape:connector-curvature="0"
             id="path12826"
             d="m 2.875,-2.5 c 0,-0.765625 -0.109375,-1.96875 -0.65625,-3.109375 -0.59375,-1.21875 -1.453125,-1.875 -1.546875,-1.875 -0.0625,0 -0.109375,0.046875 -0.109375,0.109375 0,0.03125 0,0.046875 0.1875,0.234375 0.984375,0.984375 1.546875,2.5625 1.546875,4.640625 0,1.71875 -0.359375,3.46875 -1.59375,4.71875 C 0.5625,2.34375 0.5625,2.359375 0.5625,2.390625 0.5625,2.453125 0.609375,2.5 0.671875,2.5 0.765625,2.5 1.671875,1.8125 2.25,0.546875 2.765625,-0.546875 2.875,-1.65625 2.875,-2.5 Z m 0,0"
             style="stroke:none" /></symbol><symbol
           style="overflow:visible"
           id="textext-ffcc054b-7"
           overflow="visible"><path
             inkscape:connector-curvature="0"
             id="path12829"
             d="m 6.84375,-3.265625 c 0.15625,0 0.34375,0 0.34375,-0.1875 C 7.1875,-3.65625 7,-3.65625 6.859375,-3.65625 h -5.96875 c -0.140625,0 -0.328125,0 -0.328125,0.203125 0,0.1875 0.1875,0.1875 0.328125,0.1875 z m 0.015625,1.9375 c 0.140625,0 0.328125,0 0.328125,-0.203125 0,-0.1875 -0.1875,-0.1875 -0.34375,-0.1875 H 0.890625 c -0.140625,0 -0.328125,0 -0.328125,0.1875 0,0.203125 0.1875,0.203125 0.328125,0.203125 z m 0,0"
             style="stroke:none" /></symbol><symbol
           style="overflow:visible"
           id="textext-ffcc054b-8"
           overflow="visible"><path
             inkscape:connector-curvature="0"
             id="path12832"
             d="m 1.265625,-0.765625 1.0625,-1.03125 c 1.546875,-1.375 2.140625,-1.90625 2.140625,-2.90625 0,-1.140625 -0.890625,-1.9375 -2.109375,-1.9375 -1.125,0 -1.859375,0.921875 -1.859375,1.8125 0,0.546875 0.5,0.546875 0.53125,0.546875 0.171875,0 0.515625,-0.109375 0.515625,-0.53125 0,-0.25 -0.1875,-0.515625 -0.53125,-0.515625 -0.078125,0 -0.09375,0 -0.125,0.015625 0.21875,-0.65625 0.765625,-1.015625 1.34375,-1.015625 0.90625,0 1.328125,0.8125 1.328125,1.625 C 3.5625,-3.90625 3.078125,-3.125 2.515625,-2.5 l -1.90625,2.125 C 0.5,-0.265625 0.5,-0.234375 0.5,0 H 4.203125 L 4.46875,-1.734375 H 4.234375 C 4.171875,-1.4375 4.109375,-1 4,-0.84375 3.9375,-0.765625 3.28125,-0.765625 3.0625,-0.765625 Z m 0,0"
             style="stroke:none" /></symbol><symbol
           style="overflow:visible"
           id="textext-ffcc054b-9"
           overflow="visible"><path
             inkscape:connector-curvature="0"
             id="path12835"
             d="m 1.71875,-3.984375 h 1.4375 v -0.3125 H 1.71875 V -6.125 h -0.25 c 0,0.8125 -0.296875,1.875 -1.28125,1.921875 v 0.21875 h 0.84375 v 2.75 c 0,1.21875 0.9375,1.34375 1.296875,1.34375 0.703125,0 0.984375,-0.703125 0.984375,-1.34375 v -0.5625 h -0.25 V -1.25 c 0,0.734375 -0.296875,1.109375 -0.671875,1.109375 -0.671875,0 -0.671875,-0.90625 -0.671875,-1.078125 z m 0,0"
             style="stroke:none" /></symbol><symbol
           style="overflow:visible"
           id="textext-ffcc054b-10"
           overflow="visible"><path
             inkscape:connector-curvature="0"
             id="path12838"
             d="m 3.3125,-0.75 c 0.046875,0.390625 0.3125,0.8125 0.78125,0.8125 0.21875,0 0.828125,-0.140625 0.828125,-0.953125 v -0.5625 h -0.25 v 0.5625 c 0,0.578125 -0.25,0.640625 -0.359375,0.640625 -0.328125,0 -0.375,-0.453125 -0.375,-0.5 v -1.984375 c 0,-0.421875 0,-0.8125 -0.359375,-1.1875 C 3.1875,-4.3125 2.6875,-4.46875 2.21875,-4.46875 c -0.828125,0 -1.515625,0.46875 -1.515625,1.125 0,0.296875 0.203125,0.46875 0.46875,0.46875 0.28125,0 0.453125,-0.203125 0.453125,-0.453125 0,-0.125 -0.046875,-0.453125 -0.515625,-0.453125 C 1.390625,-4.140625 1.875,-4.25 2.1875,-4.25 c 0.5,0 1.0625,0.390625 1.0625,1.28125 v 0.359375 c -0.515625,0.03125 -1.203125,0.0625 -1.828125,0.359375 -0.75,0.34375 -1,0.859375 -1,1.296875 0,0.8125 0.96875,1.0625 1.59375,1.0625 0.65625,0 1.109375,-0.40625 1.296875,-0.859375 z M 3.25,-2.390625 v 1 c 0,0.9375 -0.71875,1.28125 -1.171875,1.28125 -0.484375,0 -0.890625,-0.34375 -0.890625,-0.84375 0,-0.546875 0.421875,-1.375 2.0625,-1.4375 z m 0,0"
             style="stroke:none" /></symbol><symbol
           style="overflow:visible"
           id="textext-ffcc054b-11"
           overflow="visible"><path
             inkscape:connector-curvature="0"
             id="path12841"
             d="M 1.09375,-3.421875 V -0.75 c 0,0.4375 -0.109375,0.4375 -0.78125,0.4375 V 0 c 0.359375,-0.015625 0.859375,-0.03125 1.140625,-0.03125 0.25,0 0.765625,0.015625 1.109375,0.03125 v -0.3125 c -0.671875,0 -0.78125,0 -0.78125,-0.4375 V -2.59375 C 1.78125,-3.625 2.5,-4.1875 3.125,-4.1875 c 0.640625,0 0.75,0.53125 0.75,1.109375 V -0.75 c 0,0.4375 -0.109375,0.4375 -0.78125,0.4375 V 0 c 0.34375,-0.015625 0.859375,-0.03125 1.125,-0.03125 0.25,0 0.78125,0.015625 1.109375,0.03125 v -0.3125 c -0.515625,0 -0.765625,0 -0.765625,-0.296875 v -1.90625 c 0,-0.859375 0,-1.15625 -0.3125,-1.515625 -0.140625,-0.171875 -0.46875,-0.375 -1.046875,-0.375 C 2.46875,-4.40625 2,-3.984375 1.71875,-3.359375 V -4.40625 L 0.3125,-4.296875 v 0.3125 c 0.703125,0 0.78125,0.0625 0.78125,0.5625 z m 0,0"
             style="stroke:none" /></symbol><symbol
           style="overflow:visible"
           id="textext-ffcc054b-12"
           overflow="visible"><path
             inkscape:connector-curvature="0"
             id="path12844"
             d=""
             style="stroke:none" /></symbol><symbol
           style="overflow:visible"
           id="textext-ffcc054b-13"
           overflow="visible"><path
             inkscape:connector-curvature="0"
             id="path12847"
             d="m 2.328125,-4.4375 c 0,-0.1875 0,-0.1875 -0.203125,-0.1875 -0.453125,0.4375 -1.078125,0.4375 -1.359375,0.4375 v 0.25 c 0.15625,0 0.625,0 1,-0.1875 v 3.546875 c 0,0.234375 0,0.328125 -0.6875,0.328125 H 0.8125 V 0 c 0.125,0 0.984375,-0.03125 1.234375,-0.03125 0.21875,0 1.09375,0.03125 1.25,0.03125 V -0.25 H 3.03125 c -0.703125,0 -0.703125,-0.09375 -0.703125,-0.328125 z m 0,0"
             style="stroke:none" /></symbol><symbol
           style="overflow:visible"
           id="textext-ffcc054b-14"
           overflow="visible"><path
             inkscape:connector-curvature="0"
             id="path12850"
             d="M 2.46875,-5.21875 C 1.15625,-4.296875 0.796875,-2.8125 0.796875,-1.75 c 0,0.984375 0.296875,2.515625 1.671875,3.484375 0.0625,0 0.140625,0 0.140625,-0.078125 0,-0.046875 -0.015625,-0.0625 -0.0625,-0.109375 C 1.609375,0.703125 1.28125,-0.46875 1.28125,-1.734375 1.28125,-3.625 2,-4.546875 2.5625,-5.0625 2.59375,-5.09375 2.609375,-5.109375 2.609375,-5.140625 2.609375,-5.21875 2.53125,-5.21875 2.46875,-5.21875 Z m 0,0"
             style="stroke:none" /></symbol><symbol
           style="overflow:visible"
           id="textext-ffcc054b-15"
           overflow="visible"><path
             inkscape:connector-curvature="0"
             id="path12853"
             d="m 0.625,-5.21875 c -0.046875,0 -0.125,0 -0.125,0.078125 0,0.03125 0.015625,0.046875 0.0625,0.109375 0.59375,0.546875 1.265625,1.484375 1.265625,3.28125 0,1.453125 -0.453125,2.5625 -1.203125,3.234375 -0.125,0.125 -0.125,0.125 -0.125,0.171875 0,0.03125 0.015625,0.078125 0.078125,0.078125 0.09375,0 0.75,-0.453125 1.21875,-1.328125 0.296875,-0.578125 0.5,-1.328125 0.5,-2.140625 C 2.296875,-2.71875 2,-4.25 0.625,-5.21875 Z m 0,0"
             style="stroke:none" /></symbol><symbol
           style="overflow:visible"
           id="textext-ffcc054b-16"
           overflow="visible"><path
             inkscape:connector-curvature="0"
             id="path12856"
             d="M 3.515625,-1.265625 H 3.28125 c -0.015625,0.15625 -0.09375,0.5625 -0.1875,0.625 C 3.046875,-0.59375 2.515625,-0.59375 2.40625,-0.59375 H 1.125 c 0.734375,-0.640625 0.984375,-0.84375 1.390625,-1.171875 0.515625,-0.40625 1,-0.84375 1,-1.5 0,-0.84375 -0.734375,-1.359375 -1.625,-1.359375 -0.859375,0 -1.453125,0.609375 -1.453125,1.25 0,0.34375 0.296875,0.390625 0.375,0.390625 0.15625,0 0.359375,-0.125 0.359375,-0.375 0,-0.125 -0.046875,-0.375 -0.40625,-0.375 C 0.984375,-4.21875 1.453125,-4.375 1.78125,-4.375 c 0.703125,0 1.0625,0.546875 1.0625,1.109375 0,0.609375 -0.4375,1.078125 -0.65625,1.328125 L 0.515625,-0.265625 C 0.4375,-0.203125 0.4375,-0.1875 0.4375,0 h 2.875 z m 0,0"
             style="stroke:none" /></symbol><symbol
           style="overflow:visible"
           id="textext-ffcc054b-17"
           overflow="visible"><path
             inkscape:connector-curvature="0"
             id="path12859"
             d="M 3.125,-4.6875 C 2.921875,-4.46875 2.71875,-4.375 2.515625,-4.375 2.34375,-4.375 2.125,-4.46875 2.078125,-4.515625 1.828125,-4.625 1.671875,-4.6875 1.53125,-4.6875 c -0.296875,0 -0.390625,0.109375 -0.828125,0.5625 L 0.84375,-4 c 0.1875,-0.203125 0.390625,-0.3125 0.59375,-0.3125 0.171875,0 0.390625,0.109375 0.4375,0.140625 C 2.125,-4.0625 2.28125,-4 2.4375,-4 2.71875,-4 2.828125,-4.109375 3.265625,-4.546875 Z m 0,0"
             style="stroke:none" /></symbol><symbol
           style="overflow:visible"
           id="textext-ffcc054b-18"
           overflow="visible"><path
             inkscape:connector-curvature="0"
             id="path12862"
             d="m 3.21875,-1.578125 h 2.140625 c 0.09375,0 0.25,0 0.25,-0.15625 0,-0.1875 -0.15625,-0.1875 -0.25,-0.1875 H 3.21875 V -4.0625 c 0,-0.078125 0,-0.25 -0.15625,-0.25 -0.171875,0 -0.171875,0.15625 -0.171875,0.25 v 2.140625 H 0.75 c -0.09375,0 -0.265625,0 -0.265625,0.171875 0,0.171875 0.15625,0.171875 0.265625,0.171875 H 2.890625 V 0.5625 c 0,0.09375 0,0.265625 0.15625,0.265625 0.171875,0 0.171875,-0.171875 0.171875,-0.265625 z m 0,0"
             style="stroke:none" /></symbol><symbol
           style="overflow:visible"
           id="textext-ffcc054b-19"
           overflow="visible"><path
             inkscape:connector-curvature="0"
             id="path12865"
             d=""
             style="stroke:none" /></symbol><symbol
           style="overflow:visible"
           id="textext-ffcc054b-20"
           overflow="visible"><path
             inkscape:connector-curvature="0"
             id="path12868"
             d="M 1.734375,-0.734375 C 1.671875,-0.5 1.4375,-0.125 1.078125,-0.125 c -0.015625,0 -0.234375,0 -0.375,-0.09375 0.28125,-0.09375 0.3125,-0.34375 0.3125,-0.390625 0,-0.15625 -0.125,-0.25 -0.28125,-0.25 -0.203125,0 -0.40625,0.15625 -0.40625,0.421875 0,0.34375 0.390625,0.5 0.734375,0.5 0.328125,0 0.609375,-0.1875 0.78125,-0.484375 C 2.015625,-0.0625 2.390625,0.0625 2.671875,0.0625 c 0.8125,0 1.234375,-0.859375 1.234375,-1.0625 0,-0.09375 -0.09375,-0.09375 -0.109375,-0.09375 -0.109375,0 -0.109375,0.046875 -0.140625,0.125 -0.140625,0.484375 -0.5625,0.84375 -0.953125,0.84375 -0.28125,0 -0.421875,-0.1875 -0.421875,-0.453125 0,-0.1875 0.171875,-0.8125 0.359375,-1.59375 C 2.78125,-2.703125 3.09375,-2.875 3.328125,-2.875 c 0.015625,0 0.21875,0 0.375,0.09375 -0.21875,0.0625 -0.3125,0.265625 -0.3125,0.390625 0,0.140625 0.125,0.25 0.28125,0.25 0.15625,0 0.390625,-0.125 0.390625,-0.421875 0,-0.390625 -0.453125,-0.515625 -0.71875,-0.515625 -0.359375,0 -0.640625,0.234375 -0.78125,0.5 -0.125,-0.28125 -0.453125,-0.5 -0.84375,-0.5 C 0.9375,-3.078125 0.5,-2.21875 0.5,-2 c 0,0.078125 0.09375,0.078125 0.109375,0.078125 0.09375,0 0.09375,-0.015625 0.140625,-0.109375 C 0.921875,-2.578125 1.359375,-2.875 1.703125,-2.875 1.9375,-2.875 2.125,-2.75 2.125,-2.421875 2.125,-2.28125 2.03125,-1.9375 1.96875,-1.6875 Z m 0,0"
             style="stroke:none" /></symbol><symbol
           style="overflow:visible"
           id="textext-ffcc054b-21"
           overflow="visible"><path
             inkscape:connector-curvature="0"
             id="path12871"
             d="m 1.5625,-1.59375 c 0.1875,0 0.75,-0.015625 1.125,-0.140625 0.515625,-0.1875 0.609375,-0.515625 0.609375,-0.71875 0,-0.390625 -0.390625,-0.625 -0.859375,-0.625 -0.84375,0 -1.96875,0.640625 -1.96875,1.84375 0,0.703125 0.4375,1.296875 1.25,1.296875 1.1875,0 1.734375,-0.6875 1.734375,-0.78125 0,-0.046875 -0.0625,-0.125 -0.125,-0.125 -0.03125,0 -0.046875,0.015625 -0.109375,0.078125 C 2.671875,-0.125 1.859375,-0.125 1.734375,-0.125 1.3125,-0.125 1.03125,-0.40625 1.03125,-0.96875 c 0,-0.09375 0,-0.234375 0.09375,-0.625 z M 1.171875,-1.78125 C 1.46875,-2.796875 2.234375,-2.875 2.4375,-2.875 2.734375,-2.875 3,-2.71875 3,-2.453125 3,-1.78125 1.8125,-1.78125 1.515625,-1.78125 Z m 0,0"
             style="stroke:none" /></symbol><symbol
           style="overflow:visible"
           id="textext-ffcc054b-22"
           overflow="visible"><path
             inkscape:connector-curvature="0"
             id="path12874"
             d="m 1.640625,-1.40625 c 0,-0.046875 0.171875,-0.671875 0.171875,-0.703125 0.015625,-0.0625 0.21875,-0.40625 0.453125,-0.578125 0.0625,-0.046875 0.25,-0.1875 0.5625,-0.1875 0.0625,0 0.234375,0 0.375,0.09375 -0.21875,0.0625 -0.296875,0.265625 -0.296875,0.390625 0,0.140625 0.109375,0.25 0.265625,0.25 0.171875,0 0.390625,-0.125 0.390625,-0.421875 0,-0.359375 -0.375,-0.515625 -0.734375,-0.515625 -0.359375,0 -0.671875,0.15625 -0.984375,0.5 -0.125,-0.421875 -0.546875,-0.5 -0.71875,-0.5 -0.25,0 -0.421875,0.171875 -0.546875,0.359375 -0.15625,0.265625 -0.25,0.671875 -0.25,0.71875 0,0.078125 0.09375,0.078125 0.125,0.078125 0.09375,0 0.09375,-0.015625 0.140625,-0.203125 0.109375,-0.421875 0.25,-0.75 0.515625,-0.75 0.1875,0 0.234375,0.15625 0.234375,0.34375 0,0.125 -0.0625,0.390625 -0.125,0.578125 -0.046875,0.1875 -0.109375,0.46875 -0.140625,0.625 L 0.84375,-0.4375 C 0.828125,-0.34375 0.78125,-0.171875 0.78125,-0.15625 0.78125,0 0.90625,0.0625 1.015625,0.0625 1.125,0.0625 1.265625,0 1.3125,-0.125 1.328125,-0.171875 1.40625,-0.484375 1.453125,-0.65625 Z m 0,0"
             style="stroke:none" /></symbol><symbol
           style="overflow:visible"
           id="textext-ffcc054b-23"
           overflow="visible"><path
             inkscape:connector-curvature="0"
             id="path12877"
             d="m 3.484375,-4.921875 c 0.046875,-0.09375 0.046875,-0.109375 0.046875,-0.125 0,-0.109375 -0.09375,-0.171875 -0.171875,-0.171875 -0.109375,0 -0.140625,0.078125 -0.1875,0.171875 L 0.578125,1.4375 C 0.53125,1.53125 0.53125,1.546875 0.53125,1.5625 c 0,0.109375 0.09375,0.171875 0.171875,0.171875 0.125,0 0.15625,-0.078125 0.1875,-0.171875 z m 0,0"
             style="stroke:none" /></symbol><symbol
           style="overflow:visible"
           id="textext-ffcc054b-24"
           overflow="visible"><path
             inkscape:connector-curvature="0"
             id="path12880"
             d=""
             style="stroke:none" /></symbol><symbol
           style="overflow:visible"
           id="textext-ffcc054b-25"
           overflow="visible"><path
             inkscape:connector-curvature="0"
             id="path12883"
             d="m 3.09375,-1.953125 c -0.234375,0.0625 -0.234375,0.28125 -0.234375,0.296875 0,0.078125 0.0625,0.203125 0.234375,0.203125 0.140625,0 0.3125,-0.125 0.3125,-0.34375 0,-0.296875 -0.328125,-0.40625 -0.59375,-0.40625 -0.328125,0 -0.546875,0.203125 -0.640625,0.34375 -0.15625,-0.28125 -0.484375,-0.34375 -0.65625,-0.34375 -0.625,0 -0.984375,0.59375 -0.984375,0.765625 0,0.078125 0.078125,0.078125 0.109375,0.078125 0.046875,0 0.078125,0 0.109375,-0.0625 0.140625,-0.484375 0.546875,-0.609375 0.734375,-0.609375 0.171875,0 0.359375,0.0625 0.359375,0.328125 0,0.125 -0.09375,0.46875 -0.265625,1.140625 -0.0625,0.28125 -0.296875,0.453125 -0.515625,0.453125 -0.03125,0 -0.171875,0 -0.296875,-0.078125 0.21875,-0.09375 0.21875,-0.28125 0.21875,-0.296875 0,-0.140625 -0.109375,-0.203125 -0.21875,-0.203125 -0.125,0 -0.296875,0.09375 -0.296875,0.328125 0,0.3125 0.328125,0.421875 0.59375,0.421875 0.265625,0 0.5,-0.171875 0.609375,-0.34375 C 1.875,0.015625 2.1875,0.0625 2.34375,0.0625 c 0.625,0 0.984375,-0.59375 0.984375,-0.78125 0,-0.0625 -0.078125,-0.0625 -0.109375,-0.0625 -0.078125,0 -0.09375,0.03125 -0.109375,0.0625 C 2.96875,-0.265625 2.59375,-0.109375 2.375,-0.109375 c -0.15625,0 -0.359375,-0.0625 -0.359375,-0.34375 0,-0.0625 0,-0.09375 0.03125,-0.265625 0.09375,-0.34375 0.21875,-0.890625 0.265625,-0.984375 0.0625,-0.125 0.234375,-0.328125 0.484375,-0.328125 0.015625,0 0.1875,0 0.296875,0.078125 z m 0,0"
             style="stroke:none" /></symbol><symbol
           style="overflow:visible"
           id="textext-ffcc054b-26"
           overflow="visible"><path
             inkscape:connector-curvature="0"
             id="path12886"
             d=""
             style="stroke:none" /></symbol><symbol
           style="overflow:visible"
           id="textext-ffcc054b-27"
           overflow="visible"><path
             inkscape:connector-curvature="0"
             id="path12889"
             d="m 5.1875,-1.578125 c 0.109375,0 0.28125,0 0.28125,-0.15625 0,-0.1875 -0.171875,-0.1875 -0.28125,-0.1875 H 1.03125 c -0.109375,0 -0.28125,0 -0.28125,0.171875 0,0.171875 0.15625,0.171875 0.28125,0.171875 z m 0,0"
             style="stroke:none" /></symbol><symbol
           style="overflow:visible"
           id="textext-ffcc054b-28"
           overflow="visible"><path
             inkscape:connector-curvature="0"
             id="path12892"
             d=""
             style="stroke:none" /></symbol><symbol
           style="overflow:visible"
           id="textext-ffcc054b-29"
           overflow="visible"><path
             inkscape:connector-curvature="0"
             id="path12895"
             d="M 2.9375,-0.96875 H 2.71875 c 0,0.09375 -0.0625,0.40625 -0.140625,0.453125 -0.03125,0.03125 -0.453125,0.03125 -0.53125,0.03125 H 1.078125 C 1.40625,-0.71875 1.765625,-1 2.0625,-1.203125 c 0.453125,-0.3125 0.875,-0.59375 0.875,-1.125 0,-0.640625 -0.609375,-0.984375 -1.3125,-0.984375 -0.671875,0 -1.171875,0.375 -1.171875,0.875 0,0.25 0.21875,0.296875 0.296875,0.296875 0.125,0 0.28125,-0.09375 0.28125,-0.296875 0,-0.171875 -0.125,-0.28125 -0.28125,-0.28125 0.140625,-0.234375 0.4375,-0.375 0.765625,-0.375 0.484375,0 0.890625,0.28125 0.890625,0.765625 0,0.421875 -0.296875,0.75 -0.671875,1.0625 l -1.21875,1.03125 C 0.46875,-0.1875 0.453125,-0.1875 0.453125,-0.15625 V 0 h 2.3125 z m 0,0"
             style="stroke:none" /></symbol><symbol
           style="overflow:visible"
           id="textext-ffcc054b-30"
           overflow="visible"><path
             inkscape:connector-curvature="0"
             id="path12898"
             d=""
             style="stroke:none" /></symbol><symbol
           style="overflow:visible"
           id="textext-ffcc054b-31"
           overflow="visible"><path
             inkscape:connector-curvature="0"
             id="path12901"
             d="M 3.875,-2.765625 1.890625,-4.75 C 1.765625,-4.875 1.75,-4.890625 1.671875,-4.890625 1.5625,-4.890625 1.46875,-4.8125 1.46875,-4.6875 c 0,0.0625 0.015625,0.078125 0.125,0.1875 l 2,2 -2,2.015625 c -0.109375,0.109375 -0.125,0.125 -0.125,0.1875 0,0.125 0.09375,0.203125 0.203125,0.203125 0.078125,0 0.09375,-0.015625 0.21875,-0.140625 L 3.875,-2.21875 l 2.0625,2.0625 c 0.015625,0.015625 0.078125,0.0625 0.140625,0.0625 0.125,0 0.203125,-0.078125 0.203125,-0.203125 0,-0.015625 0,-0.046875 -0.03125,-0.109375 C 6.234375,-0.421875 4.65625,-1.984375 4.15625,-2.5 l 1.828125,-1.8125 c 0.046875,-0.0625 0.203125,-0.1875 0.25,-0.25 0,-0.015625 0.046875,-0.0625 0.046875,-0.125 0,-0.125 -0.078125,-0.203125 -0.203125,-0.203125 C 6,-4.890625 5.96875,-4.859375 5.859375,-4.75 Z m 0,0"
             style="stroke:none" /></symbol><symbol
           style="overflow:visible"
           id="textext-ffcc054b-32"
           overflow="visible"><path
             inkscape:connector-curvature="0"
             id="path12904"
             d="m 6.5625,-2.296875 c 0.171875,0 0.359375,0 0.359375,-0.203125 0,-0.1875 -0.1875,-0.1875 -0.359375,-0.1875 H 1.171875 c -0.171875,0 -0.34375,0 -0.34375,0.1875 0,0.203125 0.171875,0.203125 0.34375,0.203125 z m 0,0"
             style="stroke:none" /></symbol><symbol
           style="overflow:visible"
           id="textext-ffcc054b-33"
           overflow="visible"><path
             inkscape:connector-curvature="0"
             id="path12907"
             d=""
             style="stroke:none" /></symbol><symbol
           style="overflow:visible"
           id="textext-ffcc054b-34"
           overflow="visible"><path
             inkscape:connector-curvature="0"
             id="path12910"
             d="M 2.25,17.53125 H 4.515625 V 17.0625 H 2.71875 v -17 H 4.515625 V -0.40625 H 2.25 Z m 0,0"
             style="stroke:none" /></symbol><symbol
           style="overflow:visible"
           id="textext-ffcc054b-35"
           overflow="visible"><path
             inkscape:connector-curvature="0"
             id="path12913"
             d="M 1.96875,17.0625 H 0.171875 v 0.46875 H 2.4375 V -0.40625 H 0.171875 V 0.0625 H 1.96875 Z m 0,0"
             style="stroke:none" /></symbol></g></defs></defs><g
     transform="matrix(1.3333333,0,0,-1.3333333,0,289.33333)"
     inkscape:label="behaviour_integrand"
     inkscape:groupmode="layer"
     id="g10"><g
       transform="matrix(0.78957583,0,0,0.78957583,37.912882,23.041171)"
       id="g12"><path
         inkscape:connector-curvature="0"
         id="path14"
         style="fill:none;stroke:#000000;stroke-width:2;stroke-linecap:square;stroke-linejoin:miter;stroke-miterlimit:3.25;stroke-dasharray:4, 4;stroke-dashoffset:0;stroke-opacity:1"
         d="m 21.184,206.055 0.304,-0.012 h 0.102 l 0.203,-0.008 0.203,-0.012 0.102,-0.003 0.101,-0.008 0.203,-0.012 0.102,-0.004 0.101,-0.008 0.207,-0.015 0.204,-0.016 0.203,-0.019 0.203,-0.016 0.203,-0.024 0.102,-0.007 0.304,-0.036 0.407,-0.05 0.101,-0.016 0.102,-0.012 0.203,-0.027 0.508,-0.078 0.105,-0.02 0.203,-0.031 0.406,-0.074 0.407,-0.078 0.406,-0.082 0.812,-0.184 0.114,-0.027 0.328,-0.082 0.441,-0.114 0.883,-0.25 0.109,-0.031 0.114,-0.031 0.218,-0.07 0.442,-0.141 0.883,-0.297 0.218,-0.078 0.223,-0.078 0.441,-0.168 0.879,-0.348 1.766,-0.769 0.102,-0.047 0.105,-0.047 0.203,-0.098 0.414,-0.199 0.824,-0.414 1.649,-0.887 0.203,-0.117 0.207,-0.117 0.41,-0.238 0.824,-0.496 1.649,-1.043 0.203,-0.133 0.199,-0.137 0.406,-0.273 0.805,-0.559 1.617,-1.172 3.231,-2.547 0.219,-0.179 0.218,-0.184 0.438,-0.371 0.875,-0.754 1.754,-1.566 3.504,-3.332 6.539,-6.875 7.09,-8.235 6.957,-8.66 6.492,-8.41 7.039,-9.297 6.57,-8.695 6.442,-8.422 6.988,-8.914 6.519,-8.024 7.071,-8.312 6.941,-7.723 6.469,-6.785 7.019,-6.887 6.555,-5.98 7.098,-6 6.968,-5.422 6.504,-4.656 7.051,-4.625 6.582,-3.946 6.453,-3.543 7,-3.503 6.535,-2.973 7.079,-2.922 6.953,-2.59 6.484,-2.191 7.031,-2.149 6.563,-1.808 6.433,-1.61 6.981,-1.578 6.515,-1.324 7.063,-1.297 6.594,-1.086 6.465,-0.965 7.011,-0.937 6.547,-0.789 7.09,-0.77 6.965,-0.676 6.492,-0.566 7.043,-0.551 6.578,-0.461 6.445,-0.41 6.993,-0.394 6.527,-0.336 0.113,-0.004 0.114,-0.008 0.226,-0.008 0.457,-0.023 2.731,-0.129 0.113,-0.004 0.117,-0.004 0.227,-0.012 0.453,-0.019 0.91,-0.043 0.117,-0.004 0.113,-0.004 0.227,-0.012 0.457,-0.019 0.227,-0.008 0.226,-0.012 0.227,-0.008 0.117,-0.007 0.113,-0.004" /><path
         inkscape:connector-curvature="0"
         id="path16"
         style="fill:none;stroke:#000000;stroke-width:0.5;stroke-linecap:butt;stroke-linejoin:miter;stroke-miterlimit:3.25;stroke-dasharray:none;stroke-opacity:1"
         d="m 20.52,13.512 v 4.054" /><path
         inkscape:connector-curvature="0"
         id="path18"
         style="fill:none;stroke:#000000;stroke-width:0.5;stroke-linecap:butt;stroke-linejoin:miter;stroke-miterlimit:3.25;stroke-dasharray:none;stroke-opacity:1"
         d="m 33.812,13.512 v 2.433" /><path
         inkscape:connector-curvature="0"
         id="path20"
         style="fill:none;stroke:#000000;stroke-width:0.5;stroke-linecap:butt;stroke-linejoin:miter;stroke-miterlimit:3.25;stroke-dasharray:none;stroke-opacity:1"
         d="m 47.102,13.512 v 2.433" /><path
         inkscape:connector-curvature="0"
         id="path22"
         style="fill:none;stroke:#000000;stroke-width:0.5;stroke-linecap:butt;stroke-linejoin:miter;stroke-miterlimit:3.25;stroke-dasharray:none;stroke-opacity:1"
         d="m 60.395,13.512 v 2.433" /><path
         inkscape:connector-curvature="0"
         id="path24"
         style="fill:none;stroke:#000000;stroke-width:0.5;stroke-linecap:butt;stroke-linejoin:miter;stroke-miterlimit:3.25;stroke-dasharray:none;stroke-opacity:1"
         d="m 73.688,13.512 v 2.433" /><path
         inkscape:connector-curvature="0"
         id="path26"
         style="fill:none;stroke:#000000;stroke-width:0.5;stroke-linecap:butt;stroke-linejoin:miter;stroke-miterlimit:3.25;stroke-dasharray:none;stroke-opacity:1"
         d="m 86.98,13.512 v 4.054" /><path
         inkscape:connector-curvature="0"
         id="path32"
         style="fill:none;stroke:#000000;stroke-width:0.5;stroke-linecap:butt;stroke-linejoin:miter;stroke-miterlimit:3.25;stroke-dasharray:none;stroke-opacity:1"
         d="m 100.273,13.512 v 2.433" /><path
         inkscape:connector-curvature="0"
         id="path34"
         style="fill:none;stroke:#000000;stroke-width:0.5;stroke-linecap:butt;stroke-linejoin:miter;stroke-miterlimit:3.25;stroke-dasharray:none;stroke-opacity:1"
         d="m 113.566,13.512 v 2.433" /><path
         inkscape:connector-curvature="0"
         id="path36"
         style="fill:none;stroke:#000000;stroke-width:0.5;stroke-linecap:butt;stroke-linejoin:miter;stroke-miterlimit:3.25;stroke-dasharray:none;stroke-opacity:1"
         d="m 126.855,13.512 v 2.433" /><path
         inkscape:connector-curvature="0"
         id="path38"
         style="fill:none;stroke:#000000;stroke-width:0.5;stroke-linecap:butt;stroke-linejoin:miter;stroke-miterlimit:3.25;stroke-dasharray:none;stroke-opacity:1"
         d="m 140.148,13.512 v 2.433" /><path
         inkscape:connector-curvature="0"
         id="path40"
         style="fill:none;stroke:#000000;stroke-width:0.5;stroke-linecap:butt;stroke-linejoin:miter;stroke-miterlimit:3.25;stroke-dasharray:none;stroke-opacity:1"
         d="m 153.441,13.512 v 4.054" /><path
         inkscape:connector-curvature="0"
         id="path46"
         style="fill:none;stroke:#000000;stroke-width:0.5;stroke-linecap:butt;stroke-linejoin:miter;stroke-miterlimit:3.25;stroke-dasharray:none;stroke-opacity:1"
         d="m 166.734,13.512 v 2.433" /><path
         inkscape:connector-curvature="0"
         id="path48"
         style="fill:none;stroke:#000000;stroke-width:0.5;stroke-linecap:butt;stroke-linejoin:miter;stroke-miterlimit:3.25;stroke-dasharray:none;stroke-opacity:1"
         d="m 180.027,13.512 v 2.433" /><path
         inkscape:connector-curvature="0"
         id="path50"
         style="fill:none;stroke:#000000;stroke-width:0.5;stroke-linecap:butt;stroke-linejoin:miter;stroke-miterlimit:3.25;stroke-dasharray:none;stroke-opacity:1"
         d="m 193.32,13.512 v 2.433" /><path
         inkscape:connector-curvature="0"
         id="path52"
         style="fill:none;stroke:#000000;stroke-width:0.5;stroke-linecap:butt;stroke-linejoin:miter;stroke-miterlimit:3.25;stroke-dasharray:none;stroke-opacity:1"
         d="m 206.609,13.512 v 2.433" /><path
         inkscape:connector-curvature="0"
         id="path54"
         style="fill:none;stroke:#000000;stroke-width:0.5;stroke-linecap:butt;stroke-linejoin:miter;stroke-miterlimit:3.25;stroke-dasharray:none;stroke-opacity:1"
         d="m 219.902,13.512 v 4.054" /><path
         inkscape:connector-curvature="0"
         id="path60"
         style="fill:none;stroke:#000000;stroke-width:0.5;stroke-linecap:butt;stroke-linejoin:miter;stroke-miterlimit:3.25;stroke-dasharray:none;stroke-opacity:1"
         d="m 233.195,13.512 v 2.433" /><path
         inkscape:connector-curvature="0"
         id="path62"
         style="fill:none;stroke:#000000;stroke-width:0.5;stroke-linecap:butt;stroke-linejoin:miter;stroke-miterlimit:3.25;stroke-dasharray:none;stroke-opacity:1"
         d="m 246.488,13.512 v 2.433" /><path
         inkscape:connector-curvature="0"
         id="path64"
         style="fill:none;stroke:#000000;stroke-width:0.5;stroke-linecap:butt;stroke-linejoin:miter;stroke-miterlimit:3.25;stroke-dasharray:none;stroke-opacity:1"
         d="m 259.781,13.512 v 2.433" /><path
         inkscape:connector-curvature="0"
         id="path66"
         style="fill:none;stroke:#000000;stroke-width:0.5;stroke-linecap:butt;stroke-linejoin:miter;stroke-miterlimit:3.25;stroke-dasharray:none;stroke-opacity:1"
         d="m 273.074,13.512 v 2.433" /><path
         inkscape:connector-curvature="0"
         id="path68"
         style="fill:none;stroke:#000000;stroke-width:0.5;stroke-linecap:butt;stroke-linejoin:miter;stroke-miterlimit:3.25;stroke-dasharray:none;stroke-opacity:1"
         d="m 286.367,13.512 v 4.054" /><path
         inkscape:connector-curvature="0"
         id="path74"
         style="fill:none;stroke:#000000;stroke-width:0.5;stroke-linecap:butt;stroke-linejoin:miter;stroke-miterlimit:3.25;stroke-dasharray:none;stroke-opacity:1"
         d="m 299.656,13.512 v 2.433" /><path
         inkscape:connector-curvature="0"
         id="path76"
         style="fill:none;stroke:#000000;stroke-width:0.5;stroke-linecap:butt;stroke-linejoin:miter;stroke-miterlimit:3.25;stroke-dasharray:none;stroke-opacity:1"
         d="m 312.949,13.512 v 2.433" /><path
         inkscape:connector-curvature="0"
         id="path78"
         style="fill:none;stroke:#000000;stroke-width:0.5;stroke-linecap:butt;stroke-linejoin:miter;stroke-miterlimit:3.25;stroke-dasharray:none;stroke-opacity:1"
         d="m 326.242,13.512 v 2.433" /><path
         inkscape:connector-curvature="0"
         id="path80"
         style="fill:none;stroke:#000000;stroke-width:0.5;stroke-linecap:butt;stroke-linejoin:miter;stroke-miterlimit:3.25;stroke-dasharray:none;stroke-opacity:1"
         d="m 339.535,13.512 v 2.433" /><path
         inkscape:connector-curvature="0"
         id="path82"
         style="fill:none;stroke:#000000;stroke-width:0.5;stroke-linecap:butt;stroke-linejoin:miter;stroke-miterlimit:3.25;stroke-dasharray:none;stroke-opacity:1"
         d="m 13.594,13.512 h 336.73" /><path
         inkscape:connector-curvature="0"
         id="path84"
         style="fill:#000000;fill-opacity:1;fill-rule:nonzero;stroke:#000000;stroke-width:0.03;stroke-linecap:square;stroke-linejoin:miter;stroke-miterlimit:3.25;stroke-dasharray:none;stroke-opacity:1"
         d="m 349.367,16.246 0.153,-0.312 0.332,-0.746 0.175,-0.45 0.153,-0.449 0.109,-0.422 0.035,-0.355 -0.035,-0.321 -0.109,-0.418 -0.153,-0.464 -0.175,-0.477 -0.332,-0.816 -0.153,-0.348 10.383,2.844 z" /><path
         inkscape:connector-curvature="0"
         id="path86"
         style="fill:none;stroke:#000000;stroke-width:0.5;stroke-linecap:butt;stroke-linejoin:miter;stroke-miterlimit:3.25;stroke-dasharray:none;stroke-opacity:1"
         d="m 20.52,13.512 h 4.05" /><path
         inkscape:connector-curvature="0"
         id="path88"
         style="fill:none;stroke:#000000;stroke-width:0.5;stroke-linecap:butt;stroke-linejoin:miter;stroke-miterlimit:3.25;stroke-dasharray:none;stroke-opacity:1"
         d="m 20.52,25.062 h 2.429" /><path
         inkscape:connector-curvature="0"
         id="path90"
         style="fill:none;stroke:#000000;stroke-width:0.5;stroke-linecap:butt;stroke-linejoin:miter;stroke-miterlimit:3.25;stroke-dasharray:none;stroke-opacity:1"
         d="m 20.52,36.617 h 2.429" /><path
         inkscape:connector-curvature="0"
         id="path92"
         style="fill:none;stroke:#000000;stroke-width:0.5;stroke-linecap:butt;stroke-linejoin:miter;stroke-miterlimit:3.25;stroke-dasharray:none;stroke-opacity:1"
         d="m 20.52,48.172 h 2.429" /><path
         inkscape:connector-curvature="0"
         id="path94"
         style="fill:none;stroke:#000000;stroke-width:0.5;stroke-linecap:butt;stroke-linejoin:miter;stroke-miterlimit:3.25;stroke-dasharray:none;stroke-opacity:1"
         d="m 20.52,59.723 h 2.429" /><path
         inkscape:connector-curvature="0"
         id="path96"
         style="fill:none;stroke:#000000;stroke-width:0.5;stroke-linecap:butt;stroke-linejoin:miter;stroke-miterlimit:3.25;stroke-dasharray:none;stroke-opacity:1"
         d="m 20.52,71.277 h 4.05" /><path
         inkscape:connector-curvature="0"
         id="path102"
         style="fill:none;stroke:#000000;stroke-width:0.5;stroke-linecap:butt;stroke-linejoin:miter;stroke-miterlimit:3.25;stroke-dasharray:none;stroke-opacity:1"
         d="m 20.52,82.828 h 2.429" /><path
         inkscape:connector-curvature="0"
         id="path104"
         style="fill:none;stroke:#000000;stroke-width:0.5;stroke-linecap:butt;stroke-linejoin:miter;stroke-miterlimit:3.25;stroke-dasharray:none;stroke-opacity:1"
         d="m 20.52,94.383 h 2.429" /><path
         inkscape:connector-curvature="0"
         id="path106"
         style="fill:none;stroke:#000000;stroke-width:0.5;stroke-linecap:butt;stroke-linejoin:miter;stroke-miterlimit:3.25;stroke-dasharray:none;stroke-opacity:1"
         d="m 20.52,105.934 h 2.429" /><path
         inkscape:connector-curvature="0"
         id="path108"
         style="fill:none;stroke:#000000;stroke-width:0.5;stroke-linecap:butt;stroke-linejoin:miter;stroke-miterlimit:3.25;stroke-dasharray:none;stroke-opacity:1"
         d="m 20.52,117.488 h 2.429" /><path
         inkscape:connector-curvature="0"
         id="path110"
         style="fill:none;stroke:#000000;stroke-width:0.5;stroke-linecap:butt;stroke-linejoin:miter;stroke-miterlimit:3.25;stroke-dasharray:none;stroke-opacity:1"
         d="m 20.52,129.039 h 4.05" /><path
         inkscape:connector-curvature="0"
         id="path116"
         style="fill:none;stroke:#000000;stroke-width:0.5;stroke-linecap:butt;stroke-linejoin:miter;stroke-miterlimit:3.25;stroke-dasharray:none;stroke-opacity:1"
         d="m 20.52,140.594 h 2.429" /><path
         inkscape:connector-curvature="0"
         id="path118"
         style="fill:none;stroke:#000000;stroke-width:0.5;stroke-linecap:butt;stroke-linejoin:miter;stroke-miterlimit:3.25;stroke-dasharray:none;stroke-opacity:1"
         d="m 20.52,152.148 h 2.429" /><path
         inkscape:connector-curvature="0"
         id="path120"
         style="fill:none;stroke:#000000;stroke-width:0.5;stroke-linecap:butt;stroke-linejoin:miter;stroke-miterlimit:3.25;stroke-dasharray:none;stroke-opacity:1"
         d="m 20.52,163.699 h 2.429" /><path
         inkscape:connector-curvature="0"
         id="path122"
         style="fill:none;stroke:#000000;stroke-width:0.5;stroke-linecap:butt;stroke-linejoin:miter;stroke-miterlimit:3.25;stroke-dasharray:none;stroke-opacity:1"
         d="m 20.52,175.254 h 2.429" /><path
         inkscape:connector-curvature="0"
         id="path124"
         style="fill:none;stroke:#000000;stroke-width:0.5;stroke-linecap:butt;stroke-linejoin:miter;stroke-miterlimit:3.25;stroke-dasharray:none;stroke-opacity:1"
         d="m 20.52,186.805 h 4.05" /><path
         inkscape:connector-curvature="0"
         id="path130"
         style="fill:none;stroke:#000000;stroke-width:0.5;stroke-linecap:butt;stroke-linejoin:miter;stroke-miterlimit:3.25;stroke-dasharray:none;stroke-opacity:1"
         d="m 20.52,198.359 h 2.429" /><path
         inkscape:connector-curvature="0"
         id="path132"
         style="fill:none;stroke:#000000;stroke-width:0.5;stroke-linecap:butt;stroke-linejoin:miter;stroke-miterlimit:3.25;stroke-dasharray:none;stroke-opacity:1"
         d="M 20.52,2.816 V 207.324" /><path
         inkscape:connector-curvature="0"
         id="path134"
         style="fill:#000000;fill-opacity:1;fill-rule:nonzero;stroke:#000000;stroke-width:0.03;stroke-linecap:square;stroke-linejoin:miter;stroke-miterlimit:3.25;stroke-dasharray:none;stroke-opacity:1"
         d="m 17.785,206.367 0.313,0.153 0.746,0.332 0.445,0.175 0.453,0.153 0.422,0.109 0.356,0.035 0.32,-0.035 0.414,-0.109 0.469,-0.153 0.476,-0.175 0.817,-0.332 0.343,-0.153 -2.839,10.383 z" /><g
         transform="matrix(1.4128067,0,0,-1.4128067,-323.39017,257.46181)"
         ns0:text="0.05"
         ns0:preamble=""
         id="g4888"><defs
           id="defs4875"><g
             id="g4873"><symbol
               style="overflow:visible"
               overflow="visible"
               id="textext-db00305b-0"><path
                 inkscape:connector-curvature="0"
                 style="stroke:none"
                 d=""
                 id="path4861" /></symbol><symbol
               style="overflow:visible"
               overflow="visible"
               id="textext-db00305b-1"><path
                 inkscape:connector-curvature="0"
                 style="stroke:none"
                 d="m 4.578125,-3.1875 c 0,-0.796875 -0.046875,-1.59375 -0.390625,-2.328125 -0.453125,-0.96875 -1.28125,-1.125 -1.6875,-1.125 -0.609375,0 -1.328125,0.265625 -1.75,1.1875 -0.3125,0.6875 -0.359375,1.46875 -0.359375,2.265625 0,0.75 0.03125,1.640625 0.453125,2.40625 0.421875,0.796875 1.15625,1 1.640625,1 0.53125,0 1.296875,-0.203125 1.734375,-1.15625 0.3125,-0.6875 0.359375,-1.46875 0.359375,-2.25 z M 2.484375,0 C 2.09375,0 1.5,-0.25 1.328125,-1.203125 1.21875,-1.796875 1.21875,-2.71875 1.21875,-3.3125 c 0,-0.640625 0,-1.296875 0.078125,-1.828125 0.1875,-1.1875 0.9375,-1.28125 1.1875,-1.28125 0.328125,0 0.984375,0.1875 1.171875,1.171875 0.109375,0.5625 0.109375,1.3125 0.109375,1.9375 0,0.75 0,1.421875 -0.109375,2.0625 C 3.5,-0.296875 2.9375,0 2.484375,0 Z m 0,0"
                 id="path4864" /></symbol><symbol
               style="overflow:visible"
               overflow="visible"
               id="textext-db00305b-2"><path
                 inkscape:connector-curvature="0"
                 style="stroke:none"
                 d="m 1.90625,-0.53125 c 0,-0.28125 -0.234375,-0.53125 -0.515625,-0.53125 -0.296875,0 -0.53125,0.25 -0.53125,0.53125 C 0.859375,-0.234375 1.09375,0 1.390625,0 1.671875,0 1.90625,-0.234375 1.90625,-0.53125 Z m 0,0"
                 id="path4867" /></symbol><symbol
               style="overflow:visible"
               overflow="visible"
               id="textext-db00305b-3"><path
                 inkscape:connector-curvature="0"
                 style="stroke:none"
                 d="m 4.46875,-2 c 0,-1.1875 -0.8125,-2.1875 -1.890625,-2.1875 -0.46875,0 -0.90625,0.15625 -1.265625,0.515625 V -5.625 c 0.203125,0.0625 0.53125,0.125 0.84375,0.125 1.234375,0 1.9375,-0.90625 1.9375,-1.03125 0,-0.0625 -0.03125,-0.109375 -0.109375,-0.109375 0,0 -0.03125,0 -0.078125,0.03125 C 3.703125,-6.515625 3.21875,-6.3125 2.546875,-6.3125 2.15625,-6.3125 1.6875,-6.390625 1.21875,-6.59375 1.140625,-6.625 1.125,-6.625 1.109375,-6.625 1,-6.625 1,-6.546875 1,-6.390625 V -3.4375 c 0,0.171875 0,0.25 0.140625,0.25 0.078125,0 0.09375,-0.015625 0.140625,-0.078125 C 1.390625,-3.421875 1.75,-3.96875 2.5625,-3.96875 c 0.515625,0 0.765625,0.453125 0.84375,0.640625 0.15625,0.375 0.1875,0.75 0.1875,1.25 0,0.359375 0,0.953125 -0.25,1.375 C 3.109375,-0.3125 2.734375,-0.0625 2.28125,-0.0625 c -0.71875,0 -1.296875,-0.53125 -1.46875,-1.109375 0.03125,0 0.0625,0.015625 0.171875,0.015625 0.328125,0 0.5,-0.25 0.5,-0.484375 0,-0.25 -0.171875,-0.5 -0.5,-0.5 C 0.84375,-2.140625 0.5,-2.0625 0.5,-1.609375 0.5,-0.75 1.1875,0.21875 2.296875,0.21875 3.453125,0.21875 4.46875,-0.734375 4.46875,-2 Z m 0,0"
                 id="path4870" /></symbol></g></defs><g
           id="textext-db00305b-4"><g
             style="fill:#000000;fill-opacity:1"
             id="g4885"><use
               height="100%"
               width="100%"
               xlink:href="#textext-db00305b-1"
               x="223.43201"
               y="134.765"
               id="use4877" /><use
               height="100%"
               width="100%"
               xlink:href="#textext-db00305b-2"
               x="228.4133"
               y="134.765"
               id="use4879" /><use
               height="100%"
               width="100%"
               xlink:href="#textext-db00305b-1"
               x="231.18091"
               y="134.765"
               id="use4881" /><use
               height="100%"
               width="100%"
               xlink:href="#textext-db00305b-3"
               x="236.16222"
               y="134.765"
               id="use4883" /></g></g></g><g
         id="g5205"
         transform="matrix(1.4128067,0,0,-1.4128067,-323.39017,372.39695)"
         ns0:preamble=""
         ns0:text="0.15"><defs
           id="defs5192"><g
             id="g5190"><symbol
               style="overflow:visible"
               id="textext-051f3e0f-0"
               overflow="visible"><path
                 inkscape:connector-curvature="0"
                 id="path5175"
                 d=""
                 style="stroke:none" /></symbol><symbol
               style="overflow:visible"
               id="textext-051f3e0f-1"
               overflow="visible"><path
                 inkscape:connector-curvature="0"
                 id="path5178"
                 d="m 4.578125,-3.1875 c 0,-0.796875 -0.046875,-1.59375 -0.390625,-2.328125 -0.453125,-0.96875 -1.28125,-1.125 -1.6875,-1.125 -0.609375,0 -1.328125,0.265625 -1.75,1.1875 -0.3125,0.6875 -0.359375,1.46875 -0.359375,2.265625 0,0.75 0.03125,1.640625 0.453125,2.40625 0.421875,0.796875 1.15625,1 1.640625,1 0.53125,0 1.296875,-0.203125 1.734375,-1.15625 0.3125,-0.6875 0.359375,-1.46875 0.359375,-2.25 z M 2.484375,0 C 2.09375,0 1.5,-0.25 1.328125,-1.203125 1.21875,-1.796875 1.21875,-2.71875 1.21875,-3.3125 c 0,-0.640625 0,-1.296875 0.078125,-1.828125 0.1875,-1.1875 0.9375,-1.28125 1.1875,-1.28125 0.328125,0 0.984375,0.1875 1.171875,1.171875 0.109375,0.5625 0.109375,1.3125 0.109375,1.9375 0,0.75 0,1.421875 -0.109375,2.0625 C 3.5,-0.296875 2.9375,0 2.484375,0 Z m 0,0"
                 style="stroke:none" /></symbol><symbol
               style="overflow:visible"
               id="textext-051f3e0f-2"
               overflow="visible"><path
                 inkscape:connector-curvature="0"
                 id="path5181"
                 d="m 1.90625,-0.53125 c 0,-0.28125 -0.234375,-0.53125 -0.515625,-0.53125 -0.296875,0 -0.53125,0.25 -0.53125,0.53125 C 0.859375,-0.234375 1.09375,0 1.390625,0 1.671875,0 1.90625,-0.234375 1.90625,-0.53125 Z m 0,0"
                 style="stroke:none" /></symbol><symbol
               style="overflow:visible"
               id="textext-051f3e0f-3"
               overflow="visible"><path
                 inkscape:connector-curvature="0"
                 id="path5184"
                 d="m 2.9375,-6.375 c 0,-0.25 0,-0.265625 -0.234375,-0.265625 C 2.078125,-6 1.203125,-6 0.890625,-6 v 0.3125 c 0.203125,0 0.78125,0 1.296875,-0.265625 v 5.171875 c 0,0.359375 -0.03125,0.46875 -0.921875,0.46875 h -0.3125 V 0 c 0.34375,-0.03125 1.203125,-0.03125 1.609375,-0.03125 0.390625,0 1.265625,0 1.609375,0.03125 v -0.3125 h -0.3125 c -0.90625,0 -0.921875,-0.109375 -0.921875,-0.46875 z m 0,0"
                 style="stroke:none" /></symbol><symbol
               style="overflow:visible"
               id="textext-051f3e0f-4"
               overflow="visible"><path
                 inkscape:connector-curvature="0"
                 id="path5187"
                 d="m 4.46875,-2 c 0,-1.1875 -0.8125,-2.1875 -1.890625,-2.1875 -0.46875,0 -0.90625,0.15625 -1.265625,0.515625 V -5.625 c 0.203125,0.0625 0.53125,0.125 0.84375,0.125 1.234375,0 1.9375,-0.90625 1.9375,-1.03125 0,-0.0625 -0.03125,-0.109375 -0.109375,-0.109375 0,0 -0.03125,0 -0.078125,0.03125 C 3.703125,-6.515625 3.21875,-6.3125 2.546875,-6.3125 2.15625,-6.3125 1.6875,-6.390625 1.21875,-6.59375 1.140625,-6.625 1.125,-6.625 1.109375,-6.625 1,-6.625 1,-6.546875 1,-6.390625 V -3.4375 c 0,0.171875 0,0.25 0.140625,0.25 0.078125,0 0.09375,-0.015625 0.140625,-0.078125 C 1.390625,-3.421875 1.75,-3.96875 2.5625,-3.96875 c 0.515625,0 0.765625,0.453125 0.84375,0.640625 0.15625,0.375 0.1875,0.75 0.1875,1.25 0,0.359375 0,0.953125 -0.25,1.375 C 3.109375,-0.3125 2.734375,-0.0625 2.28125,-0.0625 c -0.71875,0 -1.296875,-0.53125 -1.46875,-1.109375 0.03125,0 0.0625,0.015625 0.171875,0.015625 0.328125,0 0.5,-0.25 0.5,-0.484375 0,-0.25 -0.171875,-0.5 -0.5,-0.5 C 0.84375,-2.140625 0.5,-2.0625 0.5,-1.609375 0.5,-0.75 1.1875,0.21875 2.296875,0.21875 3.453125,0.21875 4.46875,-0.734375 4.46875,-2 Z m 0,0"
                 style="stroke:none" /></symbol></g></defs><g
           id="textext-051f3e0f-5"><g
             id="g5202"
             style="fill:#000000;fill-opacity:1"><use
               height="100%"
               width="100%"
               id="use5194"
               y="134.765"
               x="223.43201"
               xlink:href="#textext-051f3e0f-1" /><use
               height="100%"
               width="100%"
               id="use5196"
               y="134.765"
               x="228.4133"
               xlink:href="#textext-051f3e0f-2" /><use
               height="100%"
               width="100%"
               id="use5198"
               y="134.765"
               x="231.18091"
               xlink:href="#textext-051f3e0f-3" /><use
               height="100%"
               width="100%"
               id="use5200"
               y="134.765"
               x="236.16222"
               xlink:href="#textext-051f3e0f-4" /></g></g></g><g
         ns0:text="0.10"
         ns0:preamble=""
         transform="matrix(1.4128067,0,0,-1.4128067,-323.39017,315.02437)"
         id="g5483"><defs
           id="defs5470"><g
             id="g5468"><symbol
               style="overflow:visible"
               overflow="visible"
               id="textext-53209b76-0"><path
                 inkscape:connector-curvature="0"
                 style="stroke:none"
                 d=""
                 id="path5456" /></symbol><symbol
               style="overflow:visible"
               overflow="visible"
               id="textext-53209b76-1"><path
                 inkscape:connector-curvature="0"
                 style="stroke:none"
                 d="m 4.578125,-3.1875 c 0,-0.796875 -0.046875,-1.59375 -0.390625,-2.328125 -0.453125,-0.96875 -1.28125,-1.125 -1.6875,-1.125 -0.609375,0 -1.328125,0.265625 -1.75,1.1875 -0.3125,0.6875 -0.359375,1.46875 -0.359375,2.265625 0,0.75 0.03125,1.640625 0.453125,2.40625 0.421875,0.796875 1.15625,1 1.640625,1 0.53125,0 1.296875,-0.203125 1.734375,-1.15625 0.3125,-0.6875 0.359375,-1.46875 0.359375,-2.25 z M 2.484375,0 C 2.09375,0 1.5,-0.25 1.328125,-1.203125 1.21875,-1.796875 1.21875,-2.71875 1.21875,-3.3125 c 0,-0.640625 0,-1.296875 0.078125,-1.828125 0.1875,-1.1875 0.9375,-1.28125 1.1875,-1.28125 0.328125,0 0.984375,0.1875 1.171875,1.171875 0.109375,0.5625 0.109375,1.3125 0.109375,1.9375 0,0.75 0,1.421875 -0.109375,2.0625 C 3.5,-0.296875 2.9375,0 2.484375,0 Z m 0,0"
                 id="path5459" /></symbol><symbol
               style="overflow:visible"
               overflow="visible"
               id="textext-53209b76-2"><path
                 inkscape:connector-curvature="0"
                 style="stroke:none"
                 d="m 1.90625,-0.53125 c 0,-0.28125 -0.234375,-0.53125 -0.515625,-0.53125 -0.296875,0 -0.53125,0.25 -0.53125,0.53125 C 0.859375,-0.234375 1.09375,0 1.390625,0 1.671875,0 1.90625,-0.234375 1.90625,-0.53125 Z m 0,0"
                 id="path5462" /></symbol><symbol
               style="overflow:visible"
               overflow="visible"
               id="textext-53209b76-3"><path
                 inkscape:connector-curvature="0"
                 style="stroke:none"
                 d="m 2.9375,-6.375 c 0,-0.25 0,-0.265625 -0.234375,-0.265625 C 2.078125,-6 1.203125,-6 0.890625,-6 v 0.3125 c 0.203125,0 0.78125,0 1.296875,-0.265625 v 5.171875 c 0,0.359375 -0.03125,0.46875 -0.921875,0.46875 h -0.3125 V 0 c 0.34375,-0.03125 1.203125,-0.03125 1.609375,-0.03125 0.390625,0 1.265625,0 1.609375,0.03125 v -0.3125 h -0.3125 c -0.90625,0 -0.921875,-0.109375 -0.921875,-0.46875 z m 0,0"
                 id="path5465" /></symbol></g></defs><g
           id="textext-53209b76-4"><g
             style="fill:#000000;fill-opacity:1"
             id="g5480"><use
               height="100%"
               width="100%"
               xlink:href="#textext-53209b76-1"
               x="223.43201"
               y="134.765"
               id="use5472" /><use
               height="100%"
               width="100%"
               xlink:href="#textext-53209b76-2"
               x="228.4133"
               y="134.765"
               id="use5474" /><use
               height="100%"
               width="100%"
               xlink:href="#textext-53209b76-3"
               x="231.18091"
               y="134.765"
               id="use5476" /><use
               height="100%"
               width="100%"
               xlink:href="#textext-53209b76-1"
               x="236.16222"
               y="134.765"
               id="use5478" /></g></g></g><g
         ns0:text="1"
         ns0:preamble=""
         transform="matrix(1.4128067,0,0,-1.4128067,-231.95849,190.66136)"
         id="g6226"><defs
           id="defs6219"><g
             id="g6217"><symbol
               overflow="visible"
               id="textext-cd9203a4-0"
               style="overflow:visible"><path
                 style="stroke:none"
                 d=""
                 id="path6211"
                 inkscape:connector-curvature="0" /></symbol><symbol
               overflow="visible"
               id="textext-cd9203a4-1"
               style="overflow:visible"><path
                 style="stroke:none"
                 d="m 2.9375,-6.375 c 0,-0.25 0,-0.265625 -0.234375,-0.265625 C 2.078125,-6 1.203125,-6 0.890625,-6 v 0.3125 c 0.203125,0 0.78125,0 1.296875,-0.265625 v 5.171875 c 0,0.359375 -0.03125,0.46875 -0.921875,0.46875 h -0.3125 V 0 c 0.34375,-0.03125 1.203125,-0.03125 1.609375,-0.03125 0.390625,0 1.265625,0 1.609375,0.03125 v -0.3125 h -0.3125 c -0.90625,0 -0.921875,-0.109375 -0.921875,-0.46875 z m 0,0"
                 id="path6214"
                 inkscape:connector-curvature="0" /></symbol></g></defs><g
           id="textext-cd9203a4-2"><g
             style="fill:#000000;fill-opacity:1"
             id="g6223"><use
               xlink:href="#textext-cd9203a4-1"
               x="223.43201"
               y="134.765"
               id="use6221"
               width="100%"
               height="100%" /></g></g></g><g
         id="g6598"
         transform="matrix(1.4128067,0,0,-1.4128067,-165.86509,190.66136)"
         ns0:preamble=""
         ns0:text="2"><defs
           id="defs6591"><g
             id="g6589"><symbol
               id="textext-91179b0d-0"
               overflow="visible"
               style="overflow:visible"><path
                 id="path6583"
                 d=""
                 style="stroke:none"
                 inkscape:connector-curvature="0" /></symbol><symbol
               id="textext-91179b0d-1"
               overflow="visible"
               style="overflow:visible"><path
                 id="path6586"
                 d="m 1.265625,-0.765625 1.0625,-1.03125 c 1.546875,-1.375 2.140625,-1.90625 2.140625,-2.90625 0,-1.140625 -0.890625,-1.9375 -2.109375,-1.9375 -1.125,0 -1.859375,0.921875 -1.859375,1.8125 0,0.546875 0.5,0.546875 0.53125,0.546875 0.171875,0 0.515625,-0.109375 0.515625,-0.53125 0,-0.25 -0.1875,-0.515625 -0.53125,-0.515625 -0.078125,0 -0.09375,0 -0.125,0.015625 0.21875,-0.65625 0.765625,-1.015625 1.34375,-1.015625 0.90625,0 1.328125,0.8125 1.328125,1.625 C 3.5625,-3.90625 3.078125,-3.125 2.515625,-2.5 l -1.90625,2.125 C 0.5,-0.265625 0.5,-0.234375 0.5,0 H 4.203125 L 4.46875,-1.734375 H 4.234375 C 4.171875,-1.4375 4.109375,-1 4,-0.84375 3.9375,-0.765625 3.28125,-0.765625 3.0625,-0.765625 Z m 0,0"
                 style="stroke:none"
                 inkscape:connector-curvature="0" /></symbol></g></defs><g
           id="textext-91179b0d-2"><g
             id="g6595"
             style="fill:#000000;fill-opacity:1"><use
               id="use6593"
               y="134.765"
               x="223.43201"
               xlink:href="#textext-91179b0d-1"
               width="100%"
               height="100%" /></g></g></g><g
         ns0:text="3\n"
         ns0:preamble=""
         transform="matrix(1.4128067,0,0,-1.4128067,-98.788379,190.97042)"
         id="g6956"><defs
           id="defs6949"><g
             id="g6947"><symbol
               overflow="visible"
               id="textext-07d6520a-0"
               style="overflow:visible"><path
                 style="stroke:none"
                 d=""
                 id="path6941"
                 inkscape:connector-curvature="0" /></symbol><symbol
               overflow="visible"
               id="textext-07d6520a-1"
               style="overflow:visible"><path
                 style="stroke:none"
                 d="m 2.890625,-3.515625 c 0.8125,-0.265625 1.390625,-0.953125 1.390625,-1.75 0,-0.8125 -0.875,-1.375 -1.828125,-1.375 -1,0 -1.765625,0.59375 -1.765625,1.359375 0,0.328125 0.21875,0.515625 0.515625,0.515625 0.296875,0 0.5,-0.21875 0.5,-0.515625 0,-0.484375 -0.46875,-0.484375 -0.609375,-0.484375 0.296875,-0.5 0.953125,-0.625 1.3125,-0.625 0.421875,0 0.96875,0.21875 0.96875,1.109375 0,0.125 -0.03125,0.703125 -0.28125,1.140625 C 2.796875,-3.65625 2.453125,-3.625 2.203125,-3.625 2.125,-3.609375 1.890625,-3.59375 1.8125,-3.59375 c -0.078125,0.015625 -0.140625,0.03125 -0.140625,0.125 0,0.109375 0.0625,0.109375 0.234375,0.109375 h 0.4375 c 0.8125,0 1.1875,0.671875 1.1875,1.65625 0,1.359375 -0.6875,1.640625 -1.125,1.640625 -0.4375,0 -1.1875,-0.171875 -1.53125,-0.75 0.34375,0.046875 0.65625,-0.171875 0.65625,-0.546875 0,-0.359375 -0.265625,-0.5625 -0.546875,-0.5625 -0.25,0 -0.5625,0.140625 -0.5625,0.578125 0,0.90625 0.921875,1.5625 2.015625,1.5625 1.21875,0 2.125,-0.90625 2.125,-1.921875 0,-0.8125 -0.640625,-1.59375 -1.671875,-1.8125 z m 0,0"
                 id="path6944"
                 inkscape:connector-curvature="0" /></symbol></g></defs><g
           id="textext-07d6520a-2"><g
             style="fill:#000000;fill-opacity:1"
             id="g6953"><use
               xlink:href="#textext-07d6520a-1"
               x="223.43201"
               y="134.765"
               id="use6951"
               width="100%"
               height="100%" /></g></g></g><g
         id="g7300"
         transform="matrix(1.4128067,0,0,-1.4128067,-33.048182,190.66136)"
         ns0:preamble=""
         ns0:text="4"><defs
           id="defs7293"><g
             id="g7291"><symbol
               id="textext-4884c3f6-0"
               overflow="visible"
               style="overflow:visible"><path
                 id="path7285"
                 d=""
                 style="stroke:none"
                 inkscape:connector-curvature="0" /></symbol><symbol
               id="textext-4884c3f6-1"
               overflow="visible"
               style="overflow:visible"><path
                 id="path7288"
                 d="m 2.9375,-1.640625 v 0.859375 c 0,0.359375 -0.03125,0.46875 -0.765625,0.46875 H 1.96875 V 0 C 2.375,-0.03125 2.890625,-0.03125 3.3125,-0.03125 c 0.421875,0 0.9375,0 1.359375,0.03125 v -0.3125 h -0.21875 c -0.734375,0 -0.75,-0.109375 -0.75,-0.46875 V -1.640625 H 4.6875 v -0.3125 H 3.703125 v -4.53125 c 0,-0.203125 0,-0.265625 -0.171875,-0.265625 -0.078125,0 -0.109375,0 -0.1875,0.125 l -3.0625,4.671875 v 0.3125 z m 0.046875,-0.3125 H 0.5625 l 2.421875,-3.71875 z m 0,0"
                 style="stroke:none"
                 inkscape:connector-curvature="0" /></symbol></g></defs><g
           id="textext-4884c3f6-2"><g
             id="g7297"
             style="fill:#000000;fill-opacity:1"><use
               id="use7295"
               y="134.765"
               x="223.43201"
               xlink:href="#textext-4884c3f6-1"
               width="100%"
               height="100%" /></g></g></g></g><g
       id="g8079"
       transform="matrix(1.4742438,0,0,-1.4742438,-309.41732,383.20527)"
       ns0:preamble=""
       ns0:text="$f(x)$"><defs
         id="defs8060"><g
           id="g8058"><symbol
             id="textext-95ba57e3-0"
             overflow="visible"
             style="overflow:visible"><path
               id="path8040"
               d=""
               style="stroke:none"
               inkscape:connector-curvature="0" /></symbol><symbol
             id="textext-95ba57e3-1"
             overflow="visible"
             style="overflow:visible"><path
               id="path8043"
               d="m 3.65625,-3.984375 h 0.859375 c 0.203125,0 0.296875,0 0.296875,-0.203125 0,-0.109375 -0.09375,-0.109375 -0.265625,-0.109375 H 3.71875 L 3.921875,-5.4375 c 0.046875,-0.203125 0.1875,-0.90625 0.25,-1.03125 0.078125,-0.1875 0.25,-0.34375 0.46875,-0.34375 0.03125,0 0.296875,0 0.484375,0.1875 -0.4375,0.03125 -0.546875,0.390625 -0.546875,0.53125 0,0.234375 0.1875,0.359375 0.375,0.359375 C 5.21875,-5.734375 5.5,-5.96875 5.5,-6.34375 c 0,-0.453125 -0.453125,-0.6875 -0.859375,-0.6875 -0.34375,0 -0.96875,0.1875 -1.265625,1.171875 -0.0625,0.203125 -0.09375,0.3125 -0.328125,1.5625 h -0.6875 c -0.203125,0 -0.3125,0 -0.3125,0.1875 0,0.125 0.09375,0.125 0.28125,0.125 h 0.65625 L 2.25,-0.046875 c -0.1875,0.96875 -0.359375,1.875 -0.875,1.875 -0.046875,0 -0.28125,0 -0.484375,-0.1875 C 1.359375,1.609375 1.453125,1.25 1.453125,1.109375 1.453125,0.875 1.265625,0.75 1.078125,0.75 0.8125,0.75 0.53125,0.984375 0.53125,1.359375 c 0,0.4375 0.4375,0.6875 0.84375,0.6875 0.546875,0 0.953125,-0.59375 1.125,-0.96875 0.328125,-0.625 0.546875,-1.828125 0.5625,-1.90625 z m 0,0"
               style="stroke:none"
               inkscape:connector-curvature="0" /></symbol><symbol
             id="textext-95ba57e3-2"
             overflow="visible"
             style="overflow:visible"><path
               id="path8046"
               d="M 3.328125,-3.015625 C 3.390625,-3.265625 3.625,-4.1875 4.3125,-4.1875 c 0.046875,0 0.296875,0 0.5,0.125 C 4.53125,-4 4.34375,-3.765625 4.34375,-3.515625 c 0,0.15625 0.109375,0.34375 0.375,0.34375 0.21875,0 0.53125,-0.171875 0.53125,-0.578125 0,-0.515625 -0.578125,-0.65625 -0.921875,-0.65625 -0.578125,0 -0.921875,0.53125 -1.046875,0.75 -0.25,-0.65625 -0.78125,-0.75 -1.078125,-0.75 -1.03125,0 -1.609375,1.28125 -1.609375,1.53125 0,0.109375 0.109375,0.109375 0.125,0.109375 0.078125,0 0.109375,-0.03125 0.125,-0.109375 0.34375,-1.0625 1,-1.3125 1.34375,-1.3125 0.1875,0 0.53125,0.09375 0.53125,0.671875 0,0.3125 -0.171875,0.96875 -0.53125,2.375 -0.15625,0.609375 -0.515625,1.03125 -0.953125,1.03125 -0.0625,0 -0.28125,0 -0.5,-0.125 0.25,-0.0625 0.46875,-0.265625 0.46875,-0.546875 0,-0.265625 -0.21875,-0.34375 -0.359375,-0.34375 -0.3125,0 -0.546875,0.25 -0.546875,0.578125 0,0.453125 0.484375,0.65625 0.921875,0.65625 0.671875,0 1.03125,-0.703125 1.046875,-0.75 0.125,0.359375 0.484375,0.75 1.078125,0.75 1.03125,0 1.59375,-1.28125 1.59375,-1.53125 0,-0.109375 -0.078125,-0.109375 -0.109375,-0.109375 -0.09375,0 -0.109375,0.046875 -0.140625,0.109375 -0.328125,1.078125 -1,1.3125 -1.3125,1.3125 -0.390625,0 -0.546875,-0.3125 -0.546875,-0.65625 0,-0.21875 0.046875,-0.4375 0.15625,-0.875 z m 0,0"
               style="stroke:none"
               inkscape:connector-curvature="0" /></symbol><symbol
             id="textext-95ba57e3-3"
             overflow="visible"
             style="overflow:visible"><path
               id="path8049"
               d=""
               style="stroke:none"
               inkscape:connector-curvature="0" /></symbol><symbol
             id="textext-95ba57e3-4"
             overflow="visible"
             style="overflow:visible"><path
               id="path8052"
               d="m 3.296875,2.390625 c 0,-0.03125 0,-0.046875 -0.171875,-0.21875 C 1.890625,0.921875 1.5625,-0.96875 1.5625,-2.5 c 0,-1.734375 0.375,-3.46875 1.609375,-4.703125 0.125,-0.125 0.125,-0.140625 0.125,-0.171875 0,-0.078125 -0.03125,-0.109375 -0.09375,-0.109375 -0.109375,0 -1,0.6875 -1.59375,1.953125 -0.5,1.09375 -0.625,2.203125 -0.625,3.03125 0,0.78125 0.109375,1.984375 0.65625,3.125 C 2.25,1.84375 3.09375,2.5 3.203125,2.5 c 0.0625,0 0.09375,-0.03125 0.09375,-0.109375 z m 0,0"
               style="stroke:none"
               inkscape:connector-curvature="0" /></symbol><symbol
             id="textext-95ba57e3-5"
             overflow="visible"
             style="overflow:visible"><path
               id="path8055"
               d="m 2.875,-2.5 c 0,-0.765625 -0.109375,-1.96875 -0.65625,-3.109375 -0.59375,-1.21875 -1.453125,-1.875 -1.546875,-1.875 -0.0625,0 -0.109375,0.046875 -0.109375,0.109375 0,0.03125 0,0.046875 0.1875,0.234375 0.984375,0.984375 1.546875,2.5625 1.546875,4.640625 0,1.71875 -0.359375,3.46875 -1.59375,4.71875 C 0.5625,2.34375 0.5625,2.359375 0.5625,2.390625 0.5625,2.453125 0.609375,2.5 0.671875,2.5 0.765625,2.5 1.671875,1.8125 2.25,0.546875 2.765625,-0.546875 2.875,-1.65625 2.875,-2.5 Z m 0,0"
               style="stroke:none"
               inkscape:connector-curvature="0" /></symbol></g></defs><g
         id="textext-95ba57e3-6"><g
           id="g8064"
           style="fill:#000000;fill-opacity:1"><use
             id="use8062"
             y="134.765"
             x="223.43201"
             xlink:href="#textext-95ba57e3-1"
             width="100%"
             height="100%" /></g><g
           id="g8068"
           style="fill:#000000;fill-opacity:1"><use
             id="use8066"
             y="134.765"
             x="229.382"
             xlink:href="#textext-95ba57e3-4"
             width="100%"
             height="100%" /></g><g
           id="g8072"
           style="fill:#000000;fill-opacity:1"><use
             id="use8070"
             y="134.765"
             x="233.256"
             xlink:href="#textext-95ba57e3-2"
             width="100%"
             height="100%" /></g><g
           id="g8076"
           style="fill:#000000;fill-opacity:1"><use
             id="use8074"
             y="134.765"
             x="238.95"
             xlink:href="#textext-95ba57e3-5"
             width="100%"
             height="100%" /></g></g></g><g
       ns0:text="$x$"
       ns0:preamble=""
       transform="matrix(1.4742438,0,0,-1.4742438,-29.140597,219.44808)"
       id="g8542"><defs
         id="defs8535"><g
           id="g8533"><symbol
             style="overflow:visible"
             overflow="visible"
             id="textext-856d2dce-0"><path
               inkscape:connector-curvature="0"
               style="stroke:none"
               d=""
               id="path8527" /></symbol><symbol
             style="overflow:visible"
             overflow="visible"
             id="textext-856d2dce-1"><path
               inkscape:connector-curvature="0"
               style="stroke:none"
               d="M 3.328125,-3.015625 C 3.390625,-3.265625 3.625,-4.1875 4.3125,-4.1875 c 0.046875,0 0.296875,0 0.5,0.125 C 4.53125,-4 4.34375,-3.765625 4.34375,-3.515625 c 0,0.15625 0.109375,0.34375 0.375,0.34375 0.21875,0 0.53125,-0.171875 0.53125,-0.578125 0,-0.515625 -0.578125,-0.65625 -0.921875,-0.65625 -0.578125,0 -0.921875,0.53125 -1.046875,0.75 -0.25,-0.65625 -0.78125,-0.75 -1.078125,-0.75 -1.03125,0 -1.609375,1.28125 -1.609375,1.53125 0,0.109375 0.109375,0.109375 0.125,0.109375 0.078125,0 0.109375,-0.03125 0.125,-0.109375 0.34375,-1.0625 1,-1.3125 1.34375,-1.3125 0.1875,0 0.53125,0.09375 0.53125,0.671875 0,0.3125 -0.171875,0.96875 -0.53125,2.375 -0.15625,0.609375 -0.515625,1.03125 -0.953125,1.03125 -0.0625,0 -0.28125,0 -0.5,-0.125 0.25,-0.0625 0.46875,-0.265625 0.46875,-0.546875 0,-0.265625 -0.21875,-0.34375 -0.359375,-0.34375 -0.3125,0 -0.546875,0.25 -0.546875,0.578125 0,0.453125 0.484375,0.65625 0.921875,0.65625 0.671875,0 1.03125,-0.703125 1.046875,-0.75 0.125,0.359375 0.484375,0.75 1.078125,0.75 1.03125,0 1.59375,-1.28125 1.59375,-1.53125 0,-0.109375 -0.078125,-0.109375 -0.109375,-0.109375 -0.09375,0 -0.109375,0.046875 -0.140625,0.109375 -0.328125,1.078125 -1,1.3125 -1.3125,1.3125 -0.390625,0 -0.546875,-0.3125 -0.546875,-0.65625 0,-0.21875 0.046875,-0.4375 0.15625,-0.875 z m 0,0"
               id="path8530" /></symbol></g></defs><g
         id="textext-856d2dce-2"><g
           style="fill:#000000;fill-opacity:1"
           id="g8539"><use
             height="100%"
             width="100%"
             xlink:href="#textext-856d2dce-1"
             x="223.43201"
             y="134.765"
             id="use8537" /></g></g></g><g
       transform="translate(4.5,-9)"
       id="g15563"><g
         id="g15509"
         transform="translate(-33)"><use
           transform="matrix(1.4742438,0,0,-1.4742438,-205.49449,371.65829)"
           height="100%"
           width="100%"
           id="use12920"
           y="134.765"
           x="223.43201"
           xlink:href="#textext-ffcc054b-1"
           style="fill:#000000;fill-opacity:1" /><use
           transform="matrix(1.4742438,0,0,-1.4742438,-205.49449,371.65829)"
           height="100%"
           width="100%"
           id="use12924"
           y="134.765"
           x="229.382"
           xlink:href="#textext-ffcc054b-5"
           style="fill:#000000;fill-opacity:1" /><use
           transform="matrix(1.4742438,0,0,-1.4742438,-205.49449,371.65829)"
           height="100%"
           width="100%"
           id="use12928"
           y="134.765"
           x="233.256"
           xlink:href="#textext-ffcc054b-2"
           style="fill:#000000;fill-opacity:1" /><use
           transform="matrix(1.4742438,0,0,-1.4742438,-205.49449,371.65829)"
           height="100%"
           width="100%"
           id="use12932"
           y="134.765"
           x="238.95"
           xlink:href="#textext-ffcc054b-6"
           style="fill:#000000;fill-opacity:1" /><use
           transform="matrix(1.4742438,0,0,-1.4742438,-205.49449,371.65829)"
           height="100%"
           width="100%"
           id="use12936"
           y="134.765"
           x="245.59406"
           xlink:href="#textext-ffcc054b-7"
           style="fill:#000000;fill-opacity:1" /><use
           transform="matrix(1.4742438,0,0,-1.4742438,-205.49449,371.65829)"
           height="100%"
           width="100%"
           id="use12940"
           y="130.842"
           x="257.577"
           xlink:href="#textext-ffcc054b-13"
           style="fill:#000000;fill-opacity:1" /><path
           style="fill:none;stroke:#000000;stroke-width:0.58674902;stroke-linecap:butt;stroke-linejoin:miter;stroke-miterlimit:10;stroke-opacity:1"
           d="m 173.83535,176.655 h 6.65713"
           id="path12944"
           inkscape:connector-curvature="0" /><use
           transform="matrix(1.4742438,0,0,-1.4742438,-205.49449,371.65829)"
           height="100%"
           width="100%"
           id="use12946"
           y="138.2"
           x="257.30399"
           xlink:href="#textext-ffcc054b-20"
           style="fill:#000000;fill-opacity:1" /><use
           transform="matrix(1.4742438,0,0,-1.4742438,-205.49449,371.65829)"
           height="100%"
           width="100%"
           id="use12950"
           y="130.842"
           x="274.36899"
           xlink:href="#textext-ffcc054b-21"
           style="fill:#000000;fill-opacity:1" /><use
           transform="matrix(1.4742438,0,0,-1.4742438,-205.49449,371.65829)"
           height="100%"
           width="100%"
           id="use12954"
           y="127.836"
           x="278.14899"
           xlink:href="#textext-ffcc054b-25"
           style="fill:#000000;fill-opacity:1" /><path
           style="fill:none;stroke:#000000;stroke-width:0.58674902;stroke-linecap:butt;stroke-linejoin:miter;stroke-miterlimit:10;stroke-opacity:1"
           d="m 184.01684,176.655 h 42.06778"
           id="path12958"
           inkscape:connector-curvature="0" /><use
           transform="matrix(1.4742438,0,0,-1.4742438,-205.49449,371.65829)"
           height="100%"
           width="100%"
           id="use12960"
           y="138.2"
           x="264.21201"
           xlink:href="#textext-ffcc054b-14"
           style="fill:#000000;fill-opacity:1" /><use
           transform="matrix(1.4742438,0,0,-1.4742438,-205.49449,371.65829)"
           height="100%"
           width="100%"
           id="use12964"
           y="138.2"
           x="267.32599"
           xlink:href="#textext-ffcc054b-21"
           style="fill:#000000;fill-opacity:1" /><use
           transform="matrix(1.4742438,0,0,-1.4742438,-205.49449,371.65829)"
           height="100%"
           width="100%"
           id="use12968"
           y="136.20799"
           x="271.10599"
           xlink:href="#textext-ffcc054b-25"
           style="fill:#000000;fill-opacity:1" /><use
           transform="matrix(1.4742438,0,0,-1.4742438,-205.49449,371.65829)"
           height="100%"
           width="100%"
           id="use12972"
           y="138.2"
           x="275.547"
           xlink:href="#textext-ffcc054b-27"
           style="fill:#000000;fill-opacity:1" /><use
           transform="matrix(1.4742438,0,0,-1.4742438,-205.49449,371.65829)"
           height="100%"
           width="100%"
           id="use12976"
           y="138.2"
           x="281.77399"
           xlink:href="#textext-ffcc054b-13"
           style="fill:#000000;fill-opacity:1" /><use
           transform="matrix(1.4742438,0,0,-1.4742438,-205.49449,371.65829)"
           height="100%"
           width="100%"
           id="use12978"
           y="138.2"
           x="285.74557"
           xlink:href="#textext-ffcc054b-15"
           style="fill:#000000;fill-opacity:1" /><use
           transform="matrix(1.4742438,0,0,-1.4742438,-205.49449,371.65829)"
           height="100%"
           width="100%"
           id="use12982"
           y="136.20799"
           x="288.85901"
           xlink:href="#textext-ffcc054b-29"
           style="fill:#000000;fill-opacity:1" /></g><use
         style="fill:#000000;fill-opacity:1"
         xlink:href="#textext-ffcc054b-31"
         x="223.43201"
         y="152.397"
         id="use12986"
         width="100%"
         height="100%"
         transform="matrix(1.4742438,0,0,-1.4742438,-205.49449,371.65829)" /><use
         style="fill:#000000;fill-opacity:1"
         xlink:href="#textext-ffcc054b-34"
         x="233.395"
         y="141.339"
         id="use12990"
         width="100%"
         height="100%"
         transform="matrix(1.4742438,0,0,-1.4742438,-205.49449,371.65829)" /><use
         style="fill:#000000;fill-opacity:1"
         xlink:href="#textext-ffcc054b-3"
         x="238.099"
         y="152.397"
         id="use12994"
         width="100%"
         height="100%"
         transform="matrix(1.4742438,0,0,-1.4742438,-205.49449,371.65829)" /><use
         style="fill:#000000;fill-opacity:1"
         xlink:href="#textext-ffcc054b-32"
         x="246.35001"
         y="152.397"
         id="use12998"
         width="100%"
         height="100%"
         transform="matrix(1.4742438,0,0,-1.4742438,-205.49449,371.65829)" /><use
         style="fill:#000000;fill-opacity:1"
         xlink:href="#textext-ffcc054b-16"
         x="265.62299"
         y="147.565"
         id="use13002"
         width="100%"
         height="100%"
         transform="matrix(1.4742438,0,0,-1.4742438,-205.49449,371.65829)" /><use
         style="fill:#000000;fill-opacity:1"
         xlink:href="#textext-ffcc054b-17"
         x="269.9921"
         y="147.565"
         id="use13006"
         width="100%"
         height="100%"
         transform="matrix(1.4742438,0,0,-1.4742438,-205.49449,371.65829)" /><use
         style="fill:#000000;fill-opacity:1"
         xlink:href="#textext-ffcc054b-22"
         x="269.59399"
         y="147.565"
         id="use13010"
         width="100%"
         height="100%"
         transform="matrix(1.4742438,0,0,-1.4742438,-205.49449,371.65829)" /><use
         style="fill:#000000;fill-opacity:1"
         xlink:href="#textext-ffcc054b-23"
         x="273.50909"
         y="147.565"
         id="use13014"
         width="100%"
         height="100%"
         transform="matrix(1.4742438,0,0,-1.4742438,-205.49449,371.65829)" /><use
         style="fill:#000000;fill-opacity:1"
         xlink:href="#textext-ffcc054b-20"
         x="277.59085"
         y="147.565"
         id="use13016"
         width="100%"
         height="100%"
         transform="matrix(1.4742438,0,0,-1.4742438,-205.49449,371.65829)" /><path
         inkscape:connector-curvature="0"
         id="path13020"
         d="m 174.1348,150.65993 h 48.22966"
         style="fill:none;stroke:#000000;stroke-width:0.58674902;stroke-linecap:butt;stroke-linejoin:miter;stroke-miterlimit:10;stroke-opacity:1" /><use
         style="fill:#000000;fill-opacity:1"
         xlink:href="#textext-ffcc054b-14"
         x="257.508"
         y="155.83299"
         id="use13022"
         width="100%"
         height="100%"
         transform="matrix(1.4742438,0,0,-1.4742438,-205.49449,371.65829)" /><use
         style="fill:#000000;fill-opacity:1"
         xlink:href="#textext-ffcc054b-17"
         x="261.01862"
         y="155.83299"
         id="use13026"
         width="100%"
         height="100%"
         transform="matrix(1.4742438,0,0,-1.4742438,-205.49449,371.65829)" /><use
         style="fill:#000000;fill-opacity:1"
         xlink:href="#textext-ffcc054b-22"
         x="260.621"
         y="155.83299"
         id="use13030"
         width="100%"
         height="100%"
         transform="matrix(1.4742438,0,0,-1.4742438,-205.49449,371.65829)" /><use
         style="fill:#000000;fill-opacity:1"
         xlink:href="#textext-ffcc054b-23"
         x="264.5361"
         y="155.83299"
         id="use13034"
         width="100%"
         height="100%"
         transform="matrix(1.4742438,0,0,-1.4742438,-205.49449,371.65829)" /><use
         style="fill:#000000;fill-opacity:1"
         xlink:href="#textext-ffcc054b-20"
         x="268.61786"
         y="155.83299"
         id="use13036"
         width="100%"
         height="100%"
         transform="matrix(1.4742438,0,0,-1.4742438,-205.49449,371.65829)" /><use
         style="fill:#000000;fill-opacity:1"
         xlink:href="#textext-ffcc054b-15"
         x="273.134"
         y="155.83299"
         id="use13040"
         width="100%"
         height="100%"
         transform="matrix(1.4742438,0,0,-1.4742438,-205.49449,371.65829)" /><use
         style="fill:#000000;fill-opacity:1"
         xlink:href="#textext-ffcc054b-29"
         x="276.24799"
         y="153.84"
         id="use13044"
         width="100%"
         height="100%"
         transform="matrix(1.4742438,0,0,-1.4742438,-205.49449,371.65829)" /><use
         style="fill:#000000;fill-opacity:1"
         xlink:href="#textext-ffcc054b-18"
         x="280.13599"
         y="155.83299"
         id="use13048"
         width="100%"
         height="100%"
         transform="matrix(1.4742438,0,0,-1.4742438,-205.49449,371.65829)" /><use
         style="fill:#000000;fill-opacity:1"
         xlink:href="#textext-ffcc054b-13"
         x="286.25201"
         y="155.83299"
         id="use13050"
         width="100%"
         height="100%"
         transform="matrix(1.4742438,0,0,-1.4742438,-205.49449,371.65829)" /><use
         style="fill:#000000;fill-opacity:1"
         xlink:href="#textext-ffcc054b-32"
         x="293.633"
         y="152.397"
         id="use13054"
         width="100%"
         height="100%"
         transform="matrix(1.4742438,0,0,-1.4742438,-205.49449,371.65829)" /><use
         style="fill:#000000;fill-opacity:1"
         xlink:href="#textext-ffcc054b-8"
         x="303.595"
         y="152.397"
         id="use13058"
         width="100%"
         height="100%"
         transform="matrix(1.4742438,0,0,-1.4742438,-205.49449,371.65829)" /><use
         style="fill:#000000;fill-opacity:1"
         xlink:href="#textext-ffcc054b-9"
         x="310.24005"
         y="152.397"
         id="use13062"
         width="100%"
         height="100%"
         transform="matrix(1.4742438,0,0,-1.4742438,-205.49449,371.65829)" /><use
         style="fill:#000000;fill-opacity:1"
         xlink:href="#textext-ffcc054b-10"
         x="314.1145"
         y="152.397"
         id="use13064"
         width="100%"
         height="100%"
         transform="matrix(1.4742438,0,0,-1.4742438,-205.49449,371.65829)" /><use
         style="fill:#000000;fill-opacity:1"
         xlink:href="#textext-ffcc054b-11"
         x="319.09579"
         y="152.397"
         id="use13066"
         width="100%"
         height="100%"
         transform="matrix(1.4742438,0,0,-1.4742438,-205.49449,371.65829)" /><use
         style="fill:#000000;fill-opacity:1"
         xlink:href="#textext-ffcc054b-27"
         x="324.62701"
         y="148.73199"
         id="use13070"
         width="100%"
         height="100%"
         transform="matrix(1.4742438,0,0,-1.4742438,-205.49449,371.65829)" /><use
         style="fill:#000000;fill-opacity:1"
         xlink:href="#textext-ffcc054b-13"
         x="330.854"
         y="148.73199"
         id="use13074"
         width="100%"
         height="100%"
         transform="matrix(1.4742438,0,0,-1.4742438,-205.49449,371.65829)" /><use
         style="fill:#000000;fill-opacity:1"
         xlink:href="#textext-ffcc054b-5"
         x="335.323"
         y="152.397"
         id="use13078"
         width="100%"
         height="100%"
         transform="matrix(1.4742438,0,0,-1.4742438,-205.49449,371.65829)" /><use
         style="fill:#000000;fill-opacity:1"
         xlink:href="#textext-ffcc054b-17"
         x="341.09601"
         y="148.47501"
         id="use13082"
         width="100%"
         height="100%"
         transform="matrix(1.4742438,0,0,-1.4742438,-205.49449,371.65829)" /><use
         style="fill:#000000;fill-opacity:1"
         xlink:href="#textext-ffcc054b-22"
         x="340.69501"
         y="148.47501"
         id="use13086"
         width="100%"
         height="100%"
         transform="matrix(1.4742438,0,0,-1.4742438,-205.49449,371.65829)" /><path
         inkscape:connector-curvature="0"
         id="path13090"
         d="m 296.33004,150.65993 h 6.65713"
         style="fill:none;stroke:#000000;stroke-width:0.58674902;stroke-linecap:butt;stroke-linejoin:miter;stroke-miterlimit:10;stroke-opacity:1" /><use
         style="fill:#000000;fill-opacity:1"
         xlink:href="#textext-ffcc054b-20"
         x="340.39301"
         y="155.83299"
         id="use13092"
         width="100%"
         height="100%"
         transform="matrix(1.4742438,0,0,-1.4742438,-205.49449,371.65829)" /><use
         style="fill:#000000;fill-opacity:1"
         xlink:href="#textext-ffcc054b-6"
         x="346.10699"
         y="152.397"
         id="use13096"
         width="100%"
         height="100%"
         transform="matrix(1.4742438,0,0,-1.4742438,-205.49449,371.65829)" /><use
         style="fill:#000000;fill-opacity:1"
         xlink:href="#textext-ffcc054b-35"
         x="349.98099"
         y="141.339"
         id="use13100"
         width="100%"
         height="100%"
         transform="matrix(1.4742438,0,0,-1.4742438,-205.49449,371.65829)" /></g><g
       id="g5148"
       transform="matrix(1.589307,0,0,-1.589307,-277.33612,287.33929)"
       ns0:preamble=""
       ns0:text="$\\tilde{r}=2$"><defs
         id="defs5129"><g
           id="g5127"><symbol
             id="textext-f5c4c429-0"
             overflow="visible"><path
               id="path5109"
               d=""
               style="stroke:none;" /></symbol><symbol
             id="textext-f5c4c429-1"
             overflow="visible"><path
               id="path5112"
               d="M 4.140625 -6.515625 L 3.984375 -6.65625 C 3.984375 -6.65625 3.609375 -6.1875 3.171875 -6.1875 C 2.9375 -6.1875 2.6875 -6.328125 2.515625 -6.4375 C 2.25 -6.59375 2.078125 -6.65625 1.90625 -6.65625 C 1.53125 -6.65625 1.328125 -6.4375 0.828125 -5.875 L 0.984375 -5.734375 C 0.984375 -5.734375 1.359375 -6.203125 1.796875 -6.203125 C 2.03125 -6.203125 2.28125 -6.0625 2.453125 -5.96875 C 2.71875 -5.796875 2.90625 -5.734375 3.078125 -5.734375 C 3.453125 -5.734375 3.640625 -5.953125 4.140625 -6.515625 Z M 4.140625 -6.515625 "
               style="stroke:none;" /></symbol><symbol
             id="textext-f5c4c429-2"
             overflow="visible"><path
               id="path5115"
               d="M 6.84375 -3.265625 C 7 -3.265625 7.1875 -3.265625 7.1875 -3.453125 C 7.1875 -3.65625 7 -3.65625 6.859375 -3.65625 L 0.890625 -3.65625 C 0.75 -3.65625 0.5625 -3.65625 0.5625 -3.453125 C 0.5625 -3.265625 0.75 -3.265625 0.890625 -3.265625 Z M 6.859375 -1.328125 C 7 -1.328125 7.1875 -1.328125 7.1875 -1.53125 C 7.1875 -1.71875 7 -1.71875 6.84375 -1.71875 L 0.890625 -1.71875 C 0.75 -1.71875 0.5625 -1.71875 0.5625 -1.53125 C 0.5625 -1.328125 0.75 -1.328125 0.890625 -1.328125 Z M 6.859375 -1.328125 "
               style="stroke:none;" /></symbol><symbol
             id="textext-f5c4c429-3"
             overflow="visible"><path
               id="path5118"
               d="M 1.265625 -0.765625 L 2.328125 -1.796875 C 3.875 -3.171875 4.46875 -3.703125 4.46875 -4.703125 C 4.46875 -5.84375 3.578125 -6.640625 2.359375 -6.640625 C 1.234375 -6.640625 0.5 -5.71875 0.5 -4.828125 C 0.5 -4.28125 1 -4.28125 1.03125 -4.28125 C 1.203125 -4.28125 1.546875 -4.390625 1.546875 -4.8125 C 1.546875 -5.0625 1.359375 -5.328125 1.015625 -5.328125 C 0.9375 -5.328125 0.921875 -5.328125 0.890625 -5.3125 C 1.109375 -5.96875 1.65625 -6.328125 2.234375 -6.328125 C 3.140625 -6.328125 3.5625 -5.515625 3.5625 -4.703125 C 3.5625 -3.90625 3.078125 -3.125 2.515625 -2.5 L 0.609375 -0.375 C 0.5 -0.265625 0.5 -0.234375 0.5 0 L 4.203125 0 L 4.46875 -1.734375 L 4.234375 -1.734375 C 4.171875 -1.4375 4.109375 -1 4 -0.84375 C 3.9375 -0.765625 3.28125 -0.765625 3.0625 -0.765625 Z M 1.265625 -0.765625 "
               style="stroke:none;" /></symbol><symbol
             id="textext-f5c4c429-4"
             overflow="visible"><path
               id="path5121"
               d=""
               style="stroke:none;" /></symbol><symbol
             id="textext-f5c4c429-5"
             overflow="visible"><path
               id="path5124"
               d="M 0.875 -0.59375 C 0.84375 -0.4375 0.78125 -0.203125 0.78125 -0.15625 C 0.78125 0.015625 0.921875 0.109375 1.078125 0.109375 C 1.203125 0.109375 1.375 0.03125 1.453125 -0.171875 C 1.46875 -0.203125 1.796875 -1.5625 1.84375 -1.75 C 1.921875 -2.078125 2.109375 -2.765625 2.15625 -3.046875 C 2.203125 -3.171875 2.484375 -3.640625 2.71875 -3.859375 C 2.796875 -3.921875 3.09375 -4.1875 3.515625 -4.1875 C 3.78125 -4.1875 3.921875 -4.0625 3.9375 -4.0625 C 3.640625 -4.015625 3.421875 -3.78125 3.421875 -3.515625 C 3.421875 -3.359375 3.53125 -3.171875 3.796875 -3.171875 C 4.0625 -3.171875 4.34375 -3.40625 4.34375 -3.765625 C 4.34375 -4.109375 4.03125 -4.40625 3.515625 -4.40625 C 2.875 -4.40625 2.4375 -3.921875 2.25 -3.640625 C 2.15625 -4.09375 1.796875 -4.40625 1.328125 -4.40625 C 0.875 -4.40625 0.6875 -4.015625 0.59375 -3.84375 C 0.421875 -3.5 0.296875 -2.90625 0.296875 -2.875 C 0.296875 -2.765625 0.390625 -2.765625 0.40625 -2.765625 C 0.515625 -2.765625 0.515625 -2.78125 0.578125 -3 C 0.75 -3.703125 0.953125 -4.1875 1.3125 -4.1875 C 1.46875 -4.1875 1.609375 -4.109375 1.609375 -3.734375 C 1.609375 -3.515625 1.578125 -3.40625 1.453125 -2.890625 Z M 0.875 -0.59375 "
               style="stroke:none;" /></symbol></g></defs><g
         id="textext-f5c4c429-6"><g
           id="g5133"
           style="fill:rgb(0%,0%,0%);fill-opacity:1;"><use
             id="use5131"
             y="134.765"
             x="223.881"
             xlink:href="#textext-f5c4c429-1" /></g><g
           id="g5137"
           style="fill:rgb(0%,0%,0%);fill-opacity:1;"><use
             id="use5135"
             y="134.765"
             x="223.432"
             xlink:href="#textext-f5c4c429-5" /></g><g
           id="g5141"
           style="fill:rgb(0%,0%,0%);fill-opacity:1;"><use
             id="use5139"
             y="134.765"
             x="230.971"
             xlink:href="#textext-f5c4c429-2" /></g><g
           id="g5145"
           style="fill:rgb(0%,0%,0%);fill-opacity:1;"><use
             id="use5143"
             y="134.765"
             x="241.489513"
             xlink:href="#textext-f5c4c429-3" /></g></g></g></g></svg>