<?xml version="1.0" encoding="UTF-8" standalone="no"?>
<!-- Created with Inkscape (http://www.inkscape.org/) -->

<svg
   xmlns:ns0="http://www.iki.fi/pav/software/textext/"
   xmlns:dc="http://purl.org/dc/elements/1.1/"
   xmlns:cc="http://creativecommons.org/ns#"
   xmlns:rdf="http://www.w3.org/1999/02/22-rdf-syntax-ns#"
   xmlns:svg="http://www.w3.org/2000/svg"
   xmlns="http://www.w3.org/2000/svg"
   xmlns:xlink="http://www.w3.org/1999/xlink"
   xmlns:sodipodi="http://sodipodi.sourceforge.net/DTD/sodipodi-0.dtd"
   xmlns:inkscape="http://www.inkscape.org/namespaces/inkscape"
   width="210mm"
   height="297mm"
   viewBox="0 0 210 297"
   version="1.1"
   id="svg8"
   inkscape:version="0.92.1 r15371"
   sodipodi:docname="conductivity_delta_peak.svg">
  <sodipodi:namedview
     id="base"
     pagecolor="#ffffff"
     bordercolor="#666666"
     borderopacity="1.0"
     inkscape:pageopacity="0.0"
     inkscape:pageshadow="2"
     inkscape:zoom="3.1892536"
     inkscape:cx="64.725756"
     inkscape:cy="699.22316"
     inkscape:document-units="mm"
     inkscape:current-layer="layer1"
     showgrid="false"
     inkscape:window-width="1600"
     inkscape:window-height="1134"
     inkscape:window-x="0"
     inkscape:window-y="27"
     inkscape:window-maximized="1" />
  <defs
     id="defs2">
    <marker
       inkscape:isstock="true"
       style="overflow:visible"
       id="marker5109"
       refX="0.0"
       refY="0.0"
       orient="auto"
       inkscape:stockid="Arrow1Mstart">
      <path
         transform="scale(0.4) translate(10,0)"
         style="fill-rule:evenodd;stroke:#000000;stroke-width:1pt;stroke-opacity:1;fill:#000000;fill-opacity:1"
         d="M 0.0,0.0 L 5.0,-5.0 L -12.5,0.0 L 5.0,5.0 L 0.0,0.0 z "
         id="path5107" />
    </marker>
    <marker
       inkscape:isstock="true"
       style="overflow:visible;"
       id="Arrow1Mend"
       refX="0.0"
       refY="0.0"
       orient="auto"
       inkscape:stockid="Arrow1Mend">
      <path
         transform="scale(0.4) rotate(180) translate(10,0)"
         style="fill-rule:evenodd;stroke:#000000;stroke-width:1pt;stroke-opacity:1;fill:#000000;fill-opacity:1"
         d="M 0.0,0.0 L 5.0,-5.0 L -12.5,0.0 L 5.0,5.0 L 0.0,0.0 z "
         id="path4500" />
    </marker>
    <marker
       inkscape:isstock="true"
       style="overflow:visible"
       id="Arrow1Mstart"
       refX="0.0"
       refY="0.0"
       orient="auto"
       inkscape:stockid="Arrow1Mstart">
      <path
         transform="scale(0.4) translate(10,0)"
         style="fill-rule:evenodd;stroke:#000000;stroke-width:1pt;stroke-opacity:1;fill:#000000;fill-opacity:1"
         d="M 0.0,0.0 L 5.0,-5.0 L -12.5,0.0 L 5.0,5.0 L 0.0,0.0 z "
         id="path4497" />
    </marker>
    <marker
       inkscape:stockid="Arrow1Lstart"
       orient="auto"
       refY="0.0"
       refX="0.0"
       id="marker4831"
       style="overflow:visible"
       inkscape:isstock="true">
      <path
         id="path4829"
         d="M 0.0,0.0 L 5.0,-5.0 L -12.5,0.0 L 5.0,5.0 L 0.0,0.0 z "
         style="fill-rule:evenodd;stroke:#000000;stroke-width:1pt;stroke-opacity:1;fill:#000000;fill-opacity:1"
         transform="scale(0.8) translate(12.5,0)" />
    </marker>
    <marker
       inkscape:isstock="true"
       style="overflow:visible;"
       id="Arrow1Lend"
       refX="0.0"
       refY="0.0"
       orient="auto"
       inkscape:stockid="Arrow1Lend">
      <path
         transform="scale(0.8) rotate(180) translate(12.5,0)"
         style="fill-rule:evenodd;stroke:#000000;stroke-width:1pt;stroke-opacity:1;fill:#000000;fill-opacity:1"
         d="M 0.0,0.0 L 5.0,-5.0 L -12.5,0.0 L 5.0,5.0 L 0.0,0.0 z "
         id="path4494" />
    </marker>
  </defs>
  <metadata
     id="metadata5">
    <rdf:RDF>
      <cc:Work
         rdf:about="">
        <dc:format>image/svg+xml</dc:format>
        <dc:type
           rdf:resource="http://purl.org/dc/dcmitype/StillImage" />
        <dc:title />
      </cc:Work>
    </rdf:RDF>
  </metadata>
  <g
     id="layer1"
     inkscape:groupmode="layer"
     inkscape:label="Layer 1">
    <path
       inkscape:connector-curvature="0"
       id="path4485"
       d="M 50.269561,43.25028 V 99"
       style="fill:none;fill-rule:evenodd;stroke:#000000;stroke-width:0.5;stroke-linecap:butt;stroke-linejoin:miter;stroke-miterlimit:4;stroke-dasharray:none;stroke-opacity:1;marker-start:url(#Arrow1Mstart)" />
    <path
       inkscape:connector-curvature="0"
       id="path4487"
       d="M 88.993132,95.702702 H 10"
       style="fill:none;fill-rule:evenodd;stroke:#000000;stroke-width:0.51089382;stroke-linecap:butt;stroke-linejoin:miter;stroke-miterlimit:4;stroke-dasharray:none;stroke-opacity:1;marker-start:url(#marker5109)" />
    <path
       inkscape:connector-curvature="0"
       id="path5177"
       d="m 50.2635,50.547432 v 44.75"
       style="fill:none;fill-rule:evenodd;stroke:#000000;stroke-width:1.13300002;stroke-linecap:round;stroke-linejoin:miter;stroke-miterlimit:4;stroke-dasharray:none;stroke-opacity:1" />
    <g
       id="g5361"
       transform="matrix(0.9409271,0,0,0.9409271,-127.41747,-46.196017)"
       ns0:preamble=""
       ns0:text="$\\omega$">
      <defs
         id="defs5354">
        <g
           id="g5352">
          <symbol
             id="textext-e72aae5e-0"
             overflow="visible"
             style="overflow:visible">
            <path
               id="path5346"
               d=""
               style="stroke:none"
               inkscape:connector-curvature="0" />
          </symbol>
          <symbol
             id="textext-e72aae5e-1"
             overflow="visible"
             style="overflow:visible">
            <path
               id="path5349"
               d="m 6.03125,-3.703125 c 0,-0.453125 -0.171875,-0.703125 -0.40625,-0.703125 -0.25,0 -0.515625,0.234375 -0.515625,0.46875 0,0.09375 0.046875,0.203125 0.140625,0.296875 0.171875,0.15625 0.359375,0.421875 0.359375,0.84375 0,0.390625 -0.203125,0.96875 -0.5,1.421875 C 4.8125,-0.953125 4.4375,-0.609375 3.96875,-0.609375 3.40625,-0.609375 3.09375,-0.96875 3,-1.5 c 0.109375,-0.265625 0.34375,-0.90625 0.34375,-1.1875 0,-0.109375 -0.046875,-0.21875 -0.1875,-0.21875 -0.078125,0 -0.1875,0.03125 -0.265625,0.171875 C 2.78125,-2.53125 2.65625,-1.890625 2.65625,-1.53125 2.328125,-1.0625 1.9375,-0.609375 1.3125,-0.609375 c -0.671875,0 -0.875,-0.59375 -0.875,-1.140625 0,-1.25 1.015625,-2.296875 1.015625,-2.421875 0,-0.109375 -0.078125,-0.1875 -0.1875,-0.1875 -0.125,0 -0.203125,0.125 -0.265625,0.21875 -0.5,0.734375 -0.875,1.921875 -0.875,2.828125 0,0.6875 0.21875,1.421875 1.046875,1.421875 0.703125,0 1.171875,-0.5 1.53125,-1.046875 0.09375,0.578125 0.484375,1.046875 1.09375,1.046875 0.78125,0 1.25,-0.609375 1.609375,-1.359375 0.25,-0.484375 0.625,-1.84375 0.625,-2.453125 z m 0,0"
               style="stroke:none"
               inkscape:connector-curvature="0" />
          </symbol>
        </g>
      </defs>
      <g
         id="textext-e72aae5e-2">
        <g
           id="g5358"
           style="fill:#000000;fill-opacity:1">
          <use
             transform="matrix(0.88954775,0,0,0.88954775,22.020797,38.100834)"
             id="use5356"
             y="134.765"
             x="223.43201"
             xlink:href="#textext-e72aae5e-1"
             width="100%"
             height="100%" />
        </g>
      </g>
    </g>
    <path
       sodipodi:nodetypes="caaaaaaaaaacc"
       inkscape:connector-curvature="0"
       id="path5513"
       d="m 11.742179,95.702702 c 2.056883,-0.444297 3.502136,-2.996517 5.11732,-4.636442 1.800309,-1.827886 3.074846,-4.181921 5.080552,-5.78174 2.20244,-1.756742 4.774573,-3.087523 7.430305,-4.027722 1.599638,-0.566314 3.321983,-0.713854 5.005042,-0.930336 1.9922,-0.256244 4.001884,-0.399201 6.010197,-0.433851 2.579117,-0.0445 5.15367,0.265113 7.733046,0.290579 2.769255,0.02734 5.537582,-0.122235 8.306853,-0.147991 2.932262,-0.02727 5.89198,-0.405411 8.797164,-0.0069 1.805019,0.247599 3.653486,0.621672 5.262718,1.47594 1.647839,0.874763 2.922543,2.327839 4.271272,3.616837 1.600006,1.529148 4.515646,4.867624 4.515646,4.867624 0,0 2.92754,5.999026 4.951806,5.559894"
       style="fill:none;fill-rule:evenodd;stroke:#000000;stroke-width:0.5;stroke-linecap:butt;stroke-linejoin:miter;stroke-miterlimit:4;stroke-dasharray:none;stroke-opacity:1" />
    <g
       id="g4652"
       ns0:preamble=""
       ns0:text="$\\delta(\\omega)$"
       transform="matrix(0.60116452,0,0,0.60116452,-82.280978,-21.442099)">
      <defs
         id="defs4633">
        <g
           id="g4631">
          <symbol
             id="textext-6d640c69-0"
             overflow="visible"
             style="overflow:visible">
            <path
               id="path4613"
               d=""
               style="stroke:none"
               inkscape:connector-curvature="0" />
          </symbol>
          <symbol
             id="textext-6d640c69-1"
             overflow="visible"
             style="overflow:visible">
            <path
               id="path4616"
               d="M 2.625,-4.359375 C 1.390625,-4.0625 0.421875,-2.765625 0.421875,-1.5625 0.421875,-0.59375 1.0625,0.125 2,0.125 c 1.15625,0 1.984375,-1.578125 1.984375,-2.953125 0,-0.90625 -0.390625,-1.40625 -0.734375,-1.84375 C 2.890625,-5.125 2.296875,-5.875 2.296875,-6.3125 c 0,-0.21875 0.203125,-0.453125 0.546875,-0.453125 0.3125,0 0.5,0.125 0.71875,0.265625 0.203125,0.125 0.390625,0.25 0.546875,0.25 C 4.359375,-6.25 4.5,-6.484375 4.5,-6.65625 4.5,-6.875 4.34375,-6.890625 3.984375,-6.984375 3.46875,-7.09375 3.328125,-7.09375 3.171875,-7.09375 c -0.78125,0 -1.140625,0.4375 -1.140625,1.03125 0,0.546875 0.296875,1.09375 0.59375,1.703125 z m 0.125,0.21875 c 0.25,0.46875 0.546875,1 0.546875,1.71875 0,0.65625 -0.375,2.328125 -1.296875,2.328125 -0.546875,0 -0.96875,-0.421875 -0.96875,-1.1875 0,-0.625 0.375,-2.5 1.71875,-2.859375 z m 0,0"
               style="stroke:none"
               inkscape:connector-curvature="0" />
          </symbol>
          <symbol
             id="textext-6d640c69-2"
             overflow="visible"
             style="overflow:visible">
            <path
               id="path4619"
               d="m 6.03125,-3.703125 c 0,-0.453125 -0.171875,-0.703125 -0.40625,-0.703125 -0.25,0 -0.515625,0.234375 -0.515625,0.46875 0,0.09375 0.046875,0.203125 0.140625,0.296875 0.171875,0.15625 0.359375,0.421875 0.359375,0.84375 0,0.390625 -0.203125,0.96875 -0.5,1.421875 C 4.8125,-0.953125 4.4375,-0.609375 3.96875,-0.609375 3.40625,-0.609375 3.09375,-0.96875 3,-1.5 c 0.109375,-0.265625 0.34375,-0.90625 0.34375,-1.1875 0,-0.109375 -0.046875,-0.21875 -0.1875,-0.21875 -0.078125,0 -0.1875,0.03125 -0.265625,0.171875 C 2.78125,-2.53125 2.65625,-1.890625 2.65625,-1.53125 2.328125,-1.0625 1.9375,-0.609375 1.3125,-0.609375 c -0.671875,0 -0.875,-0.59375 -0.875,-1.140625 0,-1.25 1.015625,-2.296875 1.015625,-2.421875 0,-0.109375 -0.078125,-0.1875 -0.1875,-0.1875 -0.125,0 -0.203125,0.125 -0.265625,0.21875 -0.5,0.734375 -0.875,1.921875 -0.875,2.828125 0,0.6875 0.21875,1.421875 1.046875,1.421875 0.703125,0 1.171875,-0.5 1.53125,-1.046875 0.09375,0.578125 0.484375,1.046875 1.09375,1.046875 0.78125,0 1.25,-0.609375 1.609375,-1.359375 0.25,-0.484375 0.625,-1.84375 0.625,-2.453125 z m 0,0"
               style="stroke:none"
               inkscape:connector-curvature="0" />
          </symbol>
          <symbol
             id="textext-6d640c69-3"
             overflow="visible"
             style="overflow:visible">
            <path
               id="path4622"
               d=""
               style="stroke:none"
               inkscape:connector-curvature="0" />
          </symbol>
          <symbol
             id="textext-6d640c69-4"
             overflow="visible"
             style="overflow:visible">
            <path
               id="path4625"
               d="m 3.296875,2.390625 c 0,-0.03125 0,-0.046875 -0.171875,-0.21875 C 1.890625,0.921875 1.5625,-0.96875 1.5625,-2.5 c 0,-1.734375 0.375,-3.46875 1.609375,-4.703125 0.125,-0.125 0.125,-0.140625 0.125,-0.171875 0,-0.078125 -0.03125,-0.109375 -0.09375,-0.109375 -0.109375,0 -1,0.6875 -1.59375,1.953125 -0.5,1.09375 -0.625,2.203125 -0.625,3.03125 0,0.78125 0.109375,1.984375 0.65625,3.125 C 2.25,1.84375 3.09375,2.5 3.203125,2.5 c 0.0625,0 0.09375,-0.03125 0.09375,-0.109375 z m 0,0"
               style="stroke:none"
               inkscape:connector-curvature="0" />
          </symbol>
          <symbol
             id="textext-6d640c69-5"
             overflow="visible"
             style="overflow:visible">
            <path
               id="path4628"
               d="m 2.875,-2.5 c 0,-0.765625 -0.109375,-1.96875 -0.65625,-3.109375 -0.59375,-1.21875 -1.453125,-1.875 -1.546875,-1.875 -0.0625,0 -0.109375,0.046875 -0.109375,0.109375 0,0.03125 0,0.046875 0.1875,0.234375 0.984375,0.984375 1.546875,2.5625 1.546875,4.640625 0,1.71875 -0.359375,3.46875 -1.59375,4.71875 C 0.5625,2.34375 0.5625,2.359375 0.5625,2.390625 0.5625,2.453125 0.609375,2.5 0.671875,2.5 0.765625,2.5 1.671875,1.8125 2.25,0.546875 2.765625,-0.546875 2.875,-1.65625 2.875,-2.5 Z m 0,0"
               style="stroke:none"
               inkscape:connector-curvature="0" />
          </symbol>
        </g>
      </defs>
      <g
         id="textext-6d640c69-6">
        <g
           id="g4637"
           style="fill:#000000;fill-opacity:1">
          <use
             id="use4635"
             y="134.765"
             x="223.43201"
             xlink:href="#textext-6d640c69-1"
             width="100%"
             height="100%" />
        </g>
        <g
           id="g4641"
           style="fill:#000000;fill-opacity:1">
          <use
             id="use4639"
             y="134.765"
             x="228.237"
             xlink:href="#textext-6d640c69-4"
             width="100%"
             height="100%" />
        </g>
        <g
           id="g4645"
           style="fill:#000000;fill-opacity:1">
          <use
             id="use4643"
             y="134.765"
             x="232.11099"
             xlink:href="#textext-6d640c69-2"
             width="100%"
             height="100%" />
        </g>
        <g
           id="g4649"
           style="fill:#000000;fill-opacity:1">
          <use
             id="use4647"
             y="134.765"
             x="238.67"
             xlink:href="#textext-6d640c69-5"
             width="100%"
             height="100%" />
        </g>
      </g>
    </g>
    <g
       ns0:text="$\\sigma(\\omega)$"
       ns0:preamble=""
       transform="matrix(0.64186837,0,0,0.64186837,-107.45984,-39.013505)"
       id="g5666">
      <defs
         id="defs5647">
        <g
           id="g5645">
          <symbol
             style="overflow:visible"
             overflow="visible"
             id="textext-37df6616-0">
            <path
               inkscape:connector-curvature="0"
               style="stroke:none"
               d=""
               id="path5627" />
          </symbol>
          <symbol
             style="overflow:visible"
             overflow="visible"
             id="textext-37df6616-1">
            <path
               inkscape:connector-curvature="0"
               style="stroke:none"
               d="m 5.15625,-3.71875 c 0.140625,0 0.5,0 0.5,-0.34375 0,-0.234375 -0.21875,-0.234375 -0.390625,-0.234375 h -2.28125 c -1.5,0 -2.609375,1.640625 -2.609375,2.828125 0,0.875 0.59375,1.578125 1.5,1.578125 1.171875,0 2.5,-1.203125 2.5,-2.734375 0,-0.171875 0,-0.65625 -0.3125,-1.09375 z M 1.890625,-0.109375 C 1.390625,-0.109375 1,-0.46875 1,-1.1875 c 0,-0.296875 0.109375,-1.109375 0.46875,-1.703125 0.421875,-0.6875 1.015625,-0.828125 1.359375,-0.828125 0.828125,0 0.90625,0.65625 0.90625,0.96875 0,0.46875 -0.203125,1.28125 -0.53125,1.796875 -0.390625,0.578125 -0.9375,0.84375 -1.3125,0.84375 z m 0,0"
               id="path5630" />
          </symbol>
          <symbol
             style="overflow:visible"
             overflow="visible"
             id="textext-37df6616-2">
            <path
               inkscape:connector-curvature="0"
               style="stroke:none"
               d="m 6.03125,-3.703125 c 0,-0.453125 -0.171875,-0.703125 -0.40625,-0.703125 -0.25,0 -0.515625,0.234375 -0.515625,0.46875 0,0.09375 0.046875,0.203125 0.140625,0.296875 0.171875,0.15625 0.359375,0.421875 0.359375,0.84375 0,0.390625 -0.203125,0.96875 -0.5,1.421875 C 4.8125,-0.953125 4.4375,-0.609375 3.96875,-0.609375 3.40625,-0.609375 3.09375,-0.96875 3,-1.5 c 0.109375,-0.265625 0.34375,-0.90625 0.34375,-1.1875 0,-0.109375 -0.046875,-0.21875 -0.1875,-0.21875 -0.078125,0 -0.1875,0.03125 -0.265625,0.171875 C 2.78125,-2.53125 2.65625,-1.890625 2.65625,-1.53125 2.328125,-1.0625 1.9375,-0.609375 1.3125,-0.609375 c -0.671875,0 -0.875,-0.59375 -0.875,-1.140625 0,-1.25 1.015625,-2.296875 1.015625,-2.421875 0,-0.109375 -0.078125,-0.1875 -0.1875,-0.1875 -0.125,0 -0.203125,0.125 -0.265625,0.21875 -0.5,0.734375 -0.875,1.921875 -0.875,2.828125 0,0.6875 0.21875,1.421875 1.046875,1.421875 0.703125,0 1.171875,-0.5 1.53125,-1.046875 0.09375,0.578125 0.484375,1.046875 1.09375,1.046875 0.78125,0 1.25,-0.609375 1.609375,-1.359375 0.25,-0.484375 0.625,-1.84375 0.625,-2.453125 z m 0,0"
               id="path5633" />
          </symbol>
          <symbol
             style="overflow:visible"
             overflow="visible"
             id="textext-37df6616-3">
            <path
               inkscape:connector-curvature="0"
               style="stroke:none"
               d=""
               id="path5636" />
          </symbol>
          <symbol
             style="overflow:visible"
             overflow="visible"
             id="textext-37df6616-4">
            <path
               inkscape:connector-curvature="0"
               style="stroke:none"
               d="m 3.296875,2.390625 c 0,-0.03125 0,-0.046875 -0.171875,-0.21875 C 1.890625,0.921875 1.5625,-0.96875 1.5625,-2.5 c 0,-1.734375 0.375,-3.46875 1.609375,-4.703125 0.125,-0.125 0.125,-0.140625 0.125,-0.171875 0,-0.078125 -0.03125,-0.109375 -0.09375,-0.109375 -0.109375,0 -1,0.6875 -1.59375,1.953125 -0.5,1.09375 -0.625,2.203125 -0.625,3.03125 0,0.78125 0.109375,1.984375 0.65625,3.125 C 2.25,1.84375 3.09375,2.5 3.203125,2.5 c 0.0625,0 0.09375,-0.03125 0.09375,-0.109375 z m 0,0"
               id="path5639" />
          </symbol>
          <symbol
             style="overflow:visible"
             overflow="visible"
             id="textext-37df6616-5">
            <path
               inkscape:connector-curvature="0"
               style="stroke:none"
               d="m 2.875,-2.5 c 0,-0.765625 -0.109375,-1.96875 -0.65625,-3.109375 -0.59375,-1.21875 -1.453125,-1.875 -1.546875,-1.875 -0.0625,0 -0.109375,0.046875 -0.109375,0.109375 0,0.03125 0,0.046875 0.1875,0.234375 0.984375,0.984375 1.546875,2.5625 1.546875,4.640625 0,1.71875 -0.359375,3.46875 -1.59375,4.71875 C 0.5625,2.34375 0.5625,2.359375 0.5625,2.390625 0.5625,2.453125 0.609375,2.5 0.671875,2.5 0.765625,2.5 1.671875,1.8125 2.25,0.546875 2.765625,-0.546875 2.875,-1.65625 2.875,-2.5 Z m 0,0"
               id="path5642" />
          </symbol>
        </g>
      </defs>
      <g
         id="textext-37df6616-6">
        <g
           style="fill:#000000;fill-opacity:1"
           id="g5651">
          <use
             height="100%"
             width="100%"
             xlink:href="#textext-37df6616-1"
             x="223.43201"
             y="134.765"
             id="use5649" />
        </g>
        <g
           style="fill:#000000;fill-opacity:1"
           id="g5655">
          <use
             height="100%"
             width="100%"
             xlink:href="#textext-37df6616-4"
             x="229.48199"
             y="134.765"
             id="use5653" />
        </g>
        <g
           style="fill:#000000;fill-opacity:1"
           id="g5659">
          <use
             height="100%"
             width="100%"
             xlink:href="#textext-37df6616-2"
             x="233.35699"
             y="134.765"
             id="use5657" />
        </g>
        <g
           style="fill:#000000;fill-opacity:1"
           id="g5663">
          <use
             height="100%"
             width="100%"
             xlink:href="#textext-37df6616-5"
             x="239.91499"
             y="134.765"
             id="use5661" />
        </g>
      </g>
    </g>
    <g
       id="g5879"
       ns0:preamble=""
       ns0:text="$\\sigma_{\\mathrm{reg}}(\\omega)$"
       transform="matrix(0.54876321,0,0,0.54876321,-106.50793,5.3416532)">
      <defs
         id="defs5852">
        <g
           id="g5850">
          <symbol
             id="textext-b61907ac-0"
             overflow="visible"
             style="overflow:visible">
            <path
               id="path5820"
               d=""
               style="stroke:none"
               inkscape:connector-curvature="0" />
          </symbol>
          <symbol
             id="textext-b61907ac-1"
             overflow="visible"
             style="overflow:visible">
            <path
               id="path5823"
               d="m 5.15625,-3.71875 c 0.140625,0 0.5,0 0.5,-0.34375 0,-0.234375 -0.21875,-0.234375 -0.390625,-0.234375 h -2.28125 c -1.5,0 -2.609375,1.640625 -2.609375,2.828125 0,0.875 0.59375,1.578125 1.5,1.578125 1.171875,0 2.5,-1.203125 2.5,-2.734375 0,-0.171875 0,-0.65625 -0.3125,-1.09375 z M 1.890625,-0.109375 C 1.390625,-0.109375 1,-0.46875 1,-1.1875 c 0,-0.296875 0.109375,-1.109375 0.46875,-1.703125 0.421875,-0.6875 1.015625,-0.828125 1.359375,-0.828125 0.828125,0 0.90625,0.65625 0.90625,0.96875 0,0.46875 -0.203125,1.28125 -0.53125,1.796875 -0.390625,0.578125 -0.9375,0.84375 -1.3125,0.84375 z m 0,0"
               style="stroke:none"
               inkscape:connector-curvature="0" />
          </symbol>
          <symbol
             id="textext-b61907ac-2"
             overflow="visible"
             style="overflow:visible">
            <path
               id="path5826"
               d="m 6.03125,-3.703125 c 0,-0.453125 -0.171875,-0.703125 -0.40625,-0.703125 -0.25,0 -0.515625,0.234375 -0.515625,0.46875 0,0.09375 0.046875,0.203125 0.140625,0.296875 0.171875,0.15625 0.359375,0.421875 0.359375,0.84375 0,0.390625 -0.203125,0.96875 -0.5,1.421875 C 4.8125,-0.953125 4.4375,-0.609375 3.96875,-0.609375 3.40625,-0.609375 3.09375,-0.96875 3,-1.5 c 0.109375,-0.265625 0.34375,-0.90625 0.34375,-1.1875 0,-0.109375 -0.046875,-0.21875 -0.1875,-0.21875 -0.078125,0 -0.1875,0.03125 -0.265625,0.171875 C 2.78125,-2.53125 2.65625,-1.890625 2.65625,-1.53125 2.328125,-1.0625 1.9375,-0.609375 1.3125,-0.609375 c -0.671875,0 -0.875,-0.59375 -0.875,-1.140625 0,-1.25 1.015625,-2.296875 1.015625,-2.421875 0,-0.109375 -0.078125,-0.1875 -0.1875,-0.1875 -0.125,0 -0.203125,0.125 -0.265625,0.21875 -0.5,0.734375 -0.875,1.921875 -0.875,2.828125 0,0.6875 0.21875,1.421875 1.046875,1.421875 0.703125,0 1.171875,-0.5 1.53125,-1.046875 0.09375,0.578125 0.484375,1.046875 1.09375,1.046875 0.78125,0 1.25,-0.609375 1.609375,-1.359375 0.25,-0.484375 0.625,-1.84375 0.625,-2.453125 z m 0,0"
               style="stroke:none"
               inkscape:connector-curvature="0" />
          </symbol>
          <symbol
             id="textext-b61907ac-3"
             overflow="visible"
             style="overflow:visible">
            <path
               id="path5829"
               d=""
               style="stroke:none"
               inkscape:connector-curvature="0" />
          </symbol>
          <symbol
             id="textext-b61907ac-4"
             overflow="visible"
             style="overflow:visible">
            <path
               id="path5832"
               d="m 1.390625,-1.59375 c 0,-0.578125 0.265625,-1.28125 0.9375,-1.28125 -0.0625,0.046875 -0.125,0.140625 -0.125,0.25 0,0.234375 0.1875,0.3125 0.3125,0.3125 0.171875,0 0.328125,-0.109375 0.328125,-0.3125 0,-0.234375 -0.234375,-0.453125 -0.5625,-0.453125 -0.34375,0 -0.734375,0.21875 -0.9375,0.75 v -0.75 L 0.34375,-3 v 0.25 c 0.46875,0 0.515625,0.046875 0.515625,0.390625 v 1.8125 C 0.859375,-0.25 0.796875,-0.25 0.34375,-0.25 V 0 c 0.03125,0 0.5,-0.03125 0.796875,-0.03125 0.296875,0 0.59375,0.015625 0.90625,0.03125 V -0.25 H 1.90625 c -0.515625,0 -0.515625,-0.078125 -0.515625,-0.3125 z m 0,0"
               style="stroke:none"
               inkscape:connector-curvature="0" />
          </symbol>
          <symbol
             id="textext-b61907ac-5"
             overflow="visible"
             style="overflow:visible">
            <path
               id="path5835"
               d="m 3.0625,-1.59375 c 0.15625,0 0.203125,0 0.203125,-0.140625 0,-0.625 -0.34375,-1.375 -1.390625,-1.375 -0.90625,0 -1.609375,0.71875 -1.609375,1.578125 0,0.890625 0.78125,1.59375 1.703125,1.59375 0.9375,0 1.296875,-0.75 1.296875,-0.90625 0,-0.015625 -0.015625,-0.09375 -0.125,-0.09375 -0.09375,0 -0.109375,0.046875 -0.125,0.109375 -0.21875,0.5625 -0.75,0.671875 -1,0.671875 C 1.6875,-0.15625 1.375,-0.296875 1.171875,-0.5625 0.90625,-0.890625 0.90625,-1.3125 0.90625,-1.59375 Z M 0.90625,-1.765625 C 0.984375,-2.75 1.609375,-2.90625 1.875,-2.90625 c 0.859375,0 0.890625,0.96875 0.90625,1.140625 z m 0,0"
               style="stroke:none"
               inkscape:connector-curvature="0" />
          </symbol>
          <symbol
             id="textext-b61907ac-6"
             overflow="visible"
             style="overflow:visible">
            <path
               id="path5838"
               d="m 1,-1.234375 c 0.109375,0.0625 0.359375,0.203125 0.765625,0.203125 C 2.484375,-1.03125 3,-1.5 3,-2.046875 3,-2.328125 2.875,-2.53125 2.703125,-2.71875 c 0.328125,-0.21875 0.59375,-0.234375 0.71875,-0.234375 -0.03125,0.03125 -0.0625,0.0625 -0.0625,0.171875 0,0.140625 0.09375,0.21875 0.21875,0.21875 0.09375,0 0.21875,-0.0625 0.21875,-0.21875 0,-0.171875 -0.125,-0.359375 -0.40625,-0.359375 -0.109375,0 -0.484375,0.015625 -0.8125,0.3125 -0.203125,-0.140625 -0.5,-0.25 -0.8125,-0.25 -0.71875,0 -1.234375,0.484375 -1.234375,1.03125 0,0.265625 0.140625,0.515625 0.328125,0.703125 -0.046875,0.0625 -0.203125,0.296875 -0.203125,0.5625 0,0.09375 0.015625,0.421875 0.296875,0.625 -0.3125,0.09375 -0.6875,0.328125 -0.6875,0.6875 0,0.515625 0.765625,0.890625 1.71875,0.890625 0.875,0 1.703125,-0.34375 1.703125,-0.90625 0,-0.203125 -0.078125,-0.578125 -0.46875,-0.78125 -0.40625,-0.21875 -0.828125,-0.21875 -1.5,-0.21875 -0.15625,0 -0.40625,0 -0.453125,-0.015625 C 1.03125,-0.546875 0.90625,-0.75 0.90625,-0.953125 0.90625,-1.125 0.96875,-1.1875 1,-1.234375 Z m 0.765625,0 c -0.671875,0 -0.671875,-0.671875 -0.671875,-0.8125 0,-0.109375 0,-0.390625 0.125,-0.578125 0.109375,-0.109375 0.296875,-0.234375 0.546875,-0.234375 0.6875,0 0.6875,0.671875 0.6875,0.8125 0,0.109375 0,0.390625 -0.140625,0.5625 -0.109375,0.125 -0.296875,0.25 -0.546875,0.25 z m 0,1.21875 c 0.625,0 1.5,0 1.5,0.546875 0,0.375 -0.5625,0.6875 -1.28125,0.6875 -0.734375,0 -1.28125,-0.328125 -1.28125,-0.6875 0,-0.25 0.21875,-0.546875 0.65625,-0.546875 z m 0,0"
               style="stroke:none"
               inkscape:connector-curvature="0" />
          </symbol>
          <symbol
             id="textext-b61907ac-7"
             overflow="visible"
             style="overflow:visible">
            <path
               id="path5841"
               d=""
               style="stroke:none"
               inkscape:connector-curvature="0" />
          </symbol>
          <symbol
             id="textext-b61907ac-8"
             overflow="visible"
             style="overflow:visible">
            <path
               id="path5844"
               d="m 3.296875,2.390625 c 0,-0.03125 0,-0.046875 -0.171875,-0.21875 C 1.890625,0.921875 1.5625,-0.96875 1.5625,-2.5 c 0,-1.734375 0.375,-3.46875 1.609375,-4.703125 0.125,-0.125 0.125,-0.140625 0.125,-0.171875 0,-0.078125 -0.03125,-0.109375 -0.09375,-0.109375 -0.109375,0 -1,0.6875 -1.59375,1.953125 -0.5,1.09375 -0.625,2.203125 -0.625,3.03125 0,0.78125 0.109375,1.984375 0.65625,3.125 C 2.25,1.84375 3.09375,2.5 3.203125,2.5 c 0.0625,0 0.09375,-0.03125 0.09375,-0.109375 z m 0,0"
               style="stroke:none"
               inkscape:connector-curvature="0" />
          </symbol>
          <symbol
             id="textext-b61907ac-9"
             overflow="visible"
             style="overflow:visible">
            <path
               id="path5847"
               d="m 2.875,-2.5 c 0,-0.765625 -0.109375,-1.96875 -0.65625,-3.109375 -0.59375,-1.21875 -1.453125,-1.875 -1.546875,-1.875 -0.0625,0 -0.109375,0.046875 -0.109375,0.109375 0,0.03125 0,0.046875 0.1875,0.234375 0.984375,0.984375 1.546875,2.5625 1.546875,4.640625 0,1.71875 -0.359375,3.46875 -1.59375,4.71875 C 0.5625,2.34375 0.5625,2.359375 0.5625,2.390625 0.5625,2.453125 0.609375,2.5 0.671875,2.5 0.765625,2.5 1.671875,1.8125 2.25,0.546875 2.765625,-0.546875 2.875,-1.65625 2.875,-2.5 Z m 0,0"
               style="stroke:none"
               inkscape:connector-curvature="0" />
          </symbol>
        </g>
      </defs>
      <g
         id="textext-b61907ac-10">
        <g
           id="g5856"
           style="fill:#000000;fill-opacity:1">
          <use
             id="use5854"
             y="134.765"
             x="223.43201"
             xlink:href="#textext-b61907ac-1"
             width="100%"
             height="100%" />
        </g>
        <g
           id="g5864"
           style="fill:#000000;fill-opacity:1">
          <use
             id="use5858"
             y="136.259"
             x="229.125"
             xlink:href="#textext-b61907ac-4"
             width="100%"
             height="100%" />
          <use
             id="use5860"
             y="136.259"
             x="232.2381"
             xlink:href="#textext-b61907ac-5"
             width="100%"
             height="100%" />
          <use
             id="use5862"
             y="136.259"
             x="235.78009"
             xlink:href="#textext-b61907ac-6"
             width="100%"
             height="100%" />
        </g>
        <g
           id="g5868"
           style="fill:#000000;fill-opacity:1">
          <use
             id="use5866"
             y="134.765"
             x="240.35699"
             xlink:href="#textext-b61907ac-8"
             width="100%"
             height="100%" />
        </g>
        <g
           id="g5872"
           style="fill:#000000;fill-opacity:1">
          <use
             id="use5870"
             y="134.765"
             x="244.231"
             xlink:href="#textext-b61907ac-2"
             width="100%"
             height="100%" />
        </g>
        <g
           id="g5876"
           style="fill:#000000;fill-opacity:1">
          <use
             id="use5874"
             y="134.765"
             x="250.78999"
             xlink:href="#textext-b61907ac-9"
             width="100%"
             height="100%" />
        </g>
      </g>
    </g>
  </g>
</svg>
