<?xml version="1.0" encoding="UTF-8" standalone="no"?>
<!-- Created with Inkscape (http://www.inkscape.org/) -->

<svg
   xmlns:ns0="http://www.iki.fi/pav/software/textext/"
   xmlns:dc="http://purl.org/dc/elements/1.1/"
   xmlns:cc="http://creativecommons.org/ns#"
   xmlns:rdf="http://www.w3.org/1999/02/22-rdf-syntax-ns#"
   xmlns:svg="http://www.w3.org/2000/svg"
   xmlns="http://www.w3.org/2000/svg"
   xmlns:xlink="http://www.w3.org/1999/xlink"
   xmlns:sodipodi="http://sodipodi.sourceforge.net/DTD/sodipodi-0.dtd"
   xmlns:inkscape="http://www.inkscape.org/namespaces/inkscape"
   version="1.1"
   id="svg2"
   xml:space="preserve"
   width="480"
   height="288"
   viewBox="0 0 480 288"
   sodipodi:docname="dependence_integrand.svg"
   inkscape:version="0.92.1 r15371"><sodipodi:namedview
     pagecolor="#ffffff"
     bordercolor="#666666"
     borderopacity="1"
     objecttolerance="10"
     gridtolerance="10"
     guidetolerance="10"
     inkscape:pageopacity="0"
     inkscape:pageshadow="2"
     inkscape:window-width="1600"
     inkscape:window-height="1134"
     id="namedview4"
     showgrid="false"
     inkscape:zoom="1.6388889"
     inkscape:cx="211.31252"
     inkscape:cy="39.31719"
     inkscape:window-x="0"
     inkscape:window-y="27"
     inkscape:window-maximized="1"
     inkscape:current-layer="g5074" /><metadata
     id="metadata8"><rdf:RDF><cc:Work
         rdf:about=""><dc:format>image/svg+xml</dc:format><dc:type
           rdf:resource="http://purl.org/dc/dcmitype/StillImage" /><dc:title /></cc:Work></rdf:RDF></metadata><defs
     id="defs6" /><g
     id="g10"
     inkscape:groupmode="layer"
     inkscape:label="dependence_integrand"
     transform="matrix(1.3333333,0,0,-1.3333333,0,288)"><g
       id="g5074"><g
         transform="matrix(0.77441956,0,0,0.77441956,32.590658,20.296991)"
         id="g12" /><g
         id="g5070"><path
           d="m 50.444901,31.148155 0.07822,0.04182 0.07899,0.0395 0.471622,0.245491 0.626505,0.326031 1.252237,0.656708 2.50757,1.310317 5.436426,2.852188 5.073222,2.67407 4.975646,2.632253 5.39693,2.870773 5.036825,2.688785 5.460432,2.925757 5.357435,2.885487 5.000427,2.704273 5.420932,2.943569 5.06083,2.759257 4.96094,2.718987 5.38144,2.959057 5.02211,2.773971 5.44494,3.021785 5.34505,2.976869 4.98261,2.788685 5.40855,3.037274 5.04612,2.846766 5.46662,3.100776 5.36905,3.055085 5.00663,2.862255 5.43023,3.11549 5.07012,2.922659 4.97023,2.876197 5.38996,3.13408 5.03372,2.93737 5.45192,3.19448 5.35433,3.15266 4.99424,2.94899 5.41474,3.21539 5.05463,3.01327 4.95552,2.96448 5.37524,3.23088 5.01902,3.02488 5.43874,3.29748 5.07942,3.08838 4.97565,3.04037 5.40312,3.31297 5.03993,3.1031 5.46353,3.37957 5.35975,3.33 5.00353,3.11936 5.42403,3.39428 5.06393,3.18519 4.96481,3.13408 5.38763,3.41209 5.02444,3.19758 0.0875,0.0542 0.0875,0.0573 1.22823,0.78371 1.40092,0.89523 0.0875,0.055 0.0875,0.0573 1.22823,0.78371 0.0883,0.0573 0.0875,0.0542 0.52661,0.3361 0.17502,0.11461 0.17579,0.11229 0.0875,0.0542 0.0875,0.0573 0.0883,0.055 0.0875,0.0573"
           style="fill:none;stroke:#000000;stroke-width:1.54883909;stroke-linecap:square;stroke-linejoin:miter;stroke-miterlimit:3.25;stroke-dasharray:3.09767828, 3.09767828;stroke-dashoffset:0;stroke-opacity:1"
           id="path14"
           inkscape:connector-curvature="0" /><path
           d="M 50.42012,31.148155 V 34.29075"
           style="fill:none;stroke:#000000;stroke-width:0.38720977;stroke-linecap:butt;stroke-linejoin:miter;stroke-miterlimit:3.25;stroke-dasharray:none;stroke-opacity:1"
           id="path16"
           inkscape:connector-curvature="0" /><path
           d="m 63.192622,31.148155 v 1.887261"
           style="fill:none;stroke:#000000;stroke-width:0.38720977;stroke-linecap:butt;stroke-linejoin:miter;stroke-miterlimit:3.25;stroke-dasharray:none;stroke-opacity:1"
           id="path18"
           inkscape:connector-curvature="0" /><path
           d="m 75.964349,31.148155 v 1.887261"
           style="fill:none;stroke:#000000;stroke-width:0.38720977;stroke-linecap:butt;stroke-linejoin:miter;stroke-miterlimit:3.25;stroke-dasharray:none;stroke-opacity:1"
           id="path20"
           inkscape:connector-curvature="0" /><path
           d="m 88.736077,31.148155 v 1.887261"
           style="fill:none;stroke:#000000;stroke-width:0.38720977;stroke-linecap:butt;stroke-linejoin:miter;stroke-miterlimit:3.25;stroke-dasharray:none;stroke-opacity:1"
           id="path22"
           inkscape:connector-curvature="0" /><path
           d="M 101.5109,31.148155 V 34.29075"
           style="fill:none;stroke:#000000;stroke-width:0.38720977;stroke-linecap:butt;stroke-linejoin:miter;stroke-miterlimit:3.25;stroke-dasharray:none;stroke-opacity:1"
           id="path24"
           inkscape:connector-curvature="0" /><g
           id="text28"
           style="font-variant:normal;font-size:6.96977615px;font-family:CairoFont-0;-inkscape-font-specification:CairoFont-0-0;writing-mode:lr-tb;fill:#000000;fill-opacity:1;fill-rule:nonzero;stroke:none;stroke-width:0.77441955"
           transform="scale(1,-1)"
           aria-label="2"><path
             id="path4792"
             style="stroke-width:0.77441955"
             d="m 100.90877,-23.099344 h 2.39927 v 0.578546 h -3.22625 v -0.578546 q 0.39137,-0.404982 1.06521,-1.085624 0.67724,-0.684045 0.8508,-0.881432 0.33011,-0.37095 0.45943,-0.62619 0.13273,-0.258644 0.13273,-0.507079 0,-0.404982 -0.28587,-0.660223 -0.28247,-0.255241 -0.7385,-0.255241 -0.3233,0 -0.68404,0.112306 -0.35734,0.112306 -0.76572,0.340321 v -0.694255 q 0.41519,-0.166757 0.77593,-0.251837 0.36074,-0.08508 0.66022,-0.08508 0.78955,0 1.25919,0.394772 0.46964,0.394772 0.46964,1.054995 0,0.313096 -0.11911,0.595562 -0.11571,0.279064 -0.4254,0.660223 -0.0851,0.09869 -0.54111,0.57174 -0.45603,0.469643 -1.28642,1.317042 z" /></g><path
           d="m 114.28263,31.148155 v 1.887261"
           style="fill:none;stroke:#000000;stroke-width:0.38720977;stroke-linecap:butt;stroke-linejoin:miter;stroke-miterlimit:3.25;stroke-dasharray:none;stroke-opacity:1"
           id="path30"
           inkscape:connector-curvature="0" /><path
           d="m 127.05436,31.148155 v 1.887261"
           style="fill:none;stroke:#000000;stroke-width:0.38720977;stroke-linecap:butt;stroke-linejoin:miter;stroke-miterlimit:3.25;stroke-dasharray:none;stroke-opacity:1"
           id="path32"
           inkscape:connector-curvature="0" /><path
           d="m 139.82686,31.148155 v 1.887261"
           style="fill:none;stroke:#000000;stroke-width:0.38720977;stroke-linecap:butt;stroke-linejoin:miter;stroke-miterlimit:3.25;stroke-dasharray:none;stroke-opacity:1"
           id="path34"
           inkscape:connector-curvature="0" /><g
           id="text52"
           style="font-variant:normal;font-size:6.96977615px;font-family:CairoFont-0;-inkscape-font-specification:CairoFont-0-0;writing-mode:lr-tb;fill:#000000;fill-opacity:1;fill-rule:nonzero;stroke:none;stroke-width:0.77441955"
           transform="scale(1,-1)"
           aria-label="6"><path
             id="path4789"
             style="stroke-width:0.77441955"
             d="m 204.05022,-25.335253 q -0.46284,0 -0.73509,0.316498 -0.26886,0.316499 -0.26886,0.867819 0,0.547917 0.26886,0.867819 0.27225,0.316499 0.73509,0.316499 0.46284,0 0.73169,-0.316499 0.27226,-0.319902 0.27226,-0.867819 0,-0.55132 -0.27226,-0.867819 -0.26885,-0.316498 -0.73169,-0.316498 z m 1.36469,-2.154233 v 0.626191 q -0.25865,-0.122516 -0.5241,-0.187177 -0.26204,-0.06466 -0.52069,-0.06466 -0.68064,0 -1.04138,0.459434 -0.35734,0.459433 -0.40839,1.38851 0.20079,-0.296079 0.50368,-0.452627 0.30288,-0.159951 0.66703,-0.159951 0.76572,0 1.20814,0.46624 0.44582,0.462837 0.44582,1.262591 0,0.782739 -0.46284,1.255785 -0.46283,0.473046 -1.23196,0.473046 -0.88143,0 -1.34767,-0.673835 -0.46624,-0.677239 -0.46624,-1.96025 0,-1.204737 0.57174,-1.919411 0.57174,-0.718077 1.53485,-0.718077 0.25864,0 0.52069,0.05105 0.26545,0.05105 0.55132,0.153144 z" /></g><path
           d="m 216.4611,31.148155 v 1.887261"
           style="fill:none;stroke:#000000;stroke-width:0.38720977;stroke-linecap:butt;stroke-linejoin:miter;stroke-miterlimit:3.25;stroke-dasharray:none;stroke-opacity:1"
           id="path54"
           inkscape:connector-curvature="0" /><path
           d="m 229.23282,31.148155 v 1.887261"
           style="fill:none;stroke:#000000;stroke-width:0.38720977;stroke-linecap:butt;stroke-linejoin:miter;stroke-miterlimit:3.25;stroke-dasharray:none;stroke-opacity:1"
           id="path56"
           inkscape:connector-curvature="0" /><path
           d="m 242.00455,31.148155 v 1.887261"
           style="fill:none;stroke:#000000;stroke-width:0.38720977;stroke-linecap:butt;stroke-linejoin:miter;stroke-miterlimit:3.25;stroke-dasharray:none;stroke-opacity:1"
           id="path58"
           inkscape:connector-curvature="0" /><path
           d="M 254.77628,31.148155 V 34.29075"
           style="fill:none;stroke:#000000;stroke-width:0.38720977;stroke-linecap:butt;stroke-linejoin:miter;stroke-miterlimit:3.25;stroke-dasharray:none;stroke-opacity:1"
           id="path60"
           inkscape:connector-curvature="0" /><g
           id="text64"
           style="font-variant:normal;font-size:6.96977615px;font-family:CairoFont-0;-inkscape-font-specification:CairoFont-0-0;writing-mode:lr-tb;fill:#000000;fill-opacity:1;fill-rule:nonzero;stroke:none;stroke-width:0.77441955"
           transform="scale(1,-1)"
           aria-label="8"><path
             id="path4786"
             style="stroke-width:0.77441955"
             d="m 255.05433,-24.933674 q -0.49007,0 -0.77253,0.262047 -0.27907,0.262047 -0.27907,0.721481 0,0.459433 0.27907,0.72148 0.28246,0.262048 0.77253,0.262048 0.49006,0 0.77253,-0.262048 0.28246,-0.26545 0.28246,-0.72148 0,-0.459434 -0.28246,-0.721481 -0.27907,-0.262047 -0.77253,-0.262047 z m -0.68745,-0.292676 q -0.44242,-0.108903 -0.69085,-0.411789 -0.24503,-0.302886 -0.24503,-0.738497 0,-0.609175 0.4322,-0.963109 0.43561,-0.353933 1.19113,-0.353933 0.75891,0 1.19112,0.353933 0.43221,0.353934 0.43221,0.963109 0,0.435611 -0.24844,0.738497 -0.24503,0.302886 -0.68404,0.411789 0.49687,0.115709 0.77253,0.452627 0.27906,0.336917 0.27906,0.823577 0,0.738496 -0.45263,1.133269 -0.44922,0.394772 -1.28981,0.394772 -0.8406,0 -1.29322,-0.394772 -0.44923,-0.394773 -0.44923,-1.133269 0,-0.48666 0.27907,-0.823577 0.27906,-0.336918 0.77593,-0.452627 z m -0.25184,-1.085625 q 0,0.394773 0.24503,0.615981 0.24844,0.221209 0.69426,0.221209 0.44241,0 0.69085,-0.221209 0.25184,-0.221208 0.25184,-0.615981 0,-0.394772 -0.25184,-0.615981 -0.24844,-0.221209 -0.69085,-0.221209 -0.44582,0 -0.69426,0.221209 -0.24503,0.221209 -0.24503,0.615981 z" /></g><path
           d="m 267.54801,31.148155 v 1.887261"
           style="fill:none;stroke:#000000;stroke-width:0.38720977;stroke-linecap:butt;stroke-linejoin:miter;stroke-miterlimit:3.25;stroke-dasharray:none;stroke-opacity:1"
           id="path66"
           inkscape:connector-curvature="0" /><path
           d="m 280.32051,31.148155 v 1.887261"
           style="fill:none;stroke:#000000;stroke-width:0.38720977;stroke-linecap:butt;stroke-linejoin:miter;stroke-miterlimit:3.25;stroke-dasharray:none;stroke-opacity:1"
           id="path68"
           inkscape:connector-curvature="0" /><path
           d="m 293.09533,31.148155 v 1.887261"
           style="fill:none;stroke:#000000;stroke-width:0.38720977;stroke-linecap:butt;stroke-linejoin:miter;stroke-miterlimit:3.25;stroke-dasharray:none;stroke-opacity:1"
           id="path70"
           inkscape:connector-curvature="0" /><g
           id="g4787"
           transform="matrix(0.77441957,0,0,0.77441957,32.590658,20.296988)"><path
             inkscape:connector-curvature="0"
             id="path36"
             style="fill:none;stroke:#000000;stroke-width:0.5;stroke-linecap:butt;stroke-linejoin:miter;stroke-miterlimit:3.25;stroke-dasharray:none;stroke-opacity:1"
             d="M 154.965,14.012 V 18.07" /><g
             id="text40"
             style="font-variant:normal;font-size:9px;font-family:CairoFont-0;-inkscape-font-specification:CairoFont-0-0;writing-mode:lr-tb;fill:#000000;fill-opacity:1;fill-rule:nonzero;stroke:none"
             transform="matrix(1,0,0,-1,152.46235,2.871582)"
             aria-label="4"><path
               id="path4783"
               style=""
               d="m 3.4013672,-5.7875977 -2.241211,3.5024414 h 2.241211 z M 3.168457,-6.5610352 h 1.116211 v 4.2758789 H 5.2207031 V -1.546875 H 4.284668 V 0 H 3.4013672 V -1.546875 H 0.43945313 v -0.8569336 z" /></g><path
             inkscape:connector-curvature="0"
             id="path42"
             style="fill:none;stroke:#000000;stroke-width:0.5;stroke-linecap:butt;stroke-linejoin:miter;stroke-miterlimit:3.25;stroke-dasharray:none;stroke-opacity:1"
             d="m 171.457,14.012 v 2.437" /><path
             inkscape:connector-curvature="0"
             id="path44"
             style="fill:none;stroke:#000000;stroke-width:0.5;stroke-linecap:butt;stroke-linejoin:miter;stroke-miterlimit:3.25;stroke-dasharray:none;stroke-opacity:1"
             d="m 187.949,14.012 v 2.437" /><path
             inkscape:connector-curvature="0"
             id="path46"
             style="fill:none;stroke:#000000;stroke-width:0.5;stroke-linecap:butt;stroke-linejoin:miter;stroke-miterlimit:3.25;stroke-dasharray:none;stroke-opacity:1"
             d="m 204.445,14.012 v 2.437" /><path
             inkscape:connector-curvature="0"
             id="path48"
             style="fill:none;stroke:#000000;stroke-width:0.5;stroke-linecap:butt;stroke-linejoin:miter;stroke-miterlimit:3.25;stroke-dasharray:none;stroke-opacity:1"
             d="M 220.938,14.012 V 18.07" /><path
             inkscape:connector-curvature="0"
             id="path72"
             style="fill:none;stroke:#000000;stroke-width:0.5;stroke-linecap:butt;stroke-linejoin:miter;stroke-miterlimit:3.25;stroke-dasharray:none;stroke-opacity:1"
             d="M 16.152,14.012 H 350.395" /></g><path
           d="m 303.20461,33.250704 0.11848,-0.239295 0.25711,-0.57462 0.1332,-0.345391 0.11771,-0.347714 0.0813,-0.323708 0.031,-0.271821 -0.031,-0.245491 -0.0813,-0.32061 -0.11771,-0.360105 -0.1332,-0.365526 -0.25711,-0.626505 -0.11848,-0.266401 7.98349,2.184638 z"
           style="fill:#000000;fill-opacity:1;fill-rule:nonzero;stroke:#000000;stroke-width:0.02323259;stroke-linecap:square;stroke-linejoin:miter;stroke-miterlimit:3.25;stroke-dasharray:none;stroke-opacity:1"
           id="path74"
           inkscape:connector-curvature="0" /><path
           d="m 50.42012,23.751674 h 1.888035"
           style="fill:none;stroke:#000000;stroke-width:0.38720977;stroke-linecap:butt;stroke-linejoin:miter;stroke-miterlimit:3.25;stroke-dasharray:none;stroke-opacity:1"
           id="path76"
           inkscape:connector-curvature="0" /><path
           d="m 50.42012,30.482154 h 1.888035"
           style="fill:none;stroke:#000000;stroke-width:0.38720977;stroke-linecap:butt;stroke-linejoin:miter;stroke-miterlimit:3.25;stroke-dasharray:none;stroke-opacity:1"
           id="path78"
           inkscape:connector-curvature="0" /><path
           d="m 50.42012,37.213409 h 1.888035"
           style="fill:none;stroke:#000000;stroke-width:0.38720977;stroke-linecap:butt;stroke-linejoin:miter;stroke-miterlimit:3.25;stroke-dasharray:none;stroke-opacity:1"
           id="path80"
           inkscape:connector-curvature="0" /><path
           d="m 50.42012,43.94389 h 3.143369"
           style="fill:none;stroke:#000000;stroke-width:0.38720977;stroke-linecap:butt;stroke-linejoin:miter;stroke-miterlimit:3.25;stroke-dasharray:none;stroke-opacity:1"
           id="path82"
           inkscape:connector-curvature="0" /><g
           id="text86"
           style="font-variant:normal;font-size:6.96977615px;font-family:CairoFont-0;-inkscape-font-specification:CairoFont-0-0;writing-mode:lr-tb;fill:#000000;fill-opacity:1;fill-rule:nonzero;stroke:none;stroke-width:0.77441955"
           transform="scale(1,-1)"
           aria-label="4700"><path
             id="path4774"
             style="stroke-width:0.77441955"
             d="m 35.224742,-46.012112 -1.735638,2.71236 h 1.735638 z m -0.180371,-0.598965 h 0.864416 v 3.311325 h 0.724884 v 0.571739 h -0.724884 v 1.19793 h -0.684045 v -1.19793 h -2.293765 v -0.663626 z" /><path
             id="path4776"
             style="stroke-width:0.77441955"
             d="m 37.037594,-46.611077 h 3.267083 v 0.292676 l -1.844541,4.788318 h -0.718077 l 1.735637,-4.502448 h -2.440102 z" /><path
             id="path4778"
             style="stroke-width:0.77441955"
             d="m 42.55654,-46.15845 q -0.530901,0 -0.799755,0.524095 -0.26545,0.520691 -0.26545,1.56888 0,1.044786 0.26545,1.56888 0.268854,0.520692 0.799755,0.520692 0.534304,0 0.799754,-0.520692 0.268854,-0.524094 0.268854,-1.56888 0,-1.048189 -0.268854,-1.56888 -0.26545,-0.524095 -0.799754,-0.524095 z m 0,-0.544513 q 0.854206,0 1.303429,0.677239 0.452627,0.673835 0.452627,1.960249 0,1.283011 -0.452627,1.96025 -0.449223,0.673835 -1.303429,0.673835 -0.854206,0 -1.306833,-0.673835 -0.449224,-0.677239 -0.449224,-1.96025 0,-1.286414 0.449224,-1.960249 0.452627,-0.677239 1.306833,-0.677239 z" /><path
             id="path4780"
             style="stroke-width:0.77441955"
             d="m 46.431734,-46.15845 q -0.530901,0 -0.799754,0.524095 -0.265451,0.520691 -0.265451,1.56888 0,1.044786 0.265451,1.56888 0.268853,0.520692 0.799754,0.520692 0.534304,0 0.799755,-0.520692 0.268853,-0.524094 0.268853,-1.56888 0,-1.048189 -0.268853,-1.56888 -0.265451,-0.524095 -0.799755,-0.524095 z m 0,-0.544513 q 0.854206,0 1.30343,0.677239 0.452627,0.673835 0.452627,1.960249 0,1.283011 -0.452627,1.96025 -0.449224,0.673835 -1.30343,0.673835 -0.854206,0 -1.306833,-0.673835 -0.449224,-0.677239 -0.449224,-1.96025 0,-1.286414 0.449224,-1.960249 0.452627,-0.677239 1.306833,-0.677239 z" /></g><path
           d="m 50.42012,50.675144 h 1.888035"
           style="fill:none;stroke:#000000;stroke-width:0.38720977;stroke-linecap:butt;stroke-linejoin:miter;stroke-miterlimit:3.25;stroke-dasharray:none;stroke-opacity:1"
           id="path88"
           inkscape:connector-curvature="0" /><path
           d="m 50.42012,57.405625 h 1.888035"
           style="fill:none;stroke:#000000;stroke-width:0.38720977;stroke-linecap:butt;stroke-linejoin:miter;stroke-miterlimit:3.25;stroke-dasharray:none;stroke-opacity:1"
           id="path90"
           inkscape:connector-curvature="0" /><path
           d="m 50.42012,64.136105 h 1.888035"
           style="fill:none;stroke:#000000;stroke-width:0.38720977;stroke-linecap:butt;stroke-linejoin:miter;stroke-miterlimit:3.25;stroke-dasharray:none;stroke-opacity:1"
           id="path92"
           inkscape:connector-curvature="0" /><path
           d="m 50.42012,70.86736 h 1.888035"
           style="fill:none;stroke:#000000;stroke-width:0.38720977;stroke-linecap:butt;stroke-linejoin:miter;stroke-miterlimit:3.25;stroke-dasharray:none;stroke-opacity:1"
           id="path94"
           inkscape:connector-curvature="0" /><path
           d="m 50.42012,77.600939 h 3.143369"
           style="fill:none;stroke:#000000;stroke-width:0.38720977;stroke-linecap:butt;stroke-linejoin:miter;stroke-miterlimit:3.25;stroke-dasharray:none;stroke-opacity:1"
           id="path96"
           inkscape:connector-curvature="0" /><g
           id="text100"
           style="font-variant:normal;font-size:6.96977615px;font-family:CairoFont-0;-inkscape-font-specification:CairoFont-0-0;writing-mode:lr-tb;fill:#000000;fill-opacity:1;fill-rule:nonzero;stroke:none;stroke-width:0.77441955"
           transform="scale(1,-1)"
           aria-label="4800"><path
             id="path4765"
             style="stroke-width:0.77441955"
             d="m 35.224742,-79.667782 -1.735638,2.712359 h 1.735638 z m -0.180371,-0.598965 h 0.864416 v 3.311324 h 0.724884 v 0.57174 h -0.724884 v 1.19793 h -0.684045 v -1.19793 h -2.293765 v -0.663626 z" /><path
             id="path4767"
             style="stroke-width:0.77441955"
             d="m 38.681345,-77.598629 q -0.490062,0 -0.772529,0.262047 -0.279063,0.262047 -0.279063,0.721481 0,0.459433 0.279063,0.72148 0.282467,0.262047 0.772529,0.262047 0.490062,0 0.772529,-0.262047 0.282466,-0.26545 0.282466,-0.72148 0,-0.459434 -0.282466,-0.721481 -0.279063,-0.262047 -0.772529,-0.262047 z m -0.687449,-0.292677 q -0.442417,-0.108902 -0.690851,-0.411788 -0.245032,-0.302886 -0.245032,-0.738497 0,-0.609175 0.432208,-0.963109 0.435611,-0.353934 1.191124,-0.353934 0.758916,0 1.191124,0.353934 0.432208,0.353934 0.432208,0.963109 0,0.435611 -0.248435,0.738497 -0.245031,0.302886 -0.684045,0.411788 0.496869,0.11571 0.772529,0.452627 0.279063,0.336918 0.279063,0.823578 0,0.738496 -0.452627,1.133269 -0.449224,0.394772 -1.289817,0.394772 -0.840593,0 -1.29322,-0.394772 -0.449224,-0.394773 -0.449224,-1.133269 0,-0.48666 0.279063,-0.823578 0.279064,-0.336917 0.775932,-0.452627 z m -0.251837,-1.085624 q 0,0.394773 0.245031,0.615981 0.248434,0.221209 0.694255,0.221209 0.442417,0 0.690852,-0.221209 0.251837,-0.221208 0.251837,-0.615981 0,-0.394772 -0.251837,-0.615981 -0.248435,-0.221209 -0.690852,-0.221209 -0.445821,0 -0.694255,0.221209 -0.245031,0.221209 -0.245031,0.615981 z" /><path
             id="path4769"
             style="stroke-width:0.77441955"
             d="m 42.55654,-79.81412 q -0.530901,0 -0.799755,0.524095 -0.26545,0.520691 -0.26545,1.56888 0,1.044786 0.26545,1.56888 0.268854,0.520691 0.799755,0.520691 0.534304,0 0.799754,-0.520691 0.268854,-0.524094 0.268854,-1.56888 0,-1.048189 -0.268854,-1.56888 -0.26545,-0.524095 -0.799754,-0.524095 z m 0,-0.544514 q 0.854206,0 1.303429,0.677239 0.452627,0.673836 0.452627,1.96025 0,1.28301 -0.452627,1.960249 -0.449223,0.673836 -1.303429,0.673836 -0.854206,0 -1.306833,-0.673836 -0.449224,-0.677239 -0.449224,-1.960249 0,-1.286414 0.449224,-1.96025 0.452627,-0.677239 1.306833,-0.677239 z" /><path
             id="path4771"
             style="stroke-width:0.77441955"
             d="m 46.431734,-79.81412 q -0.530901,0 -0.799754,0.524095 -0.265451,0.520691 -0.265451,1.56888 0,1.044786 0.265451,1.56888 0.268853,0.520691 0.799754,0.520691 0.534304,0 0.799755,-0.520691 0.268853,-0.524094 0.268853,-1.56888 0,-1.048189 -0.268853,-1.56888 -0.265451,-0.524095 -0.799755,-0.524095 z m 0,-0.544514 q 0.854206,0 1.30343,0.677239 0.452627,0.673836 0.452627,1.96025 0,1.28301 -0.452627,1.960249 -0.449224,0.673836 -1.30343,0.673836 -0.854206,0 -1.306833,-0.673836 -0.449224,-0.677239 -0.449224,-1.960249 0,-1.286414 0.449224,-1.96025 0.452627,-0.677239 1.306833,-0.677239 z" /></g><path
           d="m 50.42012,84.332193 h 1.888035"
           style="fill:none;stroke:#000000;stroke-width:0.38720977;stroke-linecap:butt;stroke-linejoin:miter;stroke-miterlimit:3.25;stroke-dasharray:none;stroke-opacity:1"
           id="path102"
           inkscape:connector-curvature="0" /><path
           d="m 50.42012,91.062674 h 1.888035"
           style="fill:none;stroke:#000000;stroke-width:0.38720977;stroke-linecap:butt;stroke-linejoin:miter;stroke-miterlimit:3.25;stroke-dasharray:none;stroke-opacity:1"
           id="path104"
           inkscape:connector-curvature="0" /><path
           d="m 50.42012,97.793154 h 1.888035"
           style="fill:none;stroke:#000000;stroke-width:0.38720977;stroke-linecap:butt;stroke-linejoin:miter;stroke-miterlimit:3.25;stroke-dasharray:none;stroke-opacity:1"
           id="path106"
           inkscape:connector-curvature="0" /><path
           d="m 50.42012,104.52441 h 1.888035"
           style="fill:none;stroke:#000000;stroke-width:0.38720977;stroke-linecap:butt;stroke-linejoin:miter;stroke-miterlimit:3.25;stroke-dasharray:none;stroke-opacity:1"
           id="path108"
           inkscape:connector-curvature="0" /><path
           d="m 50.42012,111.25489 h 3.143369"
           style="fill:none;stroke:#000000;stroke-width:0.38720977;stroke-linecap:butt;stroke-linejoin:miter;stroke-miterlimit:3.25;stroke-dasharray:none;stroke-opacity:1"
           id="path110"
           inkscape:connector-curvature="0" /><g
           id="text114"
           style="font-variant:normal;font-size:6.96977615px;font-family:CairoFont-0;-inkscape-font-specification:CairoFont-0-0;writing-mode:lr-tb;fill:#000000;fill-opacity:1;fill-rule:nonzero;stroke:none;stroke-width:0.77441955"
           transform="scale(1,-1)"
           aria-label="4900"><path
             id="path4756"
             style="stroke-width:0.77441955"
             d="m 35.224742,-113.32347 -1.735638,2.71236 h 1.735638 z m -0.180371,-0.59896 h 0.864416 v 3.31132 h 0.724884 v 0.57174 h -0.724884 v 1.19793 h -0.684045 v -1.19793 h -2.293765 v -0.66362 z" /><path
             id="path4758"
             style="stroke-width:0.77441955"
             d="m 37.231577,-108.94694 v -0.62619 q 0.258644,0.12252 0.524095,0.18718 0.26545,0.0647 0.520691,0.0647 0.680642,0 1.037979,-0.45603 0.360741,-0.45943 0.411789,-1.39191 -0.197386,0.29267 -0.500272,0.44922 -0.302886,0.15655 -0.670433,0.15655 -0.762319,0 -1.20814,-0.45944 -0.442417,-0.46283 -0.442417,-1.26259 0,-0.78274 0.462837,-1.25578 0.462836,-0.47305 1.231962,-0.47305 0.881432,0 1.344268,0.67724 0.46624,0.67384 0.46624,1.96025 0,1.20133 -0.571739,1.91941 -0.568336,0.71467 -1.531445,0.71467 -0.258644,0 -0.524095,-0.051 -0.26545,-0.0511 -0.55132,-0.15315 z m 1.368091,-2.15423 q 0.462837,0 0.73169,-0.3165 0.272257,-0.3165 0.272257,-0.86782 0,-0.54791 -0.272257,-0.86441 -0.268853,-0.31991 -0.73169,-0.31991 -0.462837,0 -0.735094,0.31991 -0.268853,0.3165 -0.268853,0.86441 0,0.55132 0.268853,0.86782 0.272257,0.3165 0.735094,0.3165 z" /><path
             id="path4760"
             style="stroke-width:0.77441955"
             d="m 42.55654,-113.46981 q -0.530901,0 -0.799755,0.5241 -0.26545,0.52069 -0.26545,1.56888 0,1.04479 0.26545,1.56888 0.268854,0.52069 0.799755,0.52069 0.534304,0 0.799754,-0.52069 0.268854,-0.52409 0.268854,-1.56888 0,-1.04819 -0.268854,-1.56888 -0.26545,-0.5241 -0.799754,-0.5241 z m 0,-0.54451 q 0.854206,0 1.303429,0.67724 0.452627,0.67384 0.452627,1.96025 0,1.28301 -0.452627,1.96025 -0.449223,0.67383 -1.303429,0.67383 -0.854206,0 -1.306833,-0.67383 -0.449224,-0.67724 -0.449224,-1.96025 0,-1.28641 0.449224,-1.96025 0.452627,-0.67724 1.306833,-0.67724 z" /><path
             id="path4762"
             style="stroke-width:0.77441955"
             d="m 46.431734,-113.46981 q -0.530901,0 -0.799754,0.5241 -0.265451,0.52069 -0.265451,1.56888 0,1.04479 0.265451,1.56888 0.268853,0.52069 0.799754,0.52069 0.534304,0 0.799755,-0.52069 0.268853,-0.52409 0.268853,-1.56888 0,-1.04819 -0.268853,-1.56888 -0.265451,-0.5241 -0.799755,-0.5241 z m 0,-0.54451 q 0.854206,0 1.30343,0.67724 0.452627,0.67384 0.452627,1.96025 0,1.28301 -0.452627,1.96025 -0.449224,0.67383 -1.30343,0.67383 -0.854206,0 -1.306833,-0.67383 -0.449224,-0.67724 -0.449224,-1.96025 0,-1.28641 0.449224,-1.96025 0.452627,-0.67724 1.306833,-0.67724 z" /></g><path
           d="m 50.42012,117.98614 h 1.888035"
           style="fill:none;stroke:#000000;stroke-width:0.38720977;stroke-linecap:butt;stroke-linejoin:miter;stroke-miterlimit:3.25;stroke-dasharray:none;stroke-opacity:1"
           id="path116"
           inkscape:connector-curvature="0" /><path
           d="m 50.42012,124.71663 h 1.888035"
           style="fill:none;stroke:#000000;stroke-width:0.38720977;stroke-linecap:butt;stroke-linejoin:miter;stroke-miterlimit:3.25;stroke-dasharray:none;stroke-opacity:1"
           id="path118"
           inkscape:connector-curvature="0" /><path
           d="m 50.42012,131.44711 h 1.888035"
           style="fill:none;stroke:#000000;stroke-width:0.38720977;stroke-linecap:butt;stroke-linejoin:miter;stroke-miterlimit:3.25;stroke-dasharray:none;stroke-opacity:1"
           id="path120"
           inkscape:connector-curvature="0" /><path
           d="m 50.42012,138.18146 h 1.888035"
           style="fill:none;stroke:#000000;stroke-width:0.38720977;stroke-linecap:butt;stroke-linejoin:miter;stroke-miterlimit:3.25;stroke-dasharray:none;stroke-opacity:1"
           id="path122"
           inkscape:connector-curvature="0" /><path
           d="m 50.42012,144.91194 h 3.143369"
           style="fill:none;stroke:#000000;stroke-width:0.38720977;stroke-linecap:butt;stroke-linejoin:miter;stroke-miterlimit:3.25;stroke-dasharray:none;stroke-opacity:1"
           id="path124"
           inkscape:connector-curvature="0" /><g
           id="text128"
           style="font-variant:normal;font-size:6.96977615px;font-family:CairoFont-0;-inkscape-font-specification:CairoFont-0-0;writing-mode:lr-tb;fill:#000000;fill-opacity:1;fill-rule:nonzero;stroke:none;stroke-width:0.77441955"
           transform="scale(1,-1)"
           aria-label="5000"><path
             id="path4747"
             style="stroke-width:0.77441955"
             d="m 33.342766,-147.57811 h 2.698746 v 0.57855 H 33.97236 v 1.24557 q 0.149741,-0.0511 0.299483,-0.0749 0.149741,-0.0272 0.299482,-0.0272 0.850803,0 1.347672,0.46624 0.496868,0.46624 0.496868,1.2626 0,0.82017 -0.510481,1.2762 -0.510482,0.45263 -1.439558,0.45263 -0.319902,0 -0.653417,-0.0545 -0.330111,-0.0545 -0.684045,-0.16336 v -0.69085 q 0.306289,0.16676 0.632997,0.24843 0.326708,0.0817 0.690852,0.0817 0.588755,0 0.93248,-0.30969 0.343724,-0.30969 0.343724,-0.84059 0,-0.53091 -0.343724,-0.8406 -0.343725,-0.30969 -0.93248,-0.30969 -0.27566,0 -0.55132,0.0613 -0.272257,0.0613 -0.558127,0.19058 z" /><path
             id="path4749"
             style="stroke-width:0.77441955"
             d="m 38.681345,-147.12548 q -0.530901,0 -0.799755,0.52409 -0.26545,0.52069 -0.26545,1.56888 0,1.04479 0.26545,1.56888 0.268854,0.52069 0.799755,0.52069 0.534304,0 0.799755,-0.52069 0.268853,-0.52409 0.268853,-1.56888 0,-1.04819 -0.268853,-1.56888 -0.265451,-0.52409 -0.799755,-0.52409 z m 0,-0.54452 q 0.854206,0 1.30343,0.67724 0.452627,0.67384 0.452627,1.96025 0,1.28301 -0.452627,1.96025 -0.449224,0.67384 -1.30343,0.67384 -0.854206,0 -1.306833,-0.67384 -0.449224,-0.67724 -0.449224,-1.96025 0,-1.28641 0.449224,-1.96025 0.452627,-0.67724 1.306833,-0.67724 z" /><path
             id="path4751"
             style="stroke-width:0.77441955"
             d="m 42.55654,-147.12548 q -0.530901,0 -0.799755,0.52409 -0.26545,0.52069 -0.26545,1.56888 0,1.04479 0.26545,1.56888 0.268854,0.52069 0.799755,0.52069 0.534304,0 0.799754,-0.52069 0.268854,-0.52409 0.268854,-1.56888 0,-1.04819 -0.268854,-1.56888 -0.26545,-0.52409 -0.799754,-0.52409 z m 0,-0.54452 q 0.854206,0 1.303429,0.67724 0.452627,0.67384 0.452627,1.96025 0,1.28301 -0.452627,1.96025 -0.449223,0.67384 -1.303429,0.67384 -0.854206,0 -1.306833,-0.67384 -0.449224,-0.67724 -0.449224,-1.96025 0,-1.28641 0.449224,-1.96025 0.452627,-0.67724 1.306833,-0.67724 z" /><path
             id="path4753"
             style="stroke-width:0.77441955"
             d="m 46.431734,-147.12548 q -0.530901,0 -0.799754,0.52409 -0.265451,0.52069 -0.265451,1.56888 0,1.04479 0.265451,1.56888 0.268853,0.52069 0.799754,0.52069 0.534304,0 0.799755,-0.52069 0.268853,-0.52409 0.268853,-1.56888 0,-1.04819 -0.268853,-1.56888 -0.265451,-0.52409 -0.799755,-0.52409 z m 0,-0.54452 q 0.854206,0 1.30343,0.67724 0.452627,0.67384 0.452627,1.96025 0,1.28301 -0.452627,1.96025 -0.449224,0.67384 -1.30343,0.67384 -0.854206,0 -1.306833,-0.67384 -0.449224,-0.67724 -0.449224,-1.96025 0,-1.28641 0.449224,-1.96025 0.452627,-0.67724 1.306833,-0.67724 z" /></g><path
           d="m 50.42012,151.64242 h 1.888035"
           style="fill:none;stroke:#000000;stroke-width:0.38720977;stroke-linecap:butt;stroke-linejoin:miter;stroke-miterlimit:3.25;stroke-dasharray:none;stroke-opacity:1"
           id="path130"
           inkscape:connector-curvature="0" /><path
           d="m 50.42012,158.37367 h 1.888035"
           style="fill:none;stroke:#000000;stroke-width:0.38720977;stroke-linecap:butt;stroke-linejoin:miter;stroke-miterlimit:3.25;stroke-dasharray:none;stroke-opacity:1"
           id="path132"
           inkscape:connector-curvature="0" /><path
           d="m 50.42012,165.10415 h 1.888035"
           style="fill:none;stroke:#000000;stroke-width:0.38720977;stroke-linecap:butt;stroke-linejoin:miter;stroke-miterlimit:3.25;stroke-dasharray:none;stroke-opacity:1"
           id="path134"
           inkscape:connector-curvature="0" /><path
           d="m 50.42012,171.83541 h 1.888035"
           style="fill:none;stroke:#000000;stroke-width:0.38720977;stroke-linecap:butt;stroke-linejoin:miter;stroke-miterlimit:3.25;stroke-dasharray:none;stroke-opacity:1"
           id="path136"
           inkscape:connector-curvature="0" /><path
           d="M 50.42012,22.926142 V 180.13332"
           style="fill:none;stroke:#000000;stroke-width:0.38720977;stroke-linecap:butt;stroke-linejoin:miter;stroke-miterlimit:3.25;stroke-dasharray:none;stroke-opacity:1"
           id="path138"
           inkscape:connector-curvature="0" /><path
           d="m 48.320668,179.39452 0.239296,0.11849 0.571522,0.2571 0.345391,0.1332 0.347714,0.11771 0.323707,0.0813 0.271822,0.031 0.248588,-0.031 0.317512,-0.0813 0.360106,-0.11771 0.365526,-0.1332 0.626505,-0.2571 0.2664,-0.11849 -2.184637,7.98349 z"
           style="fill:#000000;fill-opacity:1;fill-rule:nonzero;stroke:#000000;stroke-width:0.02323259;stroke-linecap:square;stroke-linejoin:miter;stroke-miterlimit:3.25;stroke-dasharray:none;stroke-opacity:1"
           id="path140"
           inkscape:connector-curvature="0" /><g
           ns0:text="$r$"
           ns0:preamble=""
           transform="matrix(1.6147734,0,0,-1.6147734,-75.051061,234.00483)"
           id="g6467"><defs
             id="defs6460"><g
               id="g6458"><symbol
                 overflow="visible"
                 id="textext-5b5dd250-0"
                 style="overflow:visible"><path
                   style="stroke:none"
                   d=""
                   id="path6452"
                   inkscape:connector-curvature="0" /></symbol><symbol
                 overflow="visible"
                 id="textext-5b5dd250-1"
                 style="overflow:visible"><path
                   style="stroke:none"
                   d="m 0.875,-0.59375 c -0.03125,0.15625 -0.09375,0.390625 -0.09375,0.4375 0,0.171875 0.140625,0.265625 0.296875,0.265625 0.125,0 0.296875,-0.078125 0.375,-0.28125 C 1.46875,-0.203125 1.796875,-1.5625 1.84375,-1.75 c 0.078125,-0.328125 0.265625,-1.015625 0.3125,-1.296875 0.046875,-0.125 0.328125,-0.59375 0.5625,-0.8125 0.078125,-0.0625 0.375,-0.328125 0.796875,-0.328125 0.265625,0 0.40625,0.125 0.421875,0.125 -0.296875,0.046875 -0.515625,0.28125 -0.515625,0.546875 0,0.15625 0.109375,0.34375 0.375,0.34375 0.265625,0 0.546875,-0.234375 0.546875,-0.59375 0,-0.34375 -0.3125,-0.640625 -0.828125,-0.640625 C 2.875,-4.40625 2.4375,-3.921875 2.25,-3.640625 2.15625,-4.09375 1.796875,-4.40625 1.328125,-4.40625 0.875,-4.40625 0.6875,-4.015625 0.59375,-3.84375 0.421875,-3.5 0.296875,-2.90625 0.296875,-2.875 c 0,0.109375 0.09375,0.109375 0.109375,0.109375 0.109375,0 0.109375,-0.015625 0.171875,-0.234375 0.171875,-0.703125 0.375,-1.1875 0.734375,-1.1875 0.15625,0 0.296875,0.078125 0.296875,0.453125 0,0.21875 -0.03125,0.328125 -0.15625,0.84375 z m 0,0"
                   id="path6455"
                   inkscape:connector-curvature="0" /></symbol></g></defs><g
             id="textext-5b5dd250-2"><g
               style="fill:#000000;fill-opacity:1"
               id="g6464"><use
                 xlink:href="#textext-5b5dd250-1"
                 x="223.43201"
                 y="134.765"
                 id="use6462"
                 width="100%"
                 height="100%" /></g></g></g><path
           inkscape:connector-curvature="0"
           id="path6347"
           d="M 67.500002,169.425 H 102.27967"
           style="fill:none;fill-rule:evenodd;stroke:#000000;stroke-width:1.35000002;stroke-linecap:butt;stroke-linejoin:miter;stroke-miterlimit:4;stroke-dasharray:4.05, 1.35;stroke-dashoffset:0;stroke-opacity:1" /><g
           ns0:text="$\\Big[\\pi - \\frac{\\frac{\\beta r}{\\gamma x}}{1+(\\frac{\\beta r}{\\gamma x})^{2}} - 2\\tan^{-1}\\big(\\frac{\\beta r}{\\gamma x}\\big)\\Big]^{-\\frac{2}{3}}$"
           ns0:preamble=""
           transform="matrix(1.1635124,0,0,-1.1635124,-150.08381,327.41405)"
           id="g7363"><defs
             id="defs7226"><g
               id="g7224"><symbol
                 overflow="visible"
                 id="textext-e9c895b8-0"><path
                   style="stroke:none;"
                   d=""
                   id="path7122" /></symbol><symbol
                 overflow="visible"
                 id="textext-e9c895b8-1"><path
                   style="stroke:none;"
                   d="M 2.25 17.53125 L 4.515625 17.53125 L 4.515625 17.0625 L 2.71875 17.0625 L 2.71875 0.0625 L 4.515625 0.0625 L 4.515625 -0.40625 L 2.25 -0.40625 Z M 2.25 17.53125 "
                   id="path7125" /></symbol><symbol
                 overflow="visible"
                 id="textext-e9c895b8-2"><path
                   style="stroke:none;"
                   d="M 4.109375 11.453125 C 4.109375 11.421875 4.09375 11.390625 4.078125 11.359375 C 3.625 10.875 2.9375 10.0625 2.515625 8.4375 C 2.296875 7.53125 2.203125 6.515625 2.203125 5.578125 C 2.203125 2.953125 2.828125 1.125 4.03125 -0.171875 C 4.109375 -0.265625 4.109375 -0.28125 4.109375 -0.296875 C 4.109375 -0.40625 4.03125 -0.40625 4 -0.40625 C 3.84375 -0.40625 3.3125 0.203125 3.1875 0.34375 C 2.15625 1.5625 1.515625 3.34375 1.515625 5.578125 C 1.515625 6.984375 1.765625 8.984375 3.078125 10.671875 C 3.171875 10.796875 3.8125 11.546875 4 11.546875 C 4.03125 11.546875 4.109375 11.546875 4.109375 11.453125 Z M 4.109375 11.453125 "
                   id="path7128" /></symbol><symbol
                 overflow="visible"
                 id="textext-e9c895b8-3"><path
                   style="stroke:none;"
                   d="M 3.046875 5.578125 C 3.046875 4.171875 2.796875 2.15625 1.484375 0.484375 C 1.390625 0.359375 0.734375 -0.40625 0.5625 -0.40625 C 0.515625 -0.40625 0.4375 -0.375 0.4375 -0.296875 C 0.4375 -0.265625 0.453125 -0.234375 0.5 -0.203125 C 0.984375 0.3125 1.625 1.125 2.03125 2.71875 C 2.265625 3.625 2.359375 4.640625 2.359375 5.578125 C 2.359375 6.578125 2.265625 7.59375 2 8.578125 C 1.625 9.96875 1.03125 10.765625 0.53125 11.328125 C 0.4375 11.421875 0.4375 11.4375 0.4375 11.453125 C 0.4375 11.53125 0.515625 11.546875 0.5625 11.546875 C 0.703125 11.546875 1.25 10.953125 1.375 10.8125 C 2.390625 9.59375 3.046875 7.8125 3.046875 5.578125 Z M 3.046875 5.578125 "
                   id="path7131" /></symbol><symbol
                 overflow="visible"
                 id="textext-e9c895b8-4"><path
                   style="stroke:none;"
                   d="M 1.96875 17.0625 L 0.171875 17.0625 L 0.171875 17.53125 L 2.4375 17.53125 L 2.4375 -0.40625 L 0.171875 -0.40625 L 0.171875 0.0625 L 1.96875 0.0625 Z M 1.96875 17.0625 "
                   id="path7134" /></symbol><symbol
                 overflow="visible"
                 id="textext-e9c895b8-5"><path
                   style="stroke:none;"
                   d=""
                   id="path7137" /></symbol><symbol
                 overflow="visible"
                 id="textext-e9c895b8-6"><path
                   style="stroke:none;"
                   d="M 2.640625 -3.71875 L 3.765625 -3.71875 C 3.4375 -2.25 3.34375 -1.8125 3.34375 -1.140625 C 3.34375 -1 3.34375 -0.734375 3.421875 -0.390625 C 3.53125 0.046875 3.640625 0.109375 3.78125 0.109375 C 3.984375 0.109375 4.203125 -0.0625 4.203125 -0.265625 C 4.203125 -0.328125 4.203125 -0.34375 4.140625 -0.484375 C 3.84375 -1.203125 3.84375 -1.859375 3.84375 -2.140625 C 3.84375 -2.65625 3.921875 -3.203125 4.03125 -3.71875 L 5.15625 -3.71875 C 5.296875 -3.71875 5.65625 -3.71875 5.65625 -4.0625 C 5.65625 -4.296875 5.4375 -4.296875 5.25 -4.296875 L 1.90625 -4.296875 C 1.6875 -4.296875 1.3125 -4.296875 0.875 -3.828125 C 0.53125 -3.4375 0.265625 -2.984375 0.265625 -2.9375 C 0.265625 -2.921875 0.265625 -2.828125 0.390625 -2.828125 C 0.46875 -2.828125 0.484375 -2.875 0.546875 -2.953125 C 1.03125 -3.71875 1.609375 -3.71875 1.8125 -3.71875 L 2.375 -3.71875 C 2.0625 -2.515625 1.53125 -1.3125 1.109375 -0.40625 C 1.03125 -0.25 1.03125 -0.234375 1.03125 -0.15625 C 1.03125 0.03125 1.1875 0.109375 1.3125 0.109375 C 1.609375 0.109375 1.6875 -0.171875 1.8125 -0.53125 C 1.953125 -1 1.953125 -1.015625 2.078125 -1.515625 Z M 2.640625 -3.71875 "
                   id="path7140" /></symbol><symbol
                 overflow="visible"
                 id="textext-e9c895b8-7"><path
                   style="stroke:none;"
                   d=""
                   id="path7143" /></symbol><symbol
                 overflow="visible"
                 id="textext-e9c895b8-8"><path
                   style="stroke:none;"
                   d="M 6.5625 -2.296875 C 6.734375 -2.296875 6.921875 -2.296875 6.921875 -2.5 C 6.921875 -2.6875 6.734375 -2.6875 6.5625 -2.6875 L 1.171875 -2.6875 C 1 -2.6875 0.828125 -2.6875 0.828125 -2.5 C 0.828125 -2.296875 1 -2.296875 1.171875 -2.296875 Z M 6.5625 -2.296875 "
                   id="path7146" /></symbol><symbol
                 overflow="visible"
                 id="textext-e9c895b8-9"><path
                   style="stroke:none;"
                   d=""
                   id="path7149" /></symbol><symbol
                 overflow="visible"
                 id="textext-e9c895b8-10"><path
                   style="stroke:none;"
                   d="M 3.640625 -2.796875 C 3.640625 -3.3125 3.125 -3.515625 2.65625 -3.515625 C 2.03125 -3.515625 1.390625 -2.828125 1.25 -2.25 L 0.46875 0.875 C 0.453125 0.953125 0.5 0.96875 0.578125 0.96875 C 0.625 0.96875 0.65625 0.953125 0.671875 0.890625 L 0.984375 -0.375 L 1 -0.375 C 1.203125 -0.078125 1.46875 0.046875 1.828125 0.046875 C 2.703125 0.046875 3.484375 -0.484375 3.484375 -1.171875 C 3.484375 -1.53125 3.328125 -1.765625 3.046875 -1.96875 C 3.296875 -2.109375 3.640625 -2.390625 3.640625 -2.796875 Z M 2.515625 -1.96875 C 2.421875 -1.9375 2.328125 -1.9375 2.234375 -1.9375 C 2.15625 -1.9375 2.078125 -1.9375 2.015625 -1.953125 C 2.109375 -1.984375 2.203125 -1.984375 2.296875 -1.984375 C 2.375 -1.984375 2.4375 -1.984375 2.515625 -1.96875 Z M 3.265625 -2.875 C 3.265625 -2.5625 3.09375 -2.25 2.8125 -2.078125 C 2.703125 -2.125 2.453125 -2.140625 2.296875 -2.140625 C 2.15625 -2.140625 1.765625 -2.15625 1.765625 -1.9375 C 1.765625 -1.796875 1.9375 -1.765625 2.234375 -1.765625 C 2.5 -1.765625 2.609375 -1.796875 2.796875 -1.859375 C 2.984375 -1.734375 3.0625 -1.515625 3.0625 -1.296875 C 3.0625 -0.609375 2.546875 -0.125 1.859375 -0.125 C 1.484375 -0.125 1.109375 -0.3125 1.109375 -0.75 C 1.109375 -0.78125 1.109375 -0.859375 1.125 -0.921875 L 1.453125 -2.171875 C 1.59375 -2.75 2.09375 -3.34375 2.671875 -3.34375 C 2.9375 -3.34375 3.265625 -3.265625 3.265625 -2.875 Z M 3.265625 -2.875 "
                   id="path7152" /></symbol><symbol
                 overflow="visible"
                 id="textext-e9c895b8-11"><path
                   style="stroke:none;"
                   d="M 1.484375 -0.8125 C 1.5 -0.890625 1.546875 -1.078125 1.5625 -1.15625 C 1.578125 -1.234375 1.609375 -1.3125 1.625 -1.375 C 1.640625 -1.453125 1.796875 -1.71875 1.96875 -1.859375 C 2.140625 -2 2.296875 -2.03125 2.46875 -2.03125 C 2.53125 -2.03125 2.765625 -2.03125 2.9375 -1.953125 C 2.71875 -1.875 2.71875 -1.671875 2.71875 -1.65625 C 2.71875 -1.578125 2.78125 -1.453125 2.9375 -1.453125 C 3.078125 -1.453125 3.25 -1.578125 3.25 -1.796875 C 3.25 -2.15625 2.71875 -2.203125 2.484375 -2.203125 C 2.359375 -2.203125 2.03125 -2.203125 1.6875 -1.8125 C 1.625 -2.078125 1.328125 -2.203125 1.09375 -2.203125 C 0.921875 -2.203125 0.78125 -2.125 0.640625 -1.921875 C 0.515625 -1.71875 0.453125 -1.453125 0.453125 -1.4375 C 0.453125 -1.359375 0.53125 -1.359375 0.5625 -1.359375 C 0.640625 -1.359375 0.640625 -1.375 0.6875 -1.5 C 0.765625 -1.796875 0.875 -2.03125 1.0625 -2.03125 C 1.234375 -2.03125 1.265625 -1.875 1.265625 -1.765625 C 1.265625 -1.703125 1.21875 -1.515625 1.1875 -1.375 C 1.15625 -1.25 1.109375 -1.046875 1.078125 -0.9375 L 0.96875 -0.484375 C 0.9375 -0.359375 0.875 -0.140625 0.875 -0.125 C 0.875 -0.015625 0.96875 0.0625 1.0625 0.0625 C 1.140625 0.0625 1.234375 0.015625 1.28125 -0.078125 C 1.3125 -0.109375 1.34375 -0.28125 1.375 -0.375 Z M 1.484375 -0.8125 "
                   id="path7155" /></symbol><symbol
                 overflow="visible"
                 id="textext-e9c895b8-12"><path
                   style="stroke:none;"
                   d="M 2.71875 -0.71875 C 2.640625 -1.28125 2.3125 -2.203125 1.546875 -2.203125 C 1.234375 -2.203125 0.953125 -2.078125 0.734375 -1.890625 C 0.4375 -1.640625 0.375 -1.359375 0.375 -1.3125 C 0.375 -1.234375 0.4375 -1.234375 0.46875 -1.234375 C 0.546875 -1.234375 0.5625 -1.25 0.578125 -1.328125 C 0.71875 -1.6875 1.21875 -1.765625 1.46875 -1.765625 C 2.34375 -1.765625 2.515625 -1 2.515625 -0.390625 C 2.515625 -0.1875 2.515625 -0.171875 2.484375 -0.046875 C 2.375 0.296875 2.25 0.78125 2.25 0.9375 C 2.25 0.953125 2.25 1.078125 2.34375 1.078125 C 2.40625 1.078125 2.46875 1.015625 2.515625 0.828125 C 2.578125 0.640625 2.671875 0.296875 2.71875 -0.0625 C 2.734375 -0.28125 3.0625 -1.015625 3.109375 -1.125 C 3.171875 -1.234375 3.296875 -1.515625 3.5625 -1.984375 C 3.609375 -2.046875 3.609375 -2.0625 3.609375 -2.078125 C 3.609375 -2.140625 3.53125 -2.140625 3.5 -2.140625 C 3.46875 -2.140625 3.4375 -2.140625 3.421875 -2.125 C 3.390625 -2.09375 2.96875 -1.375 2.71875 -0.71875 Z M 2.71875 -0.71875 "
                   id="path7158" /></symbol><symbol
                 overflow="visible"
                 id="textext-e9c895b8-13"><path
                   style="stroke:none;"
                   d="M 3.09375 -1.953125 C 2.859375 -1.890625 2.859375 -1.671875 2.859375 -1.65625 C 2.859375 -1.578125 2.921875 -1.453125 3.09375 -1.453125 C 3.234375 -1.453125 3.40625 -1.578125 3.40625 -1.796875 C 3.40625 -2.09375 3.078125 -2.203125 2.8125 -2.203125 C 2.484375 -2.203125 2.265625 -2 2.171875 -1.859375 C 2.015625 -2.140625 1.6875 -2.203125 1.515625 -2.203125 C 0.890625 -2.203125 0.53125 -1.609375 0.53125 -1.4375 C 0.53125 -1.359375 0.609375 -1.359375 0.640625 -1.359375 C 0.6875 -1.359375 0.71875 -1.359375 0.75 -1.421875 C 0.890625 -1.90625 1.296875 -2.03125 1.484375 -2.03125 C 1.65625 -2.03125 1.84375 -1.96875 1.84375 -1.703125 C 1.84375 -1.578125 1.75 -1.234375 1.578125 -0.5625 C 1.515625 -0.28125 1.28125 -0.109375 1.0625 -0.109375 C 1.03125 -0.109375 0.890625 -0.109375 0.765625 -0.1875 C 0.984375 -0.28125 0.984375 -0.46875 0.984375 -0.484375 C 0.984375 -0.625 0.875 -0.6875 0.765625 -0.6875 C 0.640625 -0.6875 0.46875 -0.59375 0.46875 -0.359375 C 0.46875 -0.046875 0.796875 0.0625 1.0625 0.0625 C 1.328125 0.0625 1.5625 -0.109375 1.671875 -0.28125 C 1.875 0.015625 2.1875 0.0625 2.34375 0.0625 C 2.96875 0.0625 3.328125 -0.53125 3.328125 -0.71875 C 3.328125 -0.78125 3.25 -0.78125 3.21875 -0.78125 C 3.140625 -0.78125 3.125 -0.75 3.109375 -0.71875 C 2.96875 -0.265625 2.59375 -0.109375 2.375 -0.109375 C 2.21875 -0.109375 2.015625 -0.171875 2.015625 -0.453125 C 2.015625 -0.515625 2.015625 -0.546875 2.046875 -0.71875 C 2.140625 -1.0625 2.265625 -1.609375 2.3125 -1.703125 C 2.375 -1.828125 2.546875 -2.03125 2.796875 -2.03125 C 2.8125 -2.03125 2.984375 -2.03125 3.09375 -1.953125 Z M 3.09375 -1.953125 "
                   id="path7161" /></symbol><symbol
                 overflow="visible"
                 id="textext-e9c895b8-14"><path
                   style="stroke:none;"
                   d=""
                   id="path7164" /></symbol><symbol
                 overflow="visible"
                 id="textext-e9c895b8-15"><path
                   style="stroke:none;"
                   d="M 2.328125 -4.4375 C 2.328125 -4.625 2.328125 -4.625 2.125 -4.625 C 1.671875 -4.1875 1.046875 -4.1875 0.765625 -4.1875 L 0.765625 -3.9375 C 0.921875 -3.9375 1.390625 -3.9375 1.765625 -4.125 L 1.765625 -0.578125 C 1.765625 -0.34375 1.765625 -0.25 1.078125 -0.25 L 0.8125 -0.25 L 0.8125 0 C 0.9375 0 1.796875 -0.03125 2.046875 -0.03125 C 2.265625 -0.03125 3.140625 0 3.296875 0 L 3.296875 -0.25 L 3.03125 -0.25 C 2.328125 -0.25 2.328125 -0.34375 2.328125 -0.578125 Z M 2.328125 -4.4375 "
                   id="path7167" /></symbol><symbol
                 overflow="visible"
                 id="textext-e9c895b8-16"><path
                   style="stroke:none;"
                   d="M 3.21875 -1.578125 L 5.359375 -1.578125 C 5.453125 -1.578125 5.609375 -1.578125 5.609375 -1.734375 C 5.609375 -1.921875 5.453125 -1.921875 5.359375 -1.921875 L 3.21875 -1.921875 L 3.21875 -4.0625 C 3.21875 -4.140625 3.21875 -4.3125 3.0625 -4.3125 C 2.890625 -4.3125 2.890625 -4.15625 2.890625 -4.0625 L 2.890625 -1.921875 L 0.75 -1.921875 C 0.65625 -1.921875 0.484375 -1.921875 0.484375 -1.75 C 0.484375 -1.578125 0.640625 -1.578125 0.75 -1.578125 L 2.890625 -1.578125 L 2.890625 0.5625 C 2.890625 0.65625 2.890625 0.828125 3.046875 0.828125 C 3.21875 0.828125 3.21875 0.65625 3.21875 0.5625 Z M 3.21875 -1.578125 "
                   id="path7170" /></symbol><symbol
                 overflow="visible"
                 id="textext-e9c895b8-17"><path
                   style="stroke:none;"
                   d="M 2.46875 -5.21875 C 1.15625 -4.296875 0.796875 -2.8125 0.796875 -1.75 C 0.796875 -0.765625 1.09375 0.765625 2.46875 1.734375 C 2.53125 1.734375 2.609375 1.734375 2.609375 1.65625 C 2.609375 1.609375 2.59375 1.59375 2.546875 1.546875 C 1.609375 0.703125 1.28125 -0.46875 1.28125 -1.734375 C 1.28125 -3.625 2 -4.546875 2.5625 -5.0625 C 2.59375 -5.09375 2.609375 -5.109375 2.609375 -5.140625 C 2.609375 -5.21875 2.53125 -5.21875 2.46875 -5.21875 Z M 2.46875 -5.21875 "
                   id="path7173" /></symbol><symbol
                 overflow="visible"
                 id="textext-e9c895b8-18"><path
                   style="stroke:none;"
                   d="M 0.625 -5.21875 C 0.578125 -5.21875 0.5 -5.21875 0.5 -5.140625 C 0.5 -5.109375 0.515625 -5.09375 0.5625 -5.03125 C 1.15625 -4.484375 1.828125 -3.546875 1.828125 -1.75 C 1.828125 -0.296875 1.375 0.8125 0.625 1.484375 C 0.5 1.609375 0.5 1.609375 0.5 1.65625 C 0.5 1.6875 0.515625 1.734375 0.578125 1.734375 C 0.671875 1.734375 1.328125 1.28125 1.796875 0.40625 C 2.09375 -0.171875 2.296875 -0.921875 2.296875 -1.734375 C 2.296875 -2.71875 2 -4.25 0.625 -5.21875 Z M 0.625 -5.21875 "
                   id="path7176" /></symbol><symbol
                 overflow="visible"
                 id="textext-e9c895b8-19"><path
                   style="stroke:none;"
                   d=""
                   id="path7179" /></symbol><symbol
                 overflow="visible"
                 id="textext-e9c895b8-20"><path
                   style="stroke:none;"
                   d="M 2.9375 -0.96875 L 2.71875 -0.96875 C 2.71875 -0.875 2.65625 -0.5625 2.578125 -0.515625 C 2.546875 -0.484375 2.125 -0.484375 2.046875 -0.484375 L 1.078125 -0.484375 C 1.40625 -0.71875 1.765625 -1 2.0625 -1.203125 C 2.515625 -1.515625 2.9375 -1.796875 2.9375 -2.328125 C 2.9375 -2.96875 2.328125 -3.3125 1.625 -3.3125 C 0.953125 -3.3125 0.453125 -2.9375 0.453125 -2.4375 C 0.453125 -2.1875 0.671875 -2.140625 0.75 -2.140625 C 0.875 -2.140625 1.03125 -2.234375 1.03125 -2.4375 C 1.03125 -2.609375 0.90625 -2.71875 0.75 -2.71875 C 0.890625 -2.953125 1.1875 -3.09375 1.515625 -3.09375 C 2 -3.09375 2.40625 -2.8125 2.40625 -2.328125 C 2.40625 -1.90625 2.109375 -1.578125 1.734375 -1.265625 L 0.515625 -0.234375 C 0.46875 -0.1875 0.453125 -0.1875 0.453125 -0.15625 L 0.453125 0 L 2.765625 0 Z M 2.9375 -0.96875 "
                   id="path7182" /></symbol><symbol
                 overflow="visible"
                 id="textext-e9c895b8-21"><path
                   style="stroke:none;"
                   d="M 1.640625 -1.65625 C 2.109375 -1.65625 2.40625 -1.359375 2.40625 -0.875 C 2.40625 -0.359375 2.09375 -0.09375 1.65625 -0.09375 C 1.59375 -0.09375 1 -0.09375 0.75 -0.359375 C 0.953125 -0.390625 1.015625 -0.53125 1.015625 -0.65625 C 1.015625 -0.84375 0.875 -0.96875 0.703125 -0.96875 C 0.546875 -0.96875 0.40625 -0.859375 0.40625 -0.640625 C 0.40625 -0.125 0.984375 0.109375 1.671875 0.109375 C 2.484375 0.109375 2.984375 -0.390625 2.984375 -0.875 C 2.984375 -1.28125 2.625 -1.625 2.0625 -1.75 C 2.65625 -1.953125 2.8125 -2.328125 2.8125 -2.609375 C 2.8125 -3.015625 2.3125 -3.3125 1.6875 -3.3125 C 1.0625 -3.3125 0.578125 -3.0625 0.578125 -2.609375 C 0.578125 -2.375 0.765625 -2.3125 0.859375 -2.3125 C 1 -2.3125 1.140625 -2.421875 1.140625 -2.609375 C 1.140625 -2.71875 1.078125 -2.859375 0.90625 -2.890625 C 1.109375 -3.109375 1.5625 -3.125 1.671875 -3.125 C 2.03125 -3.125 2.28125 -2.953125 2.28125 -2.609375 C 2.28125 -2.3125 2.09375 -1.859375 1.578125 -1.828125 C 1.4375 -1.828125 1.421875 -1.828125 1.28125 -1.8125 C 1.234375 -1.8125 1.171875 -1.8125 1.171875 -1.734375 C 1.171875 -1.65625 1.21875 -1.65625 1.3125 -1.65625 Z M 1.640625 -1.65625 "
                   id="path7185" /></symbol><symbol
                 overflow="visible"
                 id="textext-e9c895b8-22"><path
                   style="stroke:none;"
                   d=""
                   id="path7188" /></symbol><symbol
                 overflow="visible"
                 id="textext-e9c895b8-23"><path
                   style="stroke:none;"
                   d="M 1.265625 -0.765625 L 2.328125 -1.796875 C 3.875 -3.171875 4.46875 -3.703125 4.46875 -4.703125 C 4.46875 -5.84375 3.578125 -6.640625 2.359375 -6.640625 C 1.234375 -6.640625 0.5 -5.71875 0.5 -4.828125 C 0.5 -4.28125 1 -4.28125 1.03125 -4.28125 C 1.203125 -4.28125 1.546875 -4.390625 1.546875 -4.8125 C 1.546875 -5.0625 1.359375 -5.328125 1.015625 -5.328125 C 0.9375 -5.328125 0.921875 -5.328125 0.890625 -5.3125 C 1.109375 -5.96875 1.65625 -6.328125 2.234375 -6.328125 C 3.140625 -6.328125 3.5625 -5.515625 3.5625 -4.703125 C 3.5625 -3.90625 3.078125 -3.125 2.515625 -2.5 L 0.609375 -0.375 C 0.5 -0.265625 0.5 -0.234375 0.5 0 L 4.203125 0 L 4.46875 -1.734375 L 4.234375 -1.734375 C 4.171875 -1.4375 4.109375 -1 4 -0.84375 C 3.9375 -0.765625 3.28125 -0.765625 3.0625 -0.765625 Z M 1.265625 -0.765625 "
                   id="path7191" /></symbol><symbol
                 overflow="visible"
                 id="textext-e9c895b8-24"><path
                   style="stroke:none;"
                   d="M 1.71875 -3.984375 L 3.15625 -3.984375 L 3.15625 -4.296875 L 1.71875 -4.296875 L 1.71875 -6.125 L 1.46875 -6.125 C 1.46875 -5.3125 1.171875 -4.25 0.1875 -4.203125 L 0.1875 -3.984375 L 1.03125 -3.984375 L 1.03125 -1.234375 C 1.03125 -0.015625 1.96875 0.109375 2.328125 0.109375 C 3.03125 0.109375 3.3125 -0.59375 3.3125 -1.234375 L 3.3125 -1.796875 L 3.0625 -1.796875 L 3.0625 -1.25 C 3.0625 -0.515625 2.765625 -0.140625 2.390625 -0.140625 C 1.71875 -0.140625 1.71875 -1.046875 1.71875 -1.21875 Z M 1.71875 -3.984375 "
                   id="path7194" /></symbol><symbol
                 overflow="visible"
                 id="textext-e9c895b8-25"><path
                   style="stroke:none;"
                   d="M 3.3125 -0.75 C 3.359375 -0.359375 3.625 0.0625 4.09375 0.0625 C 4.3125 0.0625 4.921875 -0.078125 4.921875 -0.890625 L 4.921875 -1.453125 L 4.671875 -1.453125 L 4.671875 -0.890625 C 4.671875 -0.3125 4.421875 -0.25 4.3125 -0.25 C 3.984375 -0.25 3.9375 -0.703125 3.9375 -0.75 L 3.9375 -2.734375 C 3.9375 -3.15625 3.9375 -3.546875 3.578125 -3.921875 C 3.1875 -4.3125 2.6875 -4.46875 2.21875 -4.46875 C 1.390625 -4.46875 0.703125 -4 0.703125 -3.34375 C 0.703125 -3.046875 0.90625 -2.875 1.171875 -2.875 C 1.453125 -2.875 1.625 -3.078125 1.625 -3.328125 C 1.625 -3.453125 1.578125 -3.78125 1.109375 -3.78125 C 1.390625 -4.140625 1.875 -4.25 2.1875 -4.25 C 2.6875 -4.25 3.25 -3.859375 3.25 -2.96875 L 3.25 -2.609375 C 2.734375 -2.578125 2.046875 -2.546875 1.421875 -2.25 C 0.671875 -1.90625 0.421875 -1.390625 0.421875 -0.953125 C 0.421875 -0.140625 1.390625 0.109375 2.015625 0.109375 C 2.671875 0.109375 3.125 -0.296875 3.3125 -0.75 Z M 3.25 -2.390625 L 3.25 -1.390625 C 3.25 -0.453125 2.53125 -0.109375 2.078125 -0.109375 C 1.59375 -0.109375 1.1875 -0.453125 1.1875 -0.953125 C 1.1875 -1.5 1.609375 -2.328125 3.25 -2.390625 Z M 3.25 -2.390625 "
                   id="path7197" /></symbol><symbol
                 overflow="visible"
                 id="textext-e9c895b8-26"><path
                   style="stroke:none;"
                   d="M 1.09375 -3.421875 L 1.09375 -0.75 C 1.09375 -0.3125 0.984375 -0.3125 0.3125 -0.3125 L 0.3125 0 C 0.671875 -0.015625 1.171875 -0.03125 1.453125 -0.03125 C 1.703125 -0.03125 2.21875 -0.015625 2.5625 0 L 2.5625 -0.3125 C 1.890625 -0.3125 1.78125 -0.3125 1.78125 -0.75 L 1.78125 -2.59375 C 1.78125 -3.625 2.5 -4.1875 3.125 -4.1875 C 3.765625 -4.1875 3.875 -3.65625 3.875 -3.078125 L 3.875 -0.75 C 3.875 -0.3125 3.765625 -0.3125 3.09375 -0.3125 L 3.09375 0 C 3.4375 -0.015625 3.953125 -0.03125 4.21875 -0.03125 C 4.46875 -0.03125 5 -0.015625 5.328125 0 L 5.328125 -0.3125 C 4.8125 -0.3125 4.5625 -0.3125 4.5625 -0.609375 L 4.5625 -2.515625 C 4.5625 -3.375 4.5625 -3.671875 4.25 -4.03125 C 4.109375 -4.203125 3.78125 -4.40625 3.203125 -4.40625 C 2.46875 -4.40625 2 -3.984375 1.71875 -3.359375 L 1.71875 -4.40625 L 0.3125 -4.296875 L 0.3125 -3.984375 C 1.015625 -3.984375 1.09375 -3.921875 1.09375 -3.421875 Z M 1.09375 -3.421875 "
                   id="path7200" /></symbol><symbol
                 overflow="visible"
                 id="textext-e9c895b8-27"><path
                   style="stroke:none;"
                   d=""
                   id="path7203" /></symbol><symbol
                 overflow="visible"
                 id="textext-e9c895b8-28"><path
                   style="stroke:none;"
                   d="M 5.1875 -1.578125 C 5.296875 -1.578125 5.46875 -1.578125 5.46875 -1.734375 C 5.46875 -1.921875 5.296875 -1.921875 5.1875 -1.921875 L 1.03125 -1.921875 C 0.921875 -1.921875 0.75 -1.921875 0.75 -1.75 C 0.75 -1.578125 0.90625 -1.578125 1.03125 -1.578125 Z M 5.1875 -1.578125 "
                   id="path7206" /></symbol><symbol
                 overflow="visible"
                 id="textext-e9c895b8-29"><path
                   style="stroke:none;"
                   d=""
                   id="path7209" /></symbol><symbol
                 overflow="visible"
                 id="textext-e9c895b8-30"><path
                   style="stroke:none;"
                   d="M 4.40625 -3.9375 C 4.40625 -4.5625 3.875 -4.90625 3.265625 -4.90625 C 2.3125 -4.90625 1.609375 -3.828125 1.4375 -3.125 L 0.34375 1.265625 C 0.328125 1.3125 0.390625 1.359375 0.4375 1.359375 C 0.5 1.359375 0.5625 1.34375 0.578125 1.296875 L 1.03125 -0.5625 C 1.1875 -0.234375 1.515625 0.0625 2.078125 0.0625 C 3.0625 0.0625 4.15625 -0.640625 4.15625 -1.703125 C 4.15625 -2.125 3.96875 -2.53125 3.609375 -2.765625 C 3.953125 -2.984375 4.40625 -3.375 4.40625 -3.9375 Z M 3.03125 -2.78125 C 2.921875 -2.75 2.875 -2.71875 2.671875 -2.71875 C 2.5625 -2.71875 2.390625 -2.734375 2.34375 -2.765625 C 2.421875 -2.796875 2.609375 -2.8125 2.671875 -2.8125 C 2.78125 -2.8125 2.9375 -2.796875 3.03125 -2.78125 Z M 3.953125 -4.0625 C 3.953125 -3.703125 3.765625 -3.15625 3.34375 -2.90625 C 3.203125 -2.953125 3.078125 -3 2.6875 -3 C 2.4375 -3 2.09375 -2.984375 2.09375 -2.734375 C 2.09375 -2.5625 2.3125 -2.53125 2.65625 -2.53125 C 2.90625 -2.53125 3.109375 -2.578125 3.328125 -2.640625 C 3.53125 -2.484375 3.640625 -2.203125 3.640625 -1.890625 C 3.640625 -0.890625 2.953125 -0.125 2.109375 -0.125 C 1.5625 -0.125 1.1875 -0.453125 1.1875 -1.015625 C 1.1875 -1.078125 1.1875 -1.15625 1.203125 -1.21875 L 1.671875 -3.0625 C 1.828125 -3.734375 2.453125 -4.71875 3.25 -4.71875 C 3.671875 -4.71875 3.953125 -4.5 3.953125 -4.0625 Z M 3.953125 -4.0625 "
                   id="path7212" /></symbol><symbol
                 overflow="visible"
                 id="textext-e9c895b8-31"><path
                   style="stroke:none;"
                   d="M 1.640625 -1.40625 C 1.640625 -1.453125 1.8125 -2.078125 1.8125 -2.109375 C 1.828125 -2.171875 2.03125 -2.515625 2.265625 -2.6875 C 2.328125 -2.734375 2.515625 -2.875 2.828125 -2.875 C 2.890625 -2.875 3.0625 -2.875 3.203125 -2.78125 C 2.984375 -2.71875 2.90625 -2.515625 2.90625 -2.390625 C 2.90625 -2.25 3.015625 -2.140625 3.171875 -2.140625 C 3.34375 -2.140625 3.5625 -2.265625 3.5625 -2.5625 C 3.5625 -2.921875 3.1875 -3.078125 2.828125 -3.078125 C 2.46875 -3.078125 2.15625 -2.921875 1.84375 -2.578125 C 1.71875 -3 1.296875 -3.078125 1.125 -3.078125 C 0.875 -3.078125 0.703125 -2.90625 0.578125 -2.71875 C 0.421875 -2.453125 0.328125 -2.046875 0.328125 -2 C 0.328125 -1.921875 0.421875 -1.921875 0.453125 -1.921875 C 0.546875 -1.921875 0.546875 -1.9375 0.59375 -2.125 C 0.703125 -2.546875 0.84375 -2.875 1.109375 -2.875 C 1.296875 -2.875 1.34375 -2.71875 1.34375 -2.53125 C 1.34375 -2.40625 1.28125 -2.140625 1.21875 -1.953125 C 1.171875 -1.765625 1.109375 -1.484375 1.078125 -1.328125 L 0.84375 -0.4375 C 0.828125 -0.34375 0.78125 -0.171875 0.78125 -0.15625 C 0.78125 0 0.90625 0.0625 1.015625 0.0625 C 1.125 0.0625 1.265625 0 1.3125 -0.125 C 1.328125 -0.171875 1.40625 -0.484375 1.453125 -0.65625 Z M 1.640625 -1.40625 "
                   id="path7215" /></symbol><symbol
                 overflow="visible"
                 id="textext-e9c895b8-32"><path
                   style="stroke:none;"
                   d="M 3.109375 -0.96875 C 3.078125 -1.375 2.84375 -3.078125 1.703125 -3.078125 C 1.296875 -3.078125 0.9375 -2.84375 0.75 -2.671875 C 0.328125 -2.28125 0.234375 -1.84375 0.234375 -1.8125 C 0.234375 -1.734375 0.328125 -1.734375 0.34375 -1.734375 C 0.4375 -1.734375 0.453125 -1.75 0.484375 -1.859375 C 0.625 -2.265625 1.140625 -2.515625 1.609375 -2.515625 C 2.734375 -2.515625 2.875 -1.390625 2.875 -0.6875 C 2.875 -0.328125 2.859375 -0.265625 2.828125 -0.1875 C 2.671875 0.34375 2.453125 1.109375 2.453125 1.328125 C 2.453125 1.40625 2.484375 1.484375 2.578125 1.484375 C 2.625 1.484375 2.703125 1.484375 2.8125 1.125 C 2.90625 0.859375 3.03125 0.34375 3.09375 -0.15625 C 3.109375 -0.40625 3.5 -1.34375 3.65625 -1.671875 C 3.75 -1.890625 3.890625 -2.21875 4.21875 -2.828125 C 4.25 -2.859375 4.265625 -2.890625 4.265625 -2.921875 C 4.265625 -3 4.171875 -3 4.140625 -3 C 4.125 -3 4.0625 -3 4.046875 -2.96875 C 3.953125 -2.828125 3.421875 -1.828125 3.109375 -0.96875 Z M 3.109375 -0.96875 "
                   id="path7218" /></symbol><symbol
                 overflow="visible"
                 id="textext-e9c895b8-33"><path
                   style="stroke:none;"
                   d="M 1.734375 -0.734375 C 1.671875 -0.5 1.4375 -0.125 1.078125 -0.125 C 1.0625 -0.125 0.84375 -0.125 0.703125 -0.21875 C 0.984375 -0.3125 1.015625 -0.5625 1.015625 -0.609375 C 1.015625 -0.765625 0.890625 -0.859375 0.734375 -0.859375 C 0.53125 -0.859375 0.328125 -0.703125 0.328125 -0.4375 C 0.328125 -0.09375 0.71875 0.0625 1.0625 0.0625 C 1.390625 0.0625 1.671875 -0.125 1.84375 -0.421875 C 2.015625 -0.0625 2.390625 0.0625 2.671875 0.0625 C 3.484375 0.0625 3.90625 -0.796875 3.90625 -1 C 3.90625 -1.09375 3.8125 -1.09375 3.796875 -1.09375 C 3.6875 -1.09375 3.6875 -1.046875 3.65625 -0.96875 C 3.515625 -0.484375 3.09375 -0.125 2.703125 -0.125 C 2.421875 -0.125 2.28125 -0.3125 2.28125 -0.578125 C 2.28125 -0.765625 2.453125 -1.390625 2.640625 -2.171875 C 2.78125 -2.703125 3.09375 -2.875 3.328125 -2.875 C 3.34375 -2.875 3.546875 -2.875 3.703125 -2.78125 C 3.484375 -2.71875 3.390625 -2.515625 3.390625 -2.390625 C 3.390625 -2.25 3.515625 -2.140625 3.671875 -2.140625 C 3.828125 -2.140625 4.0625 -2.265625 4.0625 -2.5625 C 4.0625 -2.953125 3.609375 -3.078125 3.34375 -3.078125 C 2.984375 -3.078125 2.703125 -2.84375 2.5625 -2.578125 C 2.4375 -2.859375 2.109375 -3.078125 1.71875 -3.078125 C 0.9375 -3.078125 0.5 -2.21875 0.5 -2 C 0.5 -1.921875 0.59375 -1.921875 0.609375 -1.921875 C 0.703125 -1.921875 0.703125 -1.9375 0.75 -2.03125 C 0.921875 -2.578125 1.359375 -2.875 1.703125 -2.875 C 1.9375 -2.875 2.125 -2.75 2.125 -2.421875 C 2.125 -2.28125 2.03125 -1.9375 1.96875 -1.6875 Z M 1.734375 -0.734375 "
                   id="path7221" /></symbol></g></defs><g
             id="textext-e9c895b8-34"><g
               style="fill:rgb(0%,0%,0%);fill-opacity:1;"
               id="g7230"><use
                 xlink:href="#textext-e9c895b8-1"
                 x="223.432"
                 y="128.625"
                 id="use7228" /></g><g
               style="fill:rgb(0%,0%,0%);fill-opacity:1;"
               id="g7234"><use
                 xlink:href="#textext-e9c895b8-6"
                 x="228.137"
                 y="139.684"
                 id="use7232" /></g><g
               style="fill:rgb(0%,0%,0%);fill-opacity:1;"
               id="g7238"><use
                 xlink:href="#textext-e9c895b8-8"
                 x="236.387"
                 y="139.684"
                 id="use7236" /></g><g
               style="fill:rgb(0%,0%,0%);fill-opacity:1;"
               id="g7242"><use
                 xlink:href="#textext-e9c895b8-10"
                 x="258.991"
                 y="129.917"
                 id="use7240" /></g><g
               style="fill:rgb(0%,0%,0%);fill-opacity:1;"
               id="g7246"><use
                 xlink:href="#textext-e9c895b8-11"
                 x="263.183262"
                 y="129.917"
                 id="use7244" /></g><path
               style="fill:none;stroke-width:0.398;stroke-linecap:butt;stroke-linejoin:miter;stroke:rgb(0%,0%,0%);stroke-opacity:1;stroke-miterlimit:10;"
               d="M 0.00175 -0.001375 L 8.009562 -0.001375 "
               transform="matrix(1,0,0,-1,258.842,131.483)"
               id="path7248" /><g
               style="fill:rgb(0%,0%,0%);fill-opacity:1;"
               id="g7252"><use
                 xlink:href="#textext-e9c895b8-12"
                 x="258.842"
                 y="135.627"
                 id="use7250" /></g><g
               style="fill:rgb(0%,0%,0%);fill-opacity:1;"
               id="g7256"><use
                 xlink:href="#textext-e9c895b8-13"
                 x="262.906243"
                 y="135.627"
                 id="use7254" /></g><path
               style="fill:none;stroke-width:0.398;stroke-linecap:butt;stroke-linejoin:miter;stroke:rgb(0%,0%,0%);stroke-opacity:1;stroke-miterlimit:10;"
               d="M 0.001875 0.00159375 L 30.603438 0.00159375 "
               transform="matrix(1,0,0,-1,247.545,137.193)"
               id="path7258" /><g
               style="fill:rgb(0%,0%,0%);fill-opacity:1;"
               id="g7266"><use
                 xlink:href="#textext-e9c895b8-15"
                 x="247.545"
                 y="144.56"
                 id="use7260" /><use
                 xlink:href="#textext-e9c895b8-16"
                 x="251.516579"
                 y="144.56"
                 id="use7262" /><use
                 xlink:href="#textext-e9c895b8-17"
                 x="257.632602"
                 y="144.56"
                 id="use7264" /></g><g
               style="fill:rgb(0%,0%,0%);fill-opacity:1;"
               id="g7270"><use
                 xlink:href="#textext-e9c895b8-10"
                 x="262.091"
                 y="141.25"
                 id="use7268" /></g><g
               style="fill:rgb(0%,0%,0%);fill-opacity:1;"
               id="g7274"><use
                 xlink:href="#textext-e9c895b8-11"
                 x="266.283262"
                 y="141.25"
                 id="use7272" /></g><path
               style="fill:none;stroke-width:0.398;stroke-linecap:butt;stroke-linejoin:miter;stroke:rgb(0%,0%,0%);stroke-opacity:1;stroke-miterlimit:10;"
               d="M 0.00040625 -0.00040625 L 8.008219 -0.00040625 "
               transform="matrix(1,0,0,-1,261.941,142.816)"
               id="path7276" /><g
               style="fill:rgb(0%,0%,0%);fill-opacity:1;"
               id="g7280"><use
                 xlink:href="#textext-e9c895b8-12"
                 x="261.941"
                 y="146.96"
                 id="use7278" /></g><g
               style="fill:rgb(0%,0%,0%);fill-opacity:1;"
               id="g7284"><use
                 xlink:href="#textext-e9c895b8-13"
                 x="266.005243"
                 y="146.96"
                 id="use7282" /></g><g
               style="fill:rgb(0%,0%,0%);fill-opacity:1;"
               id="g7288"><use
                 xlink:href="#textext-e9c895b8-18"
                 x="271.147"
                 y="144.56"
                 id="use7286" /></g><g
               style="fill:rgb(0%,0%,0%);fill-opacity:1;"
               id="g7292"><use
                 xlink:href="#textext-e9c895b8-20"
                 x="274.26"
                 y="142.567"
                 id="use7290" /></g><g
               style="fill:rgb(0%,0%,0%);fill-opacity:1;"
               id="g7296"><use
                 xlink:href="#textext-e9c895b8-8"
                 x="281.558"
                 y="139.684"
                 id="use7294" /></g><g
               style="fill:rgb(0%,0%,0%);fill-opacity:1;"
               id="g7300"><use
                 xlink:href="#textext-e9c895b8-23"
                 x="291.52"
                 y="139.684"
                 id="use7298" /></g><g
               style="fill:rgb(0%,0%,0%);fill-opacity:1;"
               id="g7308"><use
                 xlink:href="#textext-e9c895b8-24"
                 x="298.165054"
                 y="139.684"
                 id="use7302" /><use
                 xlink:href="#textext-e9c895b8-25"
                 x="302.039509"
                 y="139.684"
                 id="use7304" /><use
                 xlink:href="#textext-e9c895b8-26"
                 x="307.020809"
                 y="139.684"
                 id="use7306" /></g><g
               style="fill:rgb(0%,0%,0%);fill-opacity:1;"
               id="g7312"><use
                 xlink:href="#textext-e9c895b8-28"
                 x="312.553"
                 y="136.019"
                 id="use7310" /></g><g
               style="fill:rgb(0%,0%,0%);fill-opacity:1;"
               id="g7316"><use
                 xlink:href="#textext-e9c895b8-15"
                 x="318.779"
                 y="136.019"
                 id="use7314" /></g><g
               style="fill:rgb(0%,0%,0%);fill-opacity:1;"
               id="g7320"><use
                 xlink:href="#textext-e9c895b8-2"
                 x="324.909"
                 y="131.614"
                 id="use7318" /></g><g
               style="fill:rgb(0%,0%,0%);fill-opacity:1;"
               id="g7324"><use
                 xlink:href="#textext-e9c895b8-30"
                 x="330.842"
                 y="135.239"
                 id="use7322" /></g><g
               style="fill:rgb(0%,0%,0%);fill-opacity:1;"
               id="g7328"><use
                 xlink:href="#textext-e9c895b8-31"
                 x="335.715291"
                 y="135.239"
                 id="use7326" /></g><path
               style="fill:none;stroke-width:0.398;stroke-linecap:butt;stroke-linejoin:miter;stroke:rgb(0%,0%,0%);stroke-opacity:1;stroke-miterlimit:10;"
               d="M 0.000875 0.00159375 L 9.133688 0.00159375 "
               transform="matrix(1,0,0,-1,330.671,137.193)"
               id="path7330" /><g
               style="fill:rgb(0%,0%,0%);fill-opacity:1;"
               id="g7334"><use
                 xlink:href="#textext-e9c895b8-32"
                 x="330.671"
                 y="143.119"
                 id="use7332" /></g><g
               style="fill:rgb(0%,0%,0%);fill-opacity:1;"
               id="g7338"><use
                 xlink:href="#textext-e9c895b8-33"
                 x="335.281379"
                 y="143.119"
                 id="use7336" /></g><g
               style="fill:rgb(0%,0%,0%);fill-opacity:1;"
               id="g7342"><use
                 xlink:href="#textext-e9c895b8-3"
                 x="340.998"
                 y="131.614"
                 id="use7340" /></g><g
               style="fill:rgb(0%,0%,0%);fill-opacity:1;"
               id="g7346"><use
                 xlink:href="#textext-e9c895b8-4"
                 x="345.564"
                 y="128.625"
                 id="use7344" /></g><g
               style="fill:rgb(0%,0%,0%);fill-opacity:1;"
               id="g7350"><use
                 xlink:href="#textext-e9c895b8-28"
                 x="350.269"
                 y="130.69"
                 id="use7348" /></g><g
               style="fill:rgb(0%,0%,0%);fill-opacity:1;"
               id="g7354"><use
                 xlink:href="#textext-e9c895b8-20"
                 x="357.691"
                 y="128.012"
                 id="use7352" /></g><path
               style="fill:none;stroke-width:0.398;stroke-linecap:butt;stroke-linejoin:miter;stroke:rgb(0%,0%,0%);stroke-opacity:1;stroke-miterlimit:10;"
               d="M 0.00040625 0.0006875 L 3.391031 0.0006875 "
               transform="matrix(1,0,0,-1,357.691,128.946)"
               id="path7356" /><g
               style="fill:rgb(0%,0%,0%);fill-opacity:1;"
               id="g7360"><use
                 xlink:href="#textext-e9c895b8-21"
                 x="357.691"
                 y="133.09"
                 id="use7358" /></g></g></g><g
           id="g7897"
           transform="matrix(1.2173747,0,0,-1.2173747,-249.44523,338.96838)"
           ns0:preamble=""
           ns0:text="$f(r)$"><defs
             id="defs7878"><g
               id="g7876"><symbol
                 id="textext-15f3a6d8-0"
                 overflow="visible"
                 style="overflow:visible"><path
                   id="path7858"
                   d=""
                   style="stroke:none"
                   inkscape:connector-curvature="0" /></symbol><symbol
                 id="textext-15f3a6d8-1"
                 overflow="visible"
                 style="overflow:visible"><path
                   id="path7861"
                   d="m 3.65625,-3.984375 h 0.859375 c 0.203125,0 0.296875,0 0.296875,-0.203125 0,-0.109375 -0.09375,-0.109375 -0.265625,-0.109375 H 3.71875 L 3.921875,-5.4375 c 0.046875,-0.203125 0.1875,-0.90625 0.25,-1.03125 0.078125,-0.1875 0.25,-0.34375 0.46875,-0.34375 0.03125,0 0.296875,0 0.484375,0.1875 -0.4375,0.03125 -0.546875,0.390625 -0.546875,0.53125 0,0.234375 0.1875,0.359375 0.375,0.359375 C 5.21875,-5.734375 5.5,-5.96875 5.5,-6.34375 c 0,-0.453125 -0.453125,-0.6875 -0.859375,-0.6875 -0.34375,0 -0.96875,0.1875 -1.265625,1.171875 -0.0625,0.203125 -0.09375,0.3125 -0.328125,1.5625 h -0.6875 c -0.203125,0 -0.3125,0 -0.3125,0.1875 0,0.125 0.09375,0.125 0.28125,0.125 h 0.65625 L 2.25,-0.046875 c -0.1875,0.96875 -0.359375,1.875 -0.875,1.875 -0.046875,0 -0.28125,0 -0.484375,-0.1875 C 1.359375,1.609375 1.453125,1.25 1.453125,1.109375 1.453125,0.875 1.265625,0.75 1.078125,0.75 0.8125,0.75 0.53125,0.984375 0.53125,1.359375 c 0,0.4375 0.4375,0.6875 0.84375,0.6875 0.546875,0 0.953125,-0.59375 1.125,-0.96875 0.328125,-0.625 0.546875,-1.828125 0.5625,-1.90625 z m 0,0"
                   style="stroke:none"
                   inkscape:connector-curvature="0" /></symbol><symbol
                 id="textext-15f3a6d8-2"
                 overflow="visible"
                 style="overflow:visible"><path
                   id="path7864"
                   d="m 0.875,-0.59375 c -0.03125,0.15625 -0.09375,0.390625 -0.09375,0.4375 0,0.171875 0.140625,0.265625 0.296875,0.265625 0.125,0 0.296875,-0.078125 0.375,-0.28125 C 1.46875,-0.203125 1.796875,-1.5625 1.84375,-1.75 c 0.078125,-0.328125 0.265625,-1.015625 0.3125,-1.296875 0.046875,-0.125 0.328125,-0.59375 0.5625,-0.8125 0.078125,-0.0625 0.375,-0.328125 0.796875,-0.328125 0.265625,0 0.40625,0.125 0.421875,0.125 -0.296875,0.046875 -0.515625,0.28125 -0.515625,0.546875 0,0.15625 0.109375,0.34375 0.375,0.34375 0.265625,0 0.546875,-0.234375 0.546875,-0.59375 0,-0.34375 -0.3125,-0.640625 -0.828125,-0.640625 C 2.875,-4.40625 2.4375,-3.921875 2.25,-3.640625 2.15625,-4.09375 1.796875,-4.40625 1.328125,-4.40625 0.875,-4.40625 0.6875,-4.015625 0.59375,-3.84375 0.421875,-3.5 0.296875,-2.90625 0.296875,-2.875 c 0,0.109375 0.09375,0.109375 0.109375,0.109375 0.109375,0 0.109375,-0.015625 0.171875,-0.234375 0.171875,-0.703125 0.375,-1.1875 0.734375,-1.1875 0.15625,0 0.296875,0.078125 0.296875,0.453125 0,0.21875 -0.03125,0.328125 -0.15625,0.84375 z m 0,0"
                   style="stroke:none"
                   inkscape:connector-curvature="0" /></symbol><symbol
                 id="textext-15f3a6d8-3"
                 overflow="visible"
                 style="overflow:visible"><path
                   id="path7867"
                   d=""
                   style="stroke:none"
                   inkscape:connector-curvature="0" /></symbol><symbol
                 id="textext-15f3a6d8-4"
                 overflow="visible"
                 style="overflow:visible"><path
                   id="path7870"
                   d="m 3.296875,2.390625 c 0,-0.03125 0,-0.046875 -0.171875,-0.21875 C 1.890625,0.921875 1.5625,-0.96875 1.5625,-2.5 c 0,-1.734375 0.375,-3.46875 1.609375,-4.703125 0.125,-0.125 0.125,-0.140625 0.125,-0.171875 0,-0.078125 -0.03125,-0.109375 -0.09375,-0.109375 -0.109375,0 -1,0.6875 -1.59375,1.953125 -0.5,1.09375 -0.625,2.203125 -0.625,3.03125 0,0.78125 0.109375,1.984375 0.65625,3.125 C 2.25,1.84375 3.09375,2.5 3.203125,2.5 c 0.0625,0 0.09375,-0.03125 0.09375,-0.109375 z m 0,0"
                   style="stroke:none"
                   inkscape:connector-curvature="0" /></symbol><symbol
                 id="textext-15f3a6d8-5"
                 overflow="visible"
                 style="overflow:visible"><path
                   id="path7873"
                   d="m 2.875,-2.5 c 0,-0.765625 -0.109375,-1.96875 -0.65625,-3.109375 -0.59375,-1.21875 -1.453125,-1.875 -1.546875,-1.875 -0.0625,0 -0.109375,0.046875 -0.109375,0.109375 0,0.03125 0,0.046875 0.1875,0.234375 0.984375,0.984375 1.546875,2.5625 1.546875,4.640625 0,1.71875 -0.359375,3.46875 -1.59375,4.71875 C 0.5625,2.34375 0.5625,2.359375 0.5625,2.390625 0.5625,2.453125 0.609375,2.5 0.671875,2.5 0.765625,2.5 1.671875,1.8125 2.25,0.546875 2.765625,-0.546875 2.875,-1.65625 2.875,-2.5 Z m 0,0"
                   style="stroke:none"
                   inkscape:connector-curvature="0" /></symbol></g></defs><g
             id="textext-15f3a6d8-6"><g
               id="g7882"
               style="fill:#000000;fill-opacity:1"><use
                 id="use7880"
                 y="134.765"
                 x="223.43201"
                 xlink:href="#textext-15f3a6d8-1"
                 width="100%"
                 height="100%" /></g><g
               id="g7886"
               style="fill:#000000;fill-opacity:1"><use
                 id="use7884"
                 y="134.765"
                 x="229.382"
                 xlink:href="#textext-15f3a6d8-4"
                 width="100%"
                 height="100%" /></g><g
               id="g7890"
               style="fill:#000000;fill-opacity:1"><use
                 id="use7888"
                 y="134.765"
                 x="233.256"
                 xlink:href="#textext-15f3a6d8-2"
                 width="100%"
                 height="100%" /></g><g
               id="g7894"
               style="fill:#000000;fill-opacity:1"><use
                 id="use7892"
                 y="134.765"
                 x="238.028"
                 xlink:href="#textext-15f3a6d8-5"
                 width="100%"
                 height="100%" /></g></g></g><g
           transform="matrix(1.2066139,0,0,-1.2066139,-202.45438,297.86205)"
           ns0:text="$x=100$"
           ns0:preamble=""
           id="g8428"><defs
             id="defs8409"><g
               id="g8407"><symbol
                 style="overflow:visible"
                 overflow="visible"
                 id="textext-cc9d3a9d-0"><path
                   inkscape:connector-curvature="0"
                   style="stroke:none"
                   d=""
                   id="path8389" /></symbol><symbol
                 style="overflow:visible"
                 overflow="visible"
                 id="textext-cc9d3a9d-1"><path
                   inkscape:connector-curvature="0"
                   style="stroke:none"
                   d="M 3.328125,-3.015625 C 3.390625,-3.265625 3.625,-4.1875 4.3125,-4.1875 c 0.046875,0 0.296875,0 0.5,0.125 C 4.53125,-4 4.34375,-3.765625 4.34375,-3.515625 c 0,0.15625 0.109375,0.34375 0.375,0.34375 0.21875,0 0.53125,-0.171875 0.53125,-0.578125 0,-0.515625 -0.578125,-0.65625 -0.921875,-0.65625 -0.578125,0 -0.921875,0.53125 -1.046875,0.75 -0.25,-0.65625 -0.78125,-0.75 -1.078125,-0.75 -1.03125,0 -1.609375,1.28125 -1.609375,1.53125 0,0.109375 0.109375,0.109375 0.125,0.109375 0.078125,0 0.109375,-0.03125 0.125,-0.109375 0.34375,-1.0625 1,-1.3125 1.34375,-1.3125 0.1875,0 0.53125,0.09375 0.53125,0.671875 0,0.3125 -0.171875,0.96875 -0.53125,2.375 -0.15625,0.609375 -0.515625,1.03125 -0.953125,1.03125 -0.0625,0 -0.28125,0 -0.5,-0.125 0.25,-0.0625 0.46875,-0.265625 0.46875,-0.546875 0,-0.265625 -0.21875,-0.34375 -0.359375,-0.34375 -0.3125,0 -0.546875,0.25 -0.546875,0.578125 0,0.453125 0.484375,0.65625 0.921875,0.65625 0.671875,0 1.03125,-0.703125 1.046875,-0.75 0.125,0.359375 0.484375,0.75 1.078125,0.75 1.03125,0 1.59375,-1.28125 1.59375,-1.53125 0,-0.109375 -0.078125,-0.109375 -0.109375,-0.109375 -0.09375,0 -0.109375,0.046875 -0.140625,0.109375 -0.328125,1.078125 -1,1.3125 -1.3125,1.3125 -0.390625,0 -0.546875,-0.3125 -0.546875,-0.65625 0,-0.21875 0.046875,-0.4375 0.15625,-0.875 z m 0,0"
                   id="path8392" /></symbol><symbol
                 style="overflow:visible"
                 overflow="visible"
                 id="textext-cc9d3a9d-2"><path
                   inkscape:connector-curvature="0"
                   style="stroke:none"
                   d=""
                   id="path8395" /></symbol><symbol
                 style="overflow:visible"
                 overflow="visible"
                 id="textext-cc9d3a9d-3"><path
                   inkscape:connector-curvature="0"
                   style="stroke:none"
                   d="m 6.84375,-3.265625 c 0.15625,0 0.34375,0 0.34375,-0.1875 C 7.1875,-3.65625 7,-3.65625 6.859375,-3.65625 h -5.96875 c -0.140625,0 -0.328125,0 -0.328125,0.203125 0,0.1875 0.1875,0.1875 0.328125,0.1875 z m 0.015625,1.9375 c 0.140625,0 0.328125,0 0.328125,-0.203125 0,-0.1875 -0.1875,-0.1875 -0.34375,-0.1875 H 0.890625 c -0.140625,0 -0.328125,0 -0.328125,0.1875 0,0.203125 0.1875,0.203125 0.328125,0.203125 z m 0,0"
                   id="path8398" /></symbol><symbol
                 style="overflow:visible"
                 overflow="visible"
                 id="textext-cc9d3a9d-4"><path
                   inkscape:connector-curvature="0"
                   style="stroke:none"
                   d="m 2.9375,-6.375 c 0,-0.25 0,-0.265625 -0.234375,-0.265625 C 2.078125,-6 1.203125,-6 0.890625,-6 v 0.3125 c 0.203125,0 0.78125,0 1.296875,-0.265625 v 5.171875 c 0,0.359375 -0.03125,0.46875 -0.921875,0.46875 h -0.3125 V 0 c 0.34375,-0.03125 1.203125,-0.03125 1.609375,-0.03125 0.390625,0 1.265625,0 1.609375,0.03125 v -0.3125 h -0.3125 c -0.90625,0 -0.921875,-0.109375 -0.921875,-0.46875 z m 0,0"
                   id="path8401" /></symbol><symbol
                 style="overflow:visible"
                 overflow="visible"
                 id="textext-cc9d3a9d-5"><path
                   inkscape:connector-curvature="0"
                   style="stroke:none"
                   d="m 4.578125,-3.1875 c 0,-0.796875 -0.046875,-1.59375 -0.390625,-2.328125 -0.453125,-0.96875 -1.28125,-1.125 -1.6875,-1.125 -0.609375,0 -1.328125,0.265625 -1.75,1.1875 -0.3125,0.6875 -0.359375,1.46875 -0.359375,2.265625 0,0.75 0.03125,1.640625 0.453125,2.40625 0.421875,0.796875 1.15625,1 1.640625,1 0.53125,0 1.296875,-0.203125 1.734375,-1.15625 0.3125,-0.6875 0.359375,-1.46875 0.359375,-2.25 z M 2.484375,0 C 2.09375,0 1.5,-0.25 1.328125,-1.203125 1.21875,-1.796875 1.21875,-2.71875 1.21875,-3.3125 c 0,-0.640625 0,-1.296875 0.078125,-1.828125 0.1875,-1.1875 0.9375,-1.28125 1.1875,-1.28125 0.328125,0 0.984375,0.1875 1.171875,1.171875 0.109375,0.5625 0.109375,1.3125 0.109375,1.9375 0,0.75 0,1.421875 -0.109375,2.0625 C 3.5,-0.296875 2.9375,0 2.484375,0 Z m 0,0"
                   id="path8404" /></symbol></g></defs><g
             id="textext-cc9d3a9d-6"><g
               style="fill:#000000;fill-opacity:1"
               id="g8413"><use
                 height="100%"
                 width="100%"
                 xlink:href="#textext-cc9d3a9d-1"
                 x="223.43201"
                 y="134.765"
                 id="use8411" /></g><g
               style="fill:#000000;fill-opacity:1"
               id="g8417"><use
                 height="100%"
                 width="100%"
                 xlink:href="#textext-cc9d3a9d-3"
                 x="231.89301"
                 y="134.765"
                 id="use8415" /></g><g
               style="fill:#000000;fill-opacity:1"
               id="g8425"><use
                 height="100%"
                 width="100%"
                 xlink:href="#textext-cc9d3a9d-4"
                 x="242.41151"
                 y="134.765"
                 id="use8419" /><use
                 height="100%"
                 width="100%"
                 xlink:href="#textext-cc9d3a9d-5"
                 x="247.39281"
                 y="134.765"
                 id="use8421" /><use
                 height="100%"
                 width="100%"
                 xlink:href="#textext-cc9d3a9d-5"
                 x="252.37411"
                 y="134.765"
                 id="use8423" /></g></g></g></g></g></g></svg>