<?xml version="1.0" encoding="UTF-8" standalone="no"?>
<!-- Created with Inkscape (http://www.inkscape.org/) -->

<svg
   xmlns:ns0="http://www.iki.fi/pav/software/textext/"
   xmlns:dc="http://purl.org/dc/elements/1.1/"
   xmlns:cc="http://creativecommons.org/ns#"
   xmlns:rdf="http://www.w3.org/1999/02/22-rdf-syntax-ns#"
   xmlns:svg="http://www.w3.org/2000/svg"
   xmlns="http://www.w3.org/2000/svg"
   xmlns:xlink="http://www.w3.org/1999/xlink"
   xmlns:sodipodi="http://sodipodi.sourceforge.net/DTD/sodipodi-0.dtd"
   xmlns:inkscape="http://www.inkscape.org/namespaces/inkscape"
   width="210mm"
   height="297mm"
   viewBox="0 0 210 297"
   version="1.1"
   id="svg8"
   inkscape:version="0.92.1 r15371"
   sodipodi:docname="hotspots.svg">
  <sodipodi:namedview
     id="base"
     pagecolor="#ffffff"
     bordercolor="#666666"
     borderopacity="1.0"
     inkscape:pageopacity="0.0"
     inkscape:pageshadow="2"
     inkscape:zoom="0.79731341"
     inkscape:cx="169.83803"
     inkscape:cy="556.24299"
     inkscape:document-units="mm"
     inkscape:current-layer="layer1"
     showgrid="false"
     inkscape:window-width="1600"
     inkscape:window-height="1134"
     inkscape:window-x="0"
     inkscape:window-y="27"
     inkscape:window-maximized="1" />
  <defs
     id="defs2">
    <marker
       inkscape:stockid="Arrow1Mend"
       orient="auto"
       refY="0.0"
       refX="0.0"
       id="Arrow1Mend"
       style="overflow:visible;"
       inkscape:isstock="true">
      <path
         id="path5147"
         d="M 0.0,0.0 L 5.0,-5.0 L -12.5,0.0 L 5.0,5.0 L 0.0,0.0 z "
         style="fill-rule:evenodd;stroke:#000000;stroke-width:1pt;stroke-opacity:1;fill:#000000;fill-opacity:1"
         transform="scale(0.4) rotate(180) translate(10,0)" />
    </marker>
    <marker
       inkscape:stockid="Arrow1Mstart"
       orient="auto"
       refY="0.0"
       refX="0.0"
       id="Arrow1Mstart"
       style="overflow:visible"
       inkscape:isstock="true">
      <path
         id="path5144"
         d="M 0.0,0.0 L 5.0,-5.0 L -12.5,0.0 L 5.0,5.0 L 0.0,0.0 z "
         style="fill-rule:evenodd;stroke:#000000;stroke-width:1pt;stroke-opacity:1;fill:#000000;fill-opacity:1"
         transform="scale(0.4) translate(10,0)" />
    </marker>
  </defs>
  <metadata
     id="metadata5">
    <rdf:RDF>
      <cc:Work
         rdf:about="">
        <dc:format>image/svg+xml</dc:format>
        <dc:type
           rdf:resource="http://purl.org/dc/dcmitype/StillImage" />
        <dc:title />
      </cc:Work>
    </rdf:RDF>
  </metadata>
  <g
     inkscape:label="Layer 1"
     inkscape:groupmode="layer"
     id="layer1">
    <rect
       style="opacity:1;fill:none;fill-opacity:1;stroke:#000000;stroke-width:0.64421821;stroke-linecap:round;stroke-linejoin:round;stroke-miterlimit:4;stroke-dasharray:none;stroke-dashoffset:0;stroke-opacity:1"
       id="rect4485"
       width="79.355782"
       height="79.355782"
       x="27.822109"
       y="34.822109" />
    <ellipse
       style="opacity:1;fill:none;fill-opacity:1;stroke:#0000ff;stroke-width:0.65430534;stroke-linecap:round;stroke-linejoin:round;stroke-miterlimit:4;stroke-dasharray:none;stroke-dashoffset:0;stroke-opacity:1"
       id="path4487"
       cx="67.5"
       cy="74.5"
       rx="12.172848"
       ry="22.172848" />
    <ellipse
       ry="22.172848"
       rx="12.172848"
       cy="27.5"
       cx="-34.5"
       id="ellipse4489"
       style="opacity:1;fill:none;fill-opacity:1;stroke:#ff0000;stroke-width:0.65430534;stroke-linecap:round;stroke-linejoin:round;stroke-miterlimit:4;stroke-dasharray:none;stroke-dashoffset:0;stroke-opacity:1"
       transform="rotate(-90)" />
    <ellipse
       transform="rotate(-90)"
       style="opacity:1;fill:none;fill-opacity:1;stroke:#ff0000;stroke-width:0.65430534;stroke-linecap:round;stroke-linejoin:round;stroke-miterlimit:4;stroke-dasharray:none;stroke-dashoffset:0;stroke-opacity:1"
       id="ellipse4491"
       cx="-114.5"
       cy="27.5"
       rx="12.172848"
       ry="22.172848" />
    <ellipse
       transform="rotate(-90)"
       style="opacity:1;fill:none;fill-opacity:1;stroke:#ff0000;stroke-width:0.65430534;stroke-linecap:round;stroke-linejoin:round;stroke-miterlimit:4;stroke-dasharray:none;stroke-dashoffset:0;stroke-opacity:1"
       id="ellipse4493"
       cx="-34.5"
       cy="107.5"
       rx="12.172848"
       ry="22.172848" />
    <ellipse
       ry="22.172848"
       rx="12.172848"
       cy="107.5"
       cx="-114.5"
       id="ellipse4495"
       style="opacity:1;fill:none;fill-opacity:1;stroke:#ff0000;stroke-width:0.65430534;stroke-linecap:round;stroke-linejoin:round;stroke-miterlimit:4;stroke-dasharray:none;stroke-dashoffset:0;stroke-opacity:1"
       transform="rotate(-90)" />
    <ellipse
       ry="22.172848"
       rx="12.172848"
       cy="74.5"
       cx="167.5"
       id="ellipse4497"
       style="opacity:1;fill:none;fill-opacity:1;stroke:#0000ff;stroke-width:0.65430534;stroke-linecap:round;stroke-linejoin:round;stroke-miterlimit:4;stroke-dasharray:none;stroke-dashoffset:0;stroke-opacity:1" />
    <ellipse
       style="opacity:1;fill:none;fill-opacity:1;stroke:#ff0000;stroke-width:0.65430534;stroke-linecap:round;stroke-linejoin:round;stroke-miterlimit:4;stroke-dasharray:none;stroke-dashoffset:0;stroke-opacity:1"
       id="ellipse4499"
       cx="-74.5"
       cy="167.5"
       rx="12.172848"
       ry="22.172848"
       transform="rotate(-90)" />
    <circle
       style="opacity:1;fill:#000000;fill-opacity:1;stroke:#000000;stroke-width:0.41147336;stroke-linecap:round;stroke-linejoin:round;stroke-miterlimit:4;stroke-dasharray:none;stroke-dashoffset:0;stroke-opacity:1"
       id="path4501"
       cx="156.81815"
       cy="63.857841"
       r="1.2942634" />
    <circle
       r="1.2942634"
       cy="63.857841"
       cx="177.98453"
       id="circle4512"
       style="opacity:1;fill:#000000;fill-opacity:1;stroke:#000000;stroke-width:0.41147336;stroke-linecap:round;stroke-linejoin:round;stroke-miterlimit:4;stroke-dasharray:none;stroke-dashoffset:0;stroke-opacity:1" />
    <circle
       style="opacity:1;fill:#000000;fill-opacity:1;stroke:#000000;stroke-width:0.41147336;stroke-linecap:round;stroke-linejoin:round;stroke-miterlimit:4;stroke-dasharray:none;stroke-dashoffset:0;stroke-opacity:1"
       id="circle4514"
       cx="177.98453"
       cy="85.024529"
       r="1.2942634" />
    <circle
       r="1.2942634"
       cy="85.024529"
       cx="156.81815"
       id="circle4516"
       style="opacity:1;fill:#000000;fill-opacity:1;stroke:#000000;stroke-width:0.41147336;stroke-linecap:round;stroke-linejoin:round;stroke-miterlimit:4;stroke-dasharray:none;stroke-dashoffset:0;stroke-opacity:1" />
    <g
       transform="translate(-48.449162,-34.511732)"
       ns0:text="$\\Psi_{\\mathrm{a}}$"
       ns0:preamble=""
       id="g4558">
      <defs
         id="defs4547">
        <g
           id="g4545">
          <symbol
             style="overflow:visible"
             overflow="visible"
             id="textext-a27ef8ce-0">
            <path
               inkscape:connector-curvature="0"
               style="stroke:none"
               d=""
               id="path4533" />
          </symbol>
          <symbol
             style="overflow:visible"
             overflow="visible"
             id="textext-a27ef8ce-1">
            <path
               inkscape:connector-curvature="0"
               style="stroke:none"
               d="M 4.25,-6.015625 C 4.25,-6.359375 4.25,-6.5 5.203125,-6.5 H 5.53125 v -0.3125 c -0.359375,0.03125 -1.28125,0.03125 -1.6875,0.03125 -0.40625,0 -1.328125,0 -1.6875,-0.03125 V -6.5 h 0.328125 c 0.9375,0 0.9375,0.125 0.9375,0.484375 V -1.59375 C 2.125,-1.9375 2.078125,-3.484375 2.078125,-4.125 2.0625,-5.328125 1.625,-5.515625 1.1875,-5.515625 h -0.375 c -0.140625,0 -0.25,0 -0.25,0.109375 0,0.046875 0.03125,0.09375 0.09375,0.109375 0.328125,0.03125 0.578125,0.171875 0.59375,1.34375 0,0.234375 0.03125,1.015625 0.5,1.6875 0.390625,0.546875 1,0.828125 1.671875,0.921875 v 0.5625 c 0,0.328125 0,0.46875 -0.9375,0.46875 H 2.15625 V 0 c 0.359375,-0.03125 1.265625,-0.03125 1.6875,-0.03125 0.40625,0 1.328125,0 1.6875,0.03125 V -0.3125 H 5.203125 C 4.25,-0.3125 4.25,-0.4375 4.25,-0.78125 v -0.5625 C 4.96875,-1.4375 5.578125,-1.734375 5.96875,-2.25 6.484375,-2.953125 6.5,-3.75 6.5,-4.1875 c 0,-0.15625 0.015625,-1.046875 0.546875,-1.109375 0.0625,-0.015625 0.125,-0.03125 0.125,-0.109375 0,-0.109375 -0.078125,-0.109375 -0.234375,-0.109375 h -0.375 c -0.390625,0 -0.875,0.0625 -0.890625,1.515625 C 5.65625,-2.90625 5.328125,-1.859375 4.25,-1.59375 Z m 0,0"
               id="path4536" />
          </symbol>
          <symbol
             style="overflow:visible"
             overflow="visible"
             id="textext-a27ef8ce-2">
            <path
               inkscape:connector-curvature="0"
               style="stroke:none"
               d=""
               id="path4539" />
          </symbol>
          <symbol
             style="overflow:visible"
             overflow="visible"
             id="textext-a27ef8ce-3">
            <path
               inkscape:connector-curvature="0"
               style="stroke:none"
               d="m 3.109375,-1.875 c 0,-0.359375 0,-0.625 -0.328125,-0.890625 C 2.5,-3 2.171875,-3.109375 1.75,-3.109375 c -0.65625,0 -1.125,0.25 -1.125,0.671875 0,0.234375 0.15625,0.34375 0.34375,0.34375 0.1875,0 0.328125,-0.140625 0.328125,-0.328125 0,-0.109375 -0.0625,-0.265625 -0.25,-0.3125 0.25,-0.171875 0.65625,-0.171875 0.6875,-0.171875 0.390625,0 0.828125,0.25 0.828125,0.84375 v 0.203125 C 2.171875,-1.84375 1.71875,-1.8125 1.203125,-1.625 c -0.625,0.21875 -0.8125,0.609375 -0.8125,0.921875 0,0.59375 0.71875,0.765625 1.21875,0.765625 0.546875,0 0.875,-0.3125 1.03125,-0.578125 0.015625,0.28125 0.203125,0.546875 0.53125,0.546875 0.015625,0 0.6875,0 0.6875,-0.65625 V -1.015625 H 3.625 v 0.375 c 0,0.078125 0,0.40625 -0.265625,0.40625 -0.25,0 -0.25,-0.328125 -0.25,-0.40625 z M 2.5625,-0.984375 c 0,0.671875 -0.59375,0.859375 -0.90625,0.859375 -0.359375,0 -0.6875,-0.234375 -0.6875,-0.578125 0,-0.390625 0.328125,-0.921875 1.59375,-0.96875 z m 0,0"
               id="path4542" />
          </symbol>
        </g>
      </defs>
      <g
         id="textext-a27ef8ce-4">
        <g
           style="fill:#000000;fill-opacity:1"
           id="g4551">
          <use
             height="100%"
             width="100%"
             xlink:href="#textext-a27ef8ce-1"
             x="223.43201"
             y="134.765"
             id="use4549" />
        </g>
        <g
           style="fill:#000000;fill-opacity:1"
           id="g4555">
          <use
             height="100%"
             width="100%"
             xlink:href="#textext-a27ef8ce-3"
             x="231.181"
             y="136.259"
             id="use4553" />
        </g>
      </g>
    </g>
    <g
       id="g4681"
       transform="translate(-31.515818,-57.79508)"
       ns0:preamble=""
       ns0:text="$\\Psi_{\\mathrm{b}}$">
      <defs
         id="defs4670">
        <g
           id="g4668">
          <symbol
             id="textext-2d3c617c-0"
             overflow="visible">
            <path
               id="path4656"
               d=""
               style="stroke:none;" />
          </symbol>
          <symbol
             id="textext-2d3c617c-1"
             overflow="visible">
            <path
               id="path4659"
               d="M 4.25 -6.015625 C 4.25 -6.359375 4.25 -6.5 5.203125 -6.5 L 5.53125 -6.5 L 5.53125 -6.8125 C 5.171875 -6.78125 4.25 -6.78125 3.84375 -6.78125 C 3.4375 -6.78125 2.515625 -6.78125 2.15625 -6.8125 L 2.15625 -6.5 L 2.484375 -6.5 C 3.421875 -6.5 3.421875 -6.375 3.421875 -6.015625 L 3.421875 -1.59375 C 2.125 -1.9375 2.078125 -3.484375 2.078125 -4.125 C 2.0625 -5.328125 1.625 -5.515625 1.1875 -5.515625 L 0.8125 -5.515625 C 0.671875 -5.515625 0.5625 -5.515625 0.5625 -5.40625 C 0.5625 -5.359375 0.59375 -5.3125 0.65625 -5.296875 C 0.984375 -5.265625 1.234375 -5.125 1.25 -3.953125 C 1.25 -3.71875 1.28125 -2.9375 1.75 -2.265625 C 2.140625 -1.71875 2.75 -1.4375 3.421875 -1.34375 L 3.421875 -0.78125 C 3.421875 -0.453125 3.421875 -0.3125 2.484375 -0.3125 L 2.15625 -0.3125 L 2.15625 0 C 2.515625 -0.03125 3.421875 -0.03125 3.84375 -0.03125 C 4.25 -0.03125 5.171875 -0.03125 5.53125 0 L 5.53125 -0.3125 L 5.203125 -0.3125 C 4.25 -0.3125 4.25 -0.4375 4.25 -0.78125 L 4.25 -1.34375 C 4.96875 -1.4375 5.578125 -1.734375 5.96875 -2.25 C 6.484375 -2.953125 6.5 -3.75 6.5 -4.1875 C 6.5 -4.34375 6.515625 -5.234375 7.046875 -5.296875 C 7.109375 -5.3125 7.171875 -5.328125 7.171875 -5.40625 C 7.171875 -5.515625 7.09375 -5.515625 6.9375 -5.515625 L 6.5625 -5.515625 C 6.171875 -5.515625 5.6875 -5.453125 5.671875 -4 C 5.65625 -2.90625 5.328125 -1.859375 4.25 -1.59375 Z M 4.25 -6.015625 "
               style="stroke:none;" />
          </symbol>
          <symbol
             id="textext-2d3c617c-2"
             overflow="visible">
            <path
               id="path4662"
               d=""
               style="stroke:none;" />
          </symbol>
          <symbol
             id="textext-2d3c617c-3"
             overflow="visible">
            <path
               id="path4665"
               d="M 1.390625 -4.84375 L 0.34375 -4.765625 L 0.34375 -4.515625 C 0.8125 -4.515625 0.859375 -4.453125 0.859375 -4.109375 L 0.859375 0 L 1.09375 0 L 1.34375 -0.421875 C 1.609375 -0.078125 2 0.0625 2.359375 0.0625 C 3.28125 0.0625 4.0625 -0.625 4.0625 -1.5 C 4.0625 -2.359375 3.359375 -3.078125 2.4375 -3.078125 C 2.015625 -3.078125 1.640625 -2.90625 1.390625 -2.65625 Z M 1.421875 -2.328125 C 1.609375 -2.65625 1.984375 -2.875 2.40625 -2.875 C 2.796875 -2.875 3.078125 -2.65625 3.21875 -2.453125 C 3.359375 -2.25 3.4375 -1.96875 3.4375 -1.515625 C 3.4375 -1.359375 3.4375 -0.828125 3.15625 -0.5 C 2.875 -0.1875 2.53125 -0.125 2.328125 -0.125 C 1.765625 -0.125 1.484375 -0.5625 1.421875 -0.703125 Z M 1.421875 -2.328125 "
               style="stroke:none;" />
          </symbol>
        </g>
      </defs>
      <g
         id="textext-2d3c617c-4">
        <g
           id="g4674"
           style="fill:rgb(0%,0%,0%);fill-opacity:1;">
          <use
             id="use4672"
             y="134.765"
             x="223.432"
             xlink:href="#textext-2d3c617c-1" />
        </g>
        <g
           id="g4678"
           style="fill:rgb(0%,0%,0%);fill-opacity:1;">
          <use
             id="use4676"
             y="136.259"
             x="231.181"
             xlink:href="#textext-2d3c617c-3" />
        </g>
      </g>
    </g>
    <g
       ns0:text="$\\tilde{\\Psi}_{\\mathrm{a}}$"
       ns0:preamble=""
       transform="translate(-147.33855,-34.843576)"
       id="g4843">
      <defs
         id="defs4828">
        <g
           id="g4826">
          <symbol
             overflow="visible"
             id="textext-85160286-0"
             style="overflow:visible">
            <path
               style="stroke:none"
               d=""
               id="path4811"
               inkscape:connector-curvature="0" />
          </symbol>
          <symbol
             overflow="visible"
             id="textext-85160286-1"
             style="overflow:visible">
            <path
               style="stroke:none"
               d="M 4.140625,-6.515625 3.984375,-6.65625 c 0,0 -0.375,0.46875 -0.8125,0.46875 -0.234375,0 -0.484375,-0.140625 -0.65625,-0.25 C 2.25,-6.59375 2.078125,-6.65625 1.90625,-6.65625 c -0.375,0 -0.578125,0.21875 -1.078125,0.78125 l 0.15625,0.140625 c 0,0 0.375,-0.46875 0.8125,-0.46875 0.234375,0 0.484375,0.140625 0.65625,0.234375 0.265625,0.171875 0.453125,0.234375 0.625,0.234375 0.375,0 0.5625,-0.21875 1.0625,-0.78125 z m 0,0"
               id="path4814"
               inkscape:connector-curvature="0" />
          </symbol>
          <symbol
             overflow="visible"
             id="textext-85160286-2"
             style="overflow:visible">
            <path
               style="stroke:none"
               d="M 4.25,-6.015625 C 4.25,-6.359375 4.25,-6.5 5.203125,-6.5 H 5.53125 v -0.3125 c -0.359375,0.03125 -1.28125,0.03125 -1.6875,0.03125 -0.40625,0 -1.328125,0 -1.6875,-0.03125 V -6.5 h 0.328125 c 0.9375,0 0.9375,0.125 0.9375,0.484375 V -1.59375 C 2.125,-1.9375 2.078125,-3.484375 2.078125,-4.125 2.0625,-5.328125 1.625,-5.515625 1.1875,-5.515625 h -0.375 c -0.140625,0 -0.25,0 -0.25,0.109375 0,0.046875 0.03125,0.09375 0.09375,0.109375 0.328125,0.03125 0.578125,0.171875 0.59375,1.34375 0,0.234375 0.03125,1.015625 0.5,1.6875 0.390625,0.546875 1,0.828125 1.671875,0.921875 v 0.5625 c 0,0.328125 0,0.46875 -0.9375,0.46875 H 2.15625 V 0 c 0.359375,-0.03125 1.265625,-0.03125 1.6875,-0.03125 0.40625,0 1.328125,0 1.6875,0.03125 V -0.3125 H 5.203125 C 4.25,-0.3125 4.25,-0.4375 4.25,-0.78125 v -0.5625 C 4.96875,-1.4375 5.578125,-1.734375 5.96875,-2.25 6.484375,-2.953125 6.5,-3.75 6.5,-4.1875 c 0,-0.15625 0.015625,-1.046875 0.546875,-1.109375 0.0625,-0.015625 0.125,-0.03125 0.125,-0.109375 0,-0.109375 -0.078125,-0.109375 -0.234375,-0.109375 h -0.375 c -0.390625,0 -0.875,0.0625 -0.890625,1.515625 C 5.65625,-2.90625 5.328125,-1.859375 4.25,-1.59375 Z m 0,0"
               id="path4817"
               inkscape:connector-curvature="0" />
          </symbol>
          <symbol
             overflow="visible"
             id="textext-85160286-3"
             style="overflow:visible">
            <path
               style="stroke:none"
               d=""
               id="path4820"
               inkscape:connector-curvature="0" />
          </symbol>
          <symbol
             overflow="visible"
             id="textext-85160286-4"
             style="overflow:visible">
            <path
               style="stroke:none"
               d="m 3.109375,-1.875 c 0,-0.359375 0,-0.625 -0.328125,-0.890625 C 2.5,-3 2.171875,-3.109375 1.75,-3.109375 c -0.65625,0 -1.125,0.25 -1.125,0.671875 0,0.234375 0.15625,0.34375 0.34375,0.34375 0.1875,0 0.328125,-0.140625 0.328125,-0.328125 0,-0.109375 -0.0625,-0.265625 -0.25,-0.3125 0.25,-0.171875 0.65625,-0.171875 0.6875,-0.171875 0.390625,0 0.828125,0.25 0.828125,0.84375 v 0.203125 C 2.171875,-1.84375 1.71875,-1.8125 1.203125,-1.625 c -0.625,0.21875 -0.8125,0.609375 -0.8125,0.921875 0,0.59375 0.71875,0.765625 1.21875,0.765625 0.546875,0 0.875,-0.3125 1.03125,-0.578125 0.015625,0.28125 0.203125,0.546875 0.53125,0.546875 0.015625,0 0.6875,0 0.6875,-0.65625 V -1.015625 H 3.625 v 0.375 c 0,0.078125 0,0.40625 -0.265625,0.40625 -0.25,0 -0.25,-0.328125 -0.25,-0.40625 z M 2.5625,-0.984375 c 0,0.671875 -0.59375,0.859375 -0.90625,0.859375 -0.359375,0 -0.6875,-0.234375 -0.6875,-0.578125 0,-0.390625 0.328125,-0.921875 1.59375,-0.96875 z m 0,0"
               id="path4823"
               inkscape:connector-curvature="0" />
          </symbol>
        </g>
      </defs>
      <g
         id="textext-85160286-5">
        <g
           style="fill:#000000;fill-opacity:1"
           id="g4832">
          <use
             xlink:href="#textext-85160286-1"
             x="224.81599"
             y="132.24699"
             id="use4830"
             width="100%"
             height="100%" />
        </g>
        <g
           style="fill:#000000;fill-opacity:1"
           id="g4836">
          <use
             xlink:href="#textext-85160286-2"
             x="223.43201"
             y="134.765"
             id="use4834"
             width="100%"
             height="100%" />
        </g>
        <g
           style="fill:#000000;fill-opacity:1"
           id="g4840">
          <use
             xlink:href="#textext-85160286-4"
             x="231.181"
             y="136.259"
             id="use4838"
             width="100%"
             height="100%" />
        </g>
      </g>
    </g>
    <g
       id="g5045"
       transform="translate(-106.51246,-79.033069)"
       ns0:preamble=""
       ns0:text="$\\tilde{\\Psi}_{\\mathrm{b}}$">
      <defs
         id="defs5030">
        <g
           id="g5028">
          <symbol
             id="textext-7e400de0-0"
             overflow="visible"
             style="overflow:visible">
            <path
               id="path5013"
               d=""
               style="stroke:none"
               inkscape:connector-curvature="0" />
          </symbol>
          <symbol
             id="textext-7e400de0-1"
             overflow="visible"
             style="overflow:visible">
            <path
               id="path5016"
               d="M 4.140625,-6.515625 3.984375,-6.65625 c 0,0 -0.375,0.46875 -0.8125,0.46875 -0.234375,0 -0.484375,-0.140625 -0.65625,-0.25 C 2.25,-6.59375 2.078125,-6.65625 1.90625,-6.65625 c -0.375,0 -0.578125,0.21875 -1.078125,0.78125 l 0.15625,0.140625 c 0,0 0.375,-0.46875 0.8125,-0.46875 0.234375,0 0.484375,0.140625 0.65625,0.234375 0.265625,0.171875 0.453125,0.234375 0.625,0.234375 0.375,0 0.5625,-0.21875 1.0625,-0.78125 z m 0,0"
               style="stroke:none"
               inkscape:connector-curvature="0" />
          </symbol>
          <symbol
             id="textext-7e400de0-2"
             overflow="visible"
             style="overflow:visible">
            <path
               id="path5019"
               d="M 4.25,-6.015625 C 4.25,-6.359375 4.25,-6.5 5.203125,-6.5 H 5.53125 v -0.3125 c -0.359375,0.03125 -1.28125,0.03125 -1.6875,0.03125 -0.40625,0 -1.328125,0 -1.6875,-0.03125 V -6.5 h 0.328125 c 0.9375,0 0.9375,0.125 0.9375,0.484375 V -1.59375 C 2.125,-1.9375 2.078125,-3.484375 2.078125,-4.125 2.0625,-5.328125 1.625,-5.515625 1.1875,-5.515625 h -0.375 c -0.140625,0 -0.25,0 -0.25,0.109375 0,0.046875 0.03125,0.09375 0.09375,0.109375 0.328125,0.03125 0.578125,0.171875 0.59375,1.34375 0,0.234375 0.03125,1.015625 0.5,1.6875 0.390625,0.546875 1,0.828125 1.671875,0.921875 v 0.5625 c 0,0.328125 0,0.46875 -0.9375,0.46875 H 2.15625 V 0 c 0.359375,-0.03125 1.265625,-0.03125 1.6875,-0.03125 0.40625,0 1.328125,0 1.6875,0.03125 V -0.3125 H 5.203125 C 4.25,-0.3125 4.25,-0.4375 4.25,-0.78125 v -0.5625 C 4.96875,-1.4375 5.578125,-1.734375 5.96875,-2.25 6.484375,-2.953125 6.5,-3.75 6.5,-4.1875 c 0,-0.15625 0.015625,-1.046875 0.546875,-1.109375 0.0625,-0.015625 0.125,-0.03125 0.125,-0.109375 0,-0.109375 -0.078125,-0.109375 -0.234375,-0.109375 h -0.375 c -0.390625,0 -0.875,0.0625 -0.890625,1.515625 C 5.65625,-2.90625 5.328125,-1.859375 4.25,-1.59375 Z m 0,0"
               style="stroke:none"
               inkscape:connector-curvature="0" />
          </symbol>
          <symbol
             id="textext-7e400de0-3"
             overflow="visible"
             style="overflow:visible">
            <path
               id="path5022"
               d=""
               style="stroke:none"
               inkscape:connector-curvature="0" />
          </symbol>
          <symbol
             id="textext-7e400de0-4"
             overflow="visible"
             style="overflow:visible">
            <path
               id="path5025"
               d="M 1.390625,-4.84375 0.34375,-4.765625 v 0.25 c 0.46875,0 0.515625,0.0625 0.515625,0.40625 V 0 H 1.09375 l 0.25,-0.421875 C 1.609375,-0.078125 2,0.0625 2.359375,0.0625 3.28125,0.0625 4.0625,-0.625 4.0625,-1.5 c 0,-0.859375 -0.703125,-1.578125 -1.625,-1.578125 -0.421875,0 -0.796875,0.171875 -1.046875,0.421875 z m 0.03125,2.515625 C 1.609375,-2.65625 1.984375,-2.875 2.40625,-2.875 c 0.390625,0 0.671875,0.21875 0.8125,0.421875 0.140625,0.203125 0.21875,0.484375 0.21875,0.9375 0,0.15625 0,0.6875 -0.28125,1.015625 -0.28125,0.3125 -0.625,0.375 -0.828125,0.375 -0.5625,0 -0.84375,-0.4375 -0.90625,-0.578125 z m 0,0"
               style="stroke:none"
               inkscape:connector-curvature="0" />
          </symbol>
        </g>
      </defs>
      <g
         id="textext-7e400de0-5">
        <g
           id="g5034"
           style="fill:#000000;fill-opacity:1">
          <use
             id="use5032"
             y="132.24699"
             x="224.81599"
             xlink:href="#textext-7e400de0-1"
             width="100%"
             height="100%" />
        </g>
        <g
           id="g5038"
           style="fill:#000000;fill-opacity:1">
          <use
             id="use5036"
             y="134.765"
             x="223.43201"
             xlink:href="#textext-7e400de0-2"
             width="100%"
             height="100%" />
        </g>
        <g
           id="g5042"
           style="fill:#000000;fill-opacity:1">
          <use
             id="use5040"
             y="136.259"
             x="231.181"
             xlink:href="#textext-7e400de0-4"
             width="100%"
             height="100%" />
        </g>
      </g>
    </g>
    <path
       style="fill:none;fill-rule:evenodd;stroke:#000000;stroke-width:0.64020276;stroke-linecap:butt;stroke-linejoin:miter;stroke-miterlimit:4;stroke-dasharray:none;stroke-opacity:1;marker-end:url(#Arrow1Mend)"
       d="M 57.500802,84.231112 94.773157,46.958738"
       id="path5136"
       inkscape:connector-curvature="0" />
    <circle
       style="opacity:1;fill:#000000;fill-opacity:1;stroke:#000000;stroke-width:0.41147336;stroke-linecap:round;stroke-linejoin:round;stroke-miterlimit:4;stroke-dasharray:none;stroke-dashoffset:0;stroke-opacity:1"
       id="circle6190"
       cx="56.701374"
       cy="85.024529"
       r="1.2942634" />
    <circle
       r="1.2942634"
       cy="45.2033"
       cx="96.754456"
       id="circle6192"
       style="opacity:1;fill:#000000;fill-opacity:1;stroke:#000000;stroke-width:0.41147336;stroke-linecap:round;stroke-linejoin:round;stroke-miterlimit:4;stroke-dasharray:none;stroke-dashoffset:0;stroke-opacity:1" />
    <circle
       r="1.2942634"
       cy="63.786541"
       cx="56.800999"
       id="circle6196"
       style="opacity:1;fill:#000000;fill-opacity:1;stroke:#000000;stroke-width:0.41147336;stroke-linecap:round;stroke-linejoin:round;stroke-miterlimit:4;stroke-dasharray:none;stroke-dashoffset:0;stroke-opacity:1" />
    <circle
       style="opacity:1;fill:#000000;fill-opacity:1;stroke:#000000;stroke-width:0.41100001;stroke-linecap:round;stroke-linejoin:round;stroke-miterlimit:4;stroke-dasharray:none;stroke-dashoffset:0;stroke-opacity:1"
       id="circle6198"
       cx="78.039764"
       cy="63.786541"
       r="1.2942634" />
    <circle
       r="1.2942634"
       cy="85.024529"
       cx="78.039001"
       id="circle6200"
       style="opacity:1;fill:#000000;fill-opacity:1;stroke:#000000;stroke-width:0.41147336;stroke-linecap:round;stroke-linejoin:round;stroke-miterlimit:4;stroke-dasharray:none;stroke-dashoffset:0;stroke-opacity:1" />
    <circle
       style="opacity:1;fill:#000000;fill-opacity:1;stroke:#000000;stroke-width:0.41147336;stroke-linecap:round;stroke-linejoin:round;stroke-miterlimit:4;stroke-dasharray:none;stroke-dashoffset:0;stroke-opacity:1"
       id="circle6206"
       cx="37.786289"
       cy="45.2033"
       r="1.2942634" />
    <circle
       r="1.2942634"
       cy="103.93961"
       cx="38.118134"
       id="circle6210"
       style="opacity:1;fill:#000000;fill-opacity:1;stroke:#000000;stroke-width:0.41147336;stroke-linecap:round;stroke-linejoin:round;stroke-miterlimit:4;stroke-dasharray:none;stroke-dashoffset:0;stroke-opacity:1" />
    <circle
       style="opacity:1;fill:#000000;fill-opacity:1;stroke:#000000;stroke-width:0.41147336;stroke-linecap:round;stroke-linejoin:round;stroke-miterlimit:4;stroke-dasharray:none;stroke-dashoffset:0;stroke-opacity:1"
       id="circle6214"
       cx="96.854446"
       cy="103.93961"
       r="1.2942634" />
    <g
       id="g6857"
       transform="matrix(0.52753979,-0.52753979,0.52753979,0.52753979,-122.93594,117.57217)"
       ns0:preamble=""
       ns0:text="$\\mathbf{Q} = (\\pi,\\pi)$">
      <defs
         id="defs6826">
        <g
           id="g6824">
          <symbol
             id="textext-dfa06a45-0"
             overflow="visible"
             style="overflow:visible">
            <path
               id="path6797"
               d=""
               style="stroke:none"
               inkscape:connector-curvature="0" />
          </symbol>
          <symbol
             id="textext-dfa06a45-1"
             overflow="visible"
             style="overflow:visible">
            <path
               id="path6800"
               d="m 5.90625,-0.171875 c 1.625,-0.640625 2.0625,-2.125 2.0625,-3.203125 0,-2.15625 -1.453125,-3.578125 -3.65625,-3.578125 -2.28125,0 -3.671875,1.484375 -3.671875,3.578125 0,2.03125 1.359375,3.484375 3.671875,3.484375 0.21875,0 0.546875,-0.015625 0.9375,-0.09375 0.28125,1.125 0.484375,1.921875 1.40625,1.921875 1.015625,0 1.375,-1.1875 1.375,-1.859375 0,-0.078125 0,-0.25 -0.1875,-0.25 -0.140625,0 -0.171875,0.125 -0.171875,0.1875 -0.0625,0.390625 -0.6875,0.390625 -0.859375,0.390625 -0.21875,0 -0.515625,0 -0.90625,-0.578125 z m -2.546875,-0.34375 c -1.21875,-0.578125 -1.25,-2.09375 -1.25,-2.875 0,-0.390625 0,-1.34375 0.359375,-2.046875 0.515625,-0.96875 1.375,-1.109375 1.828125,-1.109375 0.53125,0 1.3125,0.203125 1.796875,1.046875 0.375,0.671875 0.40625,1.515625 0.40625,2.109375 0,0.5625 0,2.046875 -0.953125,2.703125 -0.21875,-0.328125 -0.578125,-0.859375 -1.25,-0.859375 -0.515625,0 -0.96875,0.34375 -0.96875,0.8125 0,0.0625 0.015625,0.171875 0.03125,0.21875 z m 1.765625,0.0625 c -0.25,0.109375 -0.546875,0.15625 -0.8125,0.15625 -0.546875,0 -0.625,-0.3125 -0.625,-0.4375 C 3.6875,-1 3.984375,-1.1875 4.3125,-1.1875 c 0.265625,0 0.609375,0.109375 0.8125,0.734375 z m 0,0"
               style="stroke:none"
               inkscape:connector-curvature="0" />
          </symbol>
          <symbol
             id="textext-dfa06a45-2"
             overflow="visible"
             style="overflow:visible">
            <path
               id="path6803"
               d=""
               style="stroke:none"
               inkscape:connector-curvature="0" />
          </symbol>
          <symbol
             id="textext-dfa06a45-3"
             overflow="visible"
             style="overflow:visible">
            <path
               id="path6806"
               d="m 6.84375,-3.265625 c 0.15625,0 0.34375,0 0.34375,-0.1875 C 7.1875,-3.65625 7,-3.65625 6.859375,-3.65625 h -5.96875 c -0.140625,0 -0.328125,0 -0.328125,0.203125 0,0.1875 0.1875,0.1875 0.328125,0.1875 z m 0.015625,1.9375 c 0.140625,0 0.328125,0 0.328125,-0.203125 0,-0.1875 -0.1875,-0.1875 -0.34375,-0.1875 H 0.890625 c -0.140625,0 -0.328125,0 -0.328125,0.1875 0,0.203125 0.1875,0.203125 0.328125,0.203125 z m 0,0"
               style="stroke:none"
               inkscape:connector-curvature="0" />
          </symbol>
          <symbol
             id="textext-dfa06a45-4"
             overflow="visible"
             style="overflow:visible">
            <path
               id="path6809"
               d="m 3.296875,2.390625 c 0,-0.03125 0,-0.046875 -0.171875,-0.21875 C 1.890625,0.921875 1.5625,-0.96875 1.5625,-2.5 c 0,-1.734375 0.375,-3.46875 1.609375,-4.703125 0.125,-0.125 0.125,-0.140625 0.125,-0.171875 0,-0.078125 -0.03125,-0.109375 -0.09375,-0.109375 -0.109375,0 -1,0.6875 -1.59375,1.953125 -0.5,1.09375 -0.625,2.203125 -0.625,3.03125 0,0.78125 0.109375,1.984375 0.65625,3.125 C 2.25,1.84375 3.09375,2.5 3.203125,2.5 c 0.0625,0 0.09375,-0.03125 0.09375,-0.109375 z m 0,0"
               style="stroke:none"
               inkscape:connector-curvature="0" />
          </symbol>
          <symbol
             id="textext-dfa06a45-5"
             overflow="visible"
             style="overflow:visible">
            <path
               id="path6812"
               d="m 2.875,-2.5 c 0,-0.765625 -0.109375,-1.96875 -0.65625,-3.109375 -0.59375,-1.21875 -1.453125,-1.875 -1.546875,-1.875 -0.0625,0 -0.109375,0.046875 -0.109375,0.109375 0,0.03125 0,0.046875 0.1875,0.234375 0.984375,0.984375 1.546875,2.5625 1.546875,4.640625 0,1.71875 -0.359375,3.46875 -1.59375,4.71875 C 0.5625,2.34375 0.5625,2.359375 0.5625,2.390625 0.5625,2.453125 0.609375,2.5 0.671875,2.5 0.765625,2.5 1.671875,1.8125 2.25,0.546875 2.765625,-0.546875 2.875,-1.65625 2.875,-2.5 Z m 0,0"
               style="stroke:none"
               inkscape:connector-curvature="0" />
          </symbol>
          <symbol
             id="textext-dfa06a45-6"
             overflow="visible"
             style="overflow:visible">
            <path
               id="path6815"
               d=""
               style="stroke:none"
               inkscape:connector-curvature="0" />
          </symbol>
          <symbol
             id="textext-dfa06a45-7"
             overflow="visible"
             style="overflow:visible">
            <path
               id="path6818"
               d="m 2.640625,-3.71875 h 1.125 C 3.4375,-2.25 3.34375,-1.8125 3.34375,-1.140625 c 0,0.140625 0,0.40625 0.078125,0.75 0.109375,0.4375 0.21875,0.5 0.359375,0.5 0.203125,0 0.421875,-0.171875 0.421875,-0.375 0,-0.0625 0,-0.078125 -0.0625,-0.21875 -0.296875,-0.71875 -0.296875,-1.375 -0.296875,-1.65625 0,-0.515625 0.078125,-1.0625 0.1875,-1.578125 h 1.125 c 0.140625,0 0.5,0 0.5,-0.34375 0,-0.234375 -0.21875,-0.234375 -0.40625,-0.234375 H 1.90625 c -0.21875,0 -0.59375,0 -1.03125,0.46875 -0.34375,0.390625 -0.609375,0.84375 -0.609375,0.890625 0,0.015625 0,0.109375 0.125,0.109375 0.078125,0 0.09375,-0.046875 0.15625,-0.125 C 1.03125,-3.71875 1.609375,-3.71875 1.8125,-3.71875 H 2.375 C 2.0625,-2.515625 1.53125,-1.3125 1.109375,-0.40625 1.03125,-0.25 1.03125,-0.234375 1.03125,-0.15625 c 0,0.1875 0.15625,0.265625 0.28125,0.265625 0.296875,0 0.375,-0.28125 0.5,-0.640625 C 1.953125,-1 1.953125,-1.015625 2.078125,-1.515625 Z m 0,0"
               style="stroke:none"
               inkscape:connector-curvature="0" />
          </symbol>
          <symbol
             id="textext-dfa06a45-8"
             overflow="visible"
             style="overflow:visible">
            <path
               id="path6821"
               d="m 2.03125,-0.015625 c 0,-0.65625 -0.25,-1.046875 -0.640625,-1.046875 -0.328125,0 -0.53125,0.25 -0.53125,0.53125 C 0.859375,-0.265625 1.0625,0 1.390625,0 1.5,0 1.640625,-0.046875 1.734375,-0.125 1.765625,-0.15625 1.78125,-0.15625 1.78125,-0.15625 c 0.015625,0 0.015625,0 0.015625,0.140625 0,0.75 -0.34375,1.34375 -0.671875,1.671875 -0.109375,0.109375 -0.109375,0.125 -0.109375,0.15625 0,0.078125 0.046875,0.109375 0.09375,0.109375 0.109375,0 0.921875,-0.765625 0.921875,-1.9375 z m 0,0"
               style="stroke:none"
               inkscape:connector-curvature="0" />
          </symbol>
        </g>
      </defs>
      <g
         id="textext-dfa06a45-9">
        <g
           id="g6830"
           style="fill:#000000;fill-opacity:1">
          <use
             id="use6828"
             y="134.765"
             x="223.43201"
             xlink:href="#textext-dfa06a45-1"
             width="100%"
             height="100%" />
        </g>
        <g
           id="g6834"
           style="fill:#000000;fill-opacity:1">
          <use
             id="use6832"
             y="134.765"
             x="234.806"
             xlink:href="#textext-dfa06a45-3"
             width="100%"
             height="100%" />
        </g>
        <g
           id="g6838"
           style="fill:#000000;fill-opacity:1">
          <use
             id="use6836"
             y="134.765"
             x="245.32451"
             xlink:href="#textext-dfa06a45-4"
             width="100%"
             height="100%" />
        </g>
        <g
           id="g6842"
           style="fill:#000000;fill-opacity:1">
          <use
             id="use6840"
             y="134.765"
             x="249.196"
             xlink:href="#textext-dfa06a45-7"
             width="100%"
             height="100%" />
        </g>
        <g
           id="g6846"
           style="fill:#000000;fill-opacity:1">
          <use
             id="use6844"
             y="134.765"
             x="255.23334"
             xlink:href="#textext-dfa06a45-8"
             width="100%"
             height="100%" />
        </g>
        <g
           id="g6850"
           style="fill:#000000;fill-opacity:1">
          <use
             id="use6848"
             y="134.765"
             x="259.6647"
             xlink:href="#textext-dfa06a45-7"
             width="100%"
             height="100%" />
        </g>
        <g
           id="g6854"
           style="fill:#000000;fill-opacity:1">
          <use
             id="use6852"
             y="134.765"
             x="265.69699"
             xlink:href="#textext-dfa06a45-5"
             width="100%"
             height="100%" />
        </g>
      </g>
    </g>
  </g>
</svg>
